if (_typeface_js && _typeface_js.loadFace) _typeface_js.loadFace({"glyphs":{"⌐":{"x_min":18.0625,"x_max":743.109375,"ha":763,"o":"m 31 238 l 130 238 q 143 251 143 238 l 143 444 l 729 444 q 743 458 743 444 l 743 550 q 729 562 743 562 l 31 562 q 18 550 18 562 l 18 251 q 31 238 18 238 "},"♀":{"x_min":41.671875,"x_max":680.609375,"ha":721,"o":"m 529 106 q 543 120 543 106 l 543 216 q 529 230 543 230 l 420 230 l 420 295 q 612 405 544 315 q 680 633 680 495 q 659 772 680 709 q 595 880 637 836 q 495 950 554 925 q 361 975 436 975 q 227 950 286 975 q 126 880 168 925 q 63 772 84 836 q 41 633 41 709 q 59 508 41 565 q 108 407 76 451 q 187 335 140 363 q 295 297 234 306 l 295 230 l 184 230 q 170 216 170 230 l 170 120 q 184 106 170 106 l 295 106 l 295 13 q 308 0 295 0 l 408 0 q 420 13 420 0 l 420 106 l 529 106 m 544 633 q 533 544 544 587 q 499 468 522 501 q 442 416 476 436 q 361 397 408 397 q 279 416 313 397 q 222 468 245 436 q 188 544 200 501 q 177 633 177 587 q 188 723 177 680 q 222 799 200 766 q 279 851 245 832 q 361 870 313 870 q 442 851 408 870 q 499 799 476 832 q 533 723 522 766 q 544 633 544 680 "},"‥":{"x_min":144.453125,"x_max":786.171875,"ha":920,"o":"m 334 69 q 306 127 334 102 q 240 152 279 152 q 172 127 200 152 q 144 69 144 102 q 174 9 144 33 q 240 -13 204 -13 q 305 9 276 -13 q 334 69 334 33 m 786 69 q 757 127 786 102 q 690 152 729 152 q 622 127 650 152 q 595 69 595 102 q 625 9 595 33 q 690 -13 654 -13 q 756 9 726 -13 q 786 69 786 33 "},"Á":{"x_min":0,"x_max":916.734375,"ha":917,"o":"m 902 0 q 916 13 916 0 l 916 93 q 902 106 916 106 l 832 106 l 536 979 q 523 988 533 988 l 409 988 q 397 979 400 988 l 80 106 l 12 106 q 0 93 0 106 l 0 13 q 12 0 0 0 l 163 0 q 176 9 173 0 l 290 336 l 611 336 l 718 9 q 732 0 720 0 l 902 0 m 698 1095 q 709 1109 709 1098 l 709 1208 q 704 1219 709 1215 q 694 1222 700 1223 l 273 1134 q 262 1122 262 1132 l 262 1043 q 267 1032 262 1036 q 279 1029 272 1027 l 698 1095 m 458 808 l 572 452 l 330 452 l 458 808 "},"ĥ":{"x_min":-82.65625,"x_max":780.625,"ha":761,"o":"m 780 62 l 751 111 q 732 115 744 122 q 710 102 723 109 q 686 95 697 95 q 669 101 675 95 q 663 127 663 106 l 663 437 q 605 611 663 545 q 418 676 547 676 q 310 652 356 676 q 233 594 263 629 l 233 945 q 227 991 233 969 q 209 1030 222 1013 q 174 1057 195 1047 q 122 1066 152 1066 q 54 1052 90 1066 q -11 1015 19 1038 q -15 997 -22 1007 l 13 950 q 22 943 16 944 q 33 945 27 941 q 54 958 43 952 q 79 963 66 963 q 97 955 91 963 q 102 925 102 947 l 102 13 q 116 0 102 0 l 219 0 q 233 13 233 0 l 233 322 q 243 413 233 369 q 274 490 252 456 q 329 543 295 523 q 409 563 362 563 q 503 523 475 563 q 531 419 531 483 l 531 409 l 530 130 l 530 125 q 555 27 530 62 q 644 -8 580 -8 q 713 6 679 -8 q 777 44 748 20 l 780 62 m 340 1118 q 352 1123 348 1118 q 352 1136 356 1129 l 204 1391 q 191 1398 200 1398 l 77 1398 q 71 1396 75 1398 q 66 1391 68 1394 l -80 1136 q -80 1123 -84 1129 q -69 1118 -76 1118 l 12 1118 q 19 1120 15 1118 q 25 1123 23 1122 l 129 1305 l 241 1123 q 246 1120 243 1122 q 252 1118 250 1118 l 340 1118 "},"׃":{"x_min":97.234375,"x_max":263.90625,"ha":338,"o":"m 263 77 q 239 143 263 115 q 180 170 215 170 q 121 143 145 170 q 97 77 97 115 q 122 10 97 37 q 180 -16 148 -16 q 238 10 212 -16 q 263 77 263 37 m 263 556 q 239 622 263 595 q 180 650 215 650 q 121 622 145 650 q 97 556 97 595 q 122 491 97 518 q 180 463 148 463 q 238 491 212 463 q 263 556 263 518 "},"Κ":{"x_min":59.734375,"x_max":919.515625,"ha":920,"o":"m 907 0 q 919 13 919 0 l 919 93 q 907 106 919 106 l 819 106 l 506 625 l 738 876 l 861 876 q 875 890 875 876 l 875 969 q 861 983 875 983 l 682 983 q 672 979 676 983 l 277 545 l 277 969 q 265 983 277 983 l 73 983 q 59 969 59 983 l 59 890 q 73 876 59 876 l 141 876 l 141 106 l 73 106 q 59 93 59 106 l 59 13 q 73 0 59 0 l 265 0 q 277 13 277 0 l 277 375 l 409 519 l 715 6 q 727 0 718 0 l 907 0 "},"»":{"x_min":80.671875,"x_max":613.9375,"ha":668,"o":"m 365 323 l 176 40 q 159 37 172 30 l 87 84 q 83 102 76 91 l 231 331 l 83 561 q 87 579 76 572 l 159 626 q 176 623 172 633 l 365 340 q 365 323 370 331 m 611 323 l 422 40 q 405 37 416 30 l 333 84 q 329 102 322 91 l 477 331 l 329 561 q 333 579 322 572 l 405 626 q 422 623 416 633 l 611 340 q 611 323 616 331 "},"∆":{"x_min":26.390625,"x_max":897.296875,"ha":897,"o":"m 884 0 q 897 13 897 0 l 897 95 l 543 975 q 530 983 540 983 l 415 983 q 409 980 412 983 q 404 975 405 977 l 26 95 l 26 13 q 40 0 26 0 l 884 0 m 462 804 l 736 119 l 180 119 l 462 804 "},"ў":{"x_min":-22.859375,"x_max":794.515625,"ha":795,"o":"m 794 575 l 794 594 q 772 614 786 602 q 739 637 758 626 q 697 656 720 648 q 647 665 675 665 q 639 666 647 665 q 621 667 632 668 q 601 663 611 666 q 586 650 591 659 q 482 405 533 527 q 379 161 431 283 l 241 540 q 222 590 233 566 q 198 631 212 613 q 164 660 184 650 q 115 670 144 670 q 46 657 79 670 q -16 619 13 643 q -20 601 -26 612 l 6 555 q 25 550 12 541 q 46 560 34 555 q 70 565 58 565 q 93 552 84 565 q 112 511 101 538 l 313 -8 l 201 -270 q 208 -288 195 -283 l 291 -320 q 309 -315 304 -326 l 661 519 q 679 544 672 538 q 698 550 687 550 q 722 541 709 550 q 744 526 734 533 q 762 529 757 519 l 794 575 m 618 966 q 618 979 622 973 q 605 986 613 986 l 523 986 q 512 979 515 986 l 405 795 l 295 979 q 283 986 291 986 l 195 986 q 184 979 188 986 q 184 966 180 973 l 333 711 q 338 707 334 709 q 344 705 341 705 l 458 705 q 465 707 461 705 q 470 711 469 709 l 618 966 "},"ţ":{"x_min":11.109375,"x_max":448.640625,"ha":428,"o":"m 448 38 l 448 115 q 441 127 448 123 q 427 126 434 130 q 381 106 412 116 q 322 97 351 97 q 266 118 279 97 q 254 190 254 138 l 254 555 l 408 555 q 422 569 422 555 l 422 643 q 408 655 422 655 l 254 655 l 254 822 q 241 834 254 834 l 140 834 q 126 822 126 834 l 126 655 l 23 655 q 11 643 11 655 l 11 569 q 23 555 11 555 l 126 555 l 126 175 q 150 59 126 100 q 222 1 173 18 q 184 -126 206 -62 q 138 -234 162 -190 q 147 -252 134 -248 l 215 -276 q 229 -273 222 -280 q 265 -222 245 -252 q 303 -156 284 -193 q 338 -80 322 -120 q 366 0 355 -40 q 410 12 390 5 q 441 26 430 19 l 448 38 "},"«":{"x_min":79.859375,"x_max":613.828125,"ha":668,"o":"m 607 84 l 534 37 q 518 40 522 30 l 329 323 q 329 340 322 331 l 518 623 q 534 626 522 633 l 607 579 q 611 561 618 572 l 461 331 l 611 102 q 607 84 618 91 m 361 84 l 288 37 q 272 40 277 30 l 83 323 q 83 340 76 331 l 272 623 q 288 626 277 633 l 361 579 q 365 561 372 572 l 215 331 l 365 102 q 361 84 372 91 "},"Ƽ":{"x_min":83.34375,"x_max":679.21875,"ha":757,"o":"m 679 315 q 595 550 679 465 q 363 636 511 636 q 297 632 325 636 q 240 622 269 629 l 252 862 l 626 862 q 640 875 640 862 l 640 970 q 626 983 640 983 l 152 983 q 143 979 147 983 q 138 970 138 975 l 116 477 q 122 466 116 470 q 136 466 129 462 q 243 507 188 494 q 341 520 297 520 q 485 470 431 520 q 538 315 538 419 q 489 161 538 220 q 338 102 440 102 q 215 121 268 102 q 104 176 163 140 q 90 176 97 180 q 83 165 83 172 l 83 61 q 90 48 83 51 q 187 6 123 30 q 350 -16 251 -16 q 479 6 419 -16 q 583 74 538 30 q 653 179 627 118 q 679 315 679 240 "},"í":{"x_min":3.53125,"x_max":358.359375,"ha":372,"o":"m 358 61 l 330 109 q 311 113 323 119 q 291 101 304 108 q 268 94 279 94 q 251 101 256 94 q 245 131 245 108 l 245 536 q 220 616 245 581 q 137 650 195 650 q 72 636 106 650 q 9 600 38 622 q 5 581 0 593 l 33 536 q 41 529 36 530 q 52 531 47 527 q 95 548 72 548 q 113 541 106 548 q 119 509 119 533 l 119 122 q 142 26 119 61 q 227 -8 165 -8 q 293 6 259 -8 q 355 44 327 20 l 358 61 m 327 926 q 329 939 333 933 q 318 945 326 945 l 212 945 q 202 940 205 945 l 22 700 q 20 686 16 693 q 31 679 23 679 l 122 679 q 128 680 125 679 q 131 684 131 682 l 327 926 "},"ņ":{"x_min":9.828125,"x_max":809.78125,"ha":788,"o":"m 809 61 l 780 109 q 771 115 777 115 q 759 113 765 116 q 738 101 751 108 q 713 94 725 94 q 698 100 704 94 q 693 125 693 105 l 693 131 l 691 430 q 632 602 691 537 q 445 666 573 666 q 328 638 377 666 q 250 572 279 611 q 218 628 241 605 q 145 651 194 651 q 80 636 113 651 q 16 600 47 622 q 12 583 5 591 l 40 536 q 49 529 43 530 q 59 531 55 527 q 81 544 69 538 q 105 550 94 550 q 124 541 118 550 q 130 511 130 533 l 130 13 q 143 0 130 0 l 247 0 q 259 13 259 0 l 259 318 q 269 408 259 365 q 300 484 279 451 q 355 536 322 516 q 436 555 388 555 q 529 514 501 555 q 558 404 558 473 l 558 122 q 583 26 558 61 q 672 -8 608 -8 q 741 6 707 -8 q 805 44 776 20 l 809 61 m 500 41 l 386 73 q 369 62 372 76 q 354 -12 363 26 q 331 -88 344 -51 q 305 -158 319 -125 q 277 -216 291 -191 q 286 -234 273 -230 l 354 -258 q 361 -259 356 -259 q 368 -255 365 -258 q 404 -203 384 -234 q 444 -135 425 -172 q 480 -57 463 -98 q 508 25 497 -16 l 500 41 "},"و":{"x_min":66.671875,"x_max":661.15625,"ha":695,"o":"m 80 275 l 523 275 q 506 210 519 243 q 469 151 493 177 q 410 108 445 125 q 326 91 375 91 q 215 106 262 91 q 134 138 168 120 q 121 138 127 143 q 115 126 115 134 l 115 40 q 122 27 115 30 q 205 -2 156 11 q 340 -16 254 -16 q 481 10 420 -16 q 581 83 541 37 q 641 191 620 129 q 661 325 661 254 q 639 463 661 401 q 578 571 618 526 q 481 641 538 616 q 352 666 423 666 q 140 581 213 666 q 66 333 66 495 l 66 288 q 80 275 66 275 m 356 563 q 471 514 431 563 q 522 377 511 465 l 204 377 q 244 514 208 465 q 356 563 280 563 "},"µ":{"x_min":7.046875,"x_max":801.453125,"ha":786,"o":"m 801 70 l 772 119 q 751 122 763 130 q 729 111 743 118 q 705 104 716 104 q 689 111 694 104 q 684 141 684 118 l 684 645 q 670 658 684 658 l 568 658 q 554 645 554 658 l 554 337 q 545 246 554 290 q 515 169 536 202 q 461 116 494 136 q 380 97 427 97 q 287 140 315 97 q 259 250 259 184 l 259 538 q 253 584 259 562 q 233 622 247 605 q 197 648 219 638 q 145 658 176 658 q 79 644 113 658 q 13 608 44 630 q 9 590 2 600 l 37 543 q 46 536 40 537 q 58 538 52 534 q 79 551 66 545 q 102 556 91 556 q 120 548 113 556 q 126 516 126 540 l 126 -302 q 138 -316 126 -316 l 237 -316 q 251 -302 251 -316 l 251 36 q 306 0 272 16 q 397 -16 341 -16 q 496 10 455 -16 q 563 75 537 37 q 596 20 572 41 q 663 0 620 0 q 733 14 698 0 q 797 52 768 29 l 801 70 "},"Ҫ":{"x_min":70.84375,"x_max":818.4375,"ha":845,"o":"m 816 938 q 809 955 822 952 q 693 996 758 977 q 537 1015 627 1015 q 348 977 434 1015 q 200 871 262 940 q 104 707 138 802 q 70 494 70 611 q 95 305 70 391 q 168 154 120 219 q 281 45 215 88 q 430 -15 348 1 l 355 -95 q 352 -104 352 -98 q 355 -113 352 -109 l 384 -145 q 397 -148 390 -151 q 410 -145 404 -145 q 422 -141 416 -144 l 420 -143 q 453 -134 438 -137 q 484 -130 468 -130 q 527 -138 506 -130 q 548 -168 548 -145 q 519 -198 548 -191 q 459 -205 490 -205 q 384 -195 423 -205 q 318 -176 345 -186 q 305 -178 311 -173 q 300 -190 300 -183 l 300 -261 q 309 -275 300 -272 q 395 -295 355 -288 q 484 -302 436 -302 q 553 -295 519 -302 q 614 -271 587 -287 q 658 -229 641 -255 q 675 -166 675 -204 q 662 -115 675 -137 q 629 -78 650 -93 q 584 -56 609 -63 q 534 -48 559 -48 l 502 -48 l 522 -25 l 534 -25 q 695 -6 627 -25 q 807 36 762 12 q 813 48 813 38 l 813 151 q 807 163 813 159 q 794 163 801 166 q 691 118 748 138 q 550 98 634 98 q 416 127 476 98 q 311 209 355 156 q 243 335 268 262 q 219 494 219 408 q 241 652 219 579 q 305 778 263 725 q 407 862 347 832 q 544 893 468 893 q 670 878 616 893 q 765 845 723 863 q 783 852 777 840 l 816 938 "},"Ι":{"x_min":51.390625,"x_max":334.75,"ha":379,"o":"m 322 0 q 334 13 334 0 l 334 93 q 322 106 334 106 l 256 106 l 256 876 l 322 876 q 334 890 334 876 l 334 969 q 322 983 334 983 l 63 983 q 51 969 51 983 l 51 890 q 63 876 51 876 l 127 876 l 127 106 l 63 106 q 51 93 51 106 l 51 13 q 63 0 51 0 l 322 0 "},"Ύ":{"x_min":-125.9375,"x_max":955.625,"ha":956,"o":"m 941 876 q 955 890 955 876 l 955 969 q 941 983 955 983 l 812 983 q 800 976 802 983 l 563 563 l 306 976 q 295 983 302 983 l 155 983 q 143 969 143 983 l 143 890 q 155 876 143 876 l 215 876 l 491 434 l 491 106 l 425 106 q 411 93 411 106 l 411 13 q 425 0 411 0 l 695 0 q 709 13 709 0 l 709 93 q 695 106 709 106 l 629 106 l 629 438 l 879 876 l 941 876 m 93 961 q 90 974 95 968 q 76 980 84 980 l -13 980 q -22 975 -19 980 l -125 734 q -122 720 -127 727 q -108 713 -116 713 l -33 713 q -27 715 -30 713 q -25 719 -25 716 l 93 961 "},"ѕ":{"x_min":40.28125,"x_max":525.046875,"ha":542,"o":"m 525 193 q 510 272 525 240 q 468 327 495 305 q 402 365 441 350 q 316 391 363 380 q 210 427 250 406 q 170 481 170 448 q 200 541 170 519 q 293 563 230 563 q 389 549 348 563 q 448 527 430 534 q 450 525 448 526 q 450 526 451 525 q 462 522 455 522 q 472 530 469 523 l 501 597 q 497 613 506 608 q 390 654 443 643 q 293 666 337 666 q 198 654 243 666 q 120 616 154 641 q 65 554 86 591 q 45 469 45 518 q 63 391 45 422 q 111 338 81 359 q 182 303 141 316 q 269 277 223 290 q 362 243 327 262 q 397 180 397 225 q 386 139 397 156 q 356 111 375 122 q 316 95 338 100 q 269 90 293 90 q 148 111 200 90 q 61 155 97 133 q 47 156 54 159 q 40 145 40 152 l 40 51 q 43 45 40 48 q 48 40 45 41 q 134 4 77 25 q 279 -16 191 -16 q 368 -4 323 -16 q 447 31 412 6 q 503 96 481 56 q 525 193 525 136 "},"Ш":{"x_min":26.390625,"x_max":1455.671875,"ha":1477,"o":"m 40 0 l 1441 -1 q 1455 12 1455 -1 l 1455 88 q 1441 102 1455 102 l 1375 102 l 1375 872 l 1441 872 q 1455 886 1455 872 l 1455 965 q 1441 979 1455 979 l 1158 979 q 1145 965 1145 979 l 1145 886 q 1158 872 1145 872 l 1238 872 l 1238 108 l 809 106 l 809 876 l 876 876 q 890 890 890 876 l 890 969 q 876 983 890 983 l 593 983 q 580 969 580 983 l 580 890 q 593 876 580 876 l 673 876 l 673 112 l 243 112 l 243 876 l 323 876 q 336 890 336 876 l 336 969 q 323 983 336 983 l 40 983 q 26 969 26 983 l 26 890 q 40 876 26 876 l 106 876 l 106 106 l 40 106 q 26 93 26 106 l 26 13 q 40 0 26 0 "},"M":{"x_min":55.5625,"x_max":1229.265625,"ha":1276,"o":"m 1215 0 q 1229 13 1229 0 l 1229 93 q 1215 106 1229 106 l 1147 106 l 1147 876 l 1215 876 q 1229 890 1229 876 l 1229 969 q 1215 983 1229 983 l 959 983 q 953 980 957 983 q 948 975 950 977 l 643 233 l 331 975 q 319 983 329 983 l 69 983 q 55 969 55 983 l 55 890 q 69 876 55 876 l 137 876 l 137 106 l 69 106 q 55 93 55 106 l 55 13 q 69 0 55 0 l 248 0 q 261 13 261 0 l 261 800 l 593 8 q 605 0 595 0 l 670 0 q 683 8 680 0 l 1011 798 l 1011 13 q 1023 0 1011 0 l 1215 0 "},"ũ":{"x_min":5.09375,"x_max":801.453125,"ha":786,"o":"m 801 69 l 772 116 q 763 122 769 122 q 751 120 757 123 q 729 109 743 116 q 705 102 716 102 q 689 109 694 102 q 684 140 684 116 l 684 637 q 670 650 684 650 l 568 650 q 554 637 554 650 l 554 333 q 544 243 554 286 q 513 167 534 200 q 458 115 491 134 q 377 95 425 95 q 284 137 312 95 q 256 247 256 179 l 256 536 q 230 616 256 581 q 143 650 204 650 q 76 636 111 650 q 11 600 41 622 q 5 591 6 597 q 6 583 4 586 l 34 536 q 43 529 37 530 q 54 531 50 527 q 76 544 63 538 q 100 550 88 550 q 117 543 111 550 q 123 516 123 536 l 123 219 q 181 47 123 112 q 369 -16 240 -16 q 484 10 436 -16 q 563 77 533 37 q 595 21 570 43 q 663 0 619 0 q 733 13 698 0 q 797 51 768 27 l 801 69 m 595 894 l 525 894 q 512 883 512 894 q 497 842 509 859 q 462 825 486 825 q 436 828 448 825 q 409 836 425 832 l 411 834 q 409 834 415 832 q 401 837 404 836 q 350 851 370 847 q 300 855 329 855 q 238 841 265 855 q 192 806 211 827 q 163 757 173 784 q 152 704 154 730 q 166 691 152 691 l 237 691 q 250 701 247 691 q 267 742 255 723 q 302 761 279 761 q 334 757 318 761 q 366 748 350 754 q 370 747 370 747 q 373 747 369 748 l 386 743 q 422 735 405 738 q 472 732 438 732 q 529 745 504 732 q 572 779 555 758 q 599 827 590 801 q 608 882 608 854 l 595 894 "},"ŭ":{"x_min":5.09375,"x_max":801.453125,"ha":786,"o":"m 801 69 l 772 116 q 763 122 769 122 q 751 120 757 123 q 729 109 743 116 q 705 102 716 102 q 689 109 694 102 q 684 140 684 116 l 684 637 q 670 650 684 650 l 568 650 q 554 637 554 650 l 554 333 q 544 243 554 286 q 513 167 534 200 q 458 115 491 134 q 377 95 425 95 q 284 137 312 95 q 256 247 256 179 l 256 536 q 230 616 256 581 q 143 650 204 650 q 76 636 111 650 q 11 600 41 622 q 5 591 6 597 q 6 583 4 586 l 34 536 q 43 529 37 530 q 54 531 50 527 q 76 544 63 538 q 100 550 88 550 q 117 543 111 550 q 123 516 123 536 l 123 219 q 181 47 123 112 q 369 -16 240 -16 q 484 10 436 -16 q 563 77 533 37 q 595 21 570 43 q 663 0 619 0 q 733 13 698 0 q 797 51 768 27 l 801 69 m 597 938 l 525 938 q 511 929 513 938 q 393 811 493 811 q 311 839 340 811 q 273 927 283 868 q 261 938 270 938 l 181 938 q 169 925 169 938 q 235 764 176 815 q 390 713 294 713 q 544 764 486 713 q 611 925 602 815 l 597 938 "},"―":{"x_min":56.953125,"x_max":1032.03125,"ha":1076,"o":"m 1018 456 q 1032 466 1032 456 l 1032 545 q 1018 556 1032 556 l 70 556 q 56 545 56 556 l 56 466 q 70 456 56 456 l 1018 456 "},"{":{"x_min":36.109375,"x_max":398.640625,"ha":408,"o":"m 386 -194 q 398 -180 398 -194 l 398 -95 q 386 -83 398 -83 l 316 -83 q 275 -54 284 -83 q 265 8 265 -26 l 265 219 q 256 288 265 258 q 236 341 248 319 q 207 376 223 362 q 177 397 191 390 q 207 420 191 405 q 236 455 223 434 q 256 504 248 476 q 265 570 265 533 l 265 786 q 275 849 265 822 q 316 876 284 876 l 386 876 q 398 890 398 876 l 398 975 q 386 987 398 987 l 295 987 q 244 975 270 987 q 196 940 218 963 q 161 882 175 916 q 147 804 147 848 l 147 590 q 138 531 147 558 q 116 487 130 505 q 84 459 102 469 q 48 450 66 450 q 36 437 36 450 l 36 355 q 48 341 36 341 q 115 304 84 341 q 147 201 147 268 l 147 -11 q 160 -89 147 -55 q 195 -147 173 -123 q 243 -182 216 -170 q 295 -194 269 -194 l 386 -194 "},"¼":{"x_min":280.578125,"x_max":1384.828125,"ha":1545,"o":"m 1370 116 q 1384 130 1384 116 l 1384 198 q 1370 212 1384 212 l 1314 212 l 1314 518 q 1300 531 1314 531 l 1179 531 q 1173 530 1176 531 q 1168 526 1169 529 l 927 211 l 927 130 q 941 116 927 116 l 1197 116 l 1197 86 l 1151 86 q 1137 73 1137 86 l 1137 9 q 1151 -4 1137 -4 l 1359 -4 q 1373 9 1373 -4 l 1373 73 q 1359 86 1373 86 l 1314 86 l 1314 116 l 1370 116 m 1262 957 q 1259 976 1272 969 l 1187 1026 q 1178 1028 1184 1029 q 1169 1023 1172 1027 l 404 27 q 406 9 394 18 l 477 -40 q 497 -37 488 -48 l 1262 957 m 538 463 q 552 477 552 463 l 552 543 q 538 556 552 556 l 479 556 l 479 988 q 475 1000 479 995 q 463 1001 470 1004 l 291 961 q 280 947 280 958 l 280 880 q 297 866 280 862 l 361 882 l 361 556 l 301 556 q 287 543 287 556 l 287 477 q 301 463 287 463 l 538 463 m 1048 212 l 1197 405 l 1197 212 l 1048 212 "},"▄":{"x_min":0,"x_max":1105.640625,"ha":1106,"o":"m 0 0 l 1105 0 l 1105 668 l 0 668 l 0 0 "},"ι":{"x_min":3.53125,"x_max":358.359375,"ha":344,"o":"m 358 61 l 330 109 q 311 113 323 119 q 291 101 304 108 q 268 94 279 94 q 251 101 256 94 q 245 131 245 108 l 245 536 q 220 616 245 581 q 137 650 195 650 q 72 636 106 650 q 9 600 38 622 q 5 581 0 593 l 33 536 q 41 529 36 530 q 52 531 47 527 q 95 548 72 548 q 113 541 106 548 q 119 509 119 533 l 119 122 q 142 26 119 61 q 227 -8 165 -8 q 293 6 259 -8 q 355 44 327 20 l 358 61 "},"":{"x_min":25,"x_max":1126.484375,"ha":1115,"o":"m 858 1027 q 857 1045 858 1034 q 844 1088 855 1057 q 787 1072 809 1079 q 788 1084 787 1079 q 788 1097 788 1090 q 787 1115 788 1104 q 775 1158 786 1126 q 575 1044 638 1126 q 502 851 511 962 q 459 863 486 855 q 329 886 384 886 q 108 775 195 886 q 25 498 25 666 q 52 316 25 406 q 131 134 79 226 q 258 -19 193 25 q 434 -127 341 -127 q 534 -102 472 -127 q 625 -81 584 -81 q 667 -86 644 -81 q 719 -101 690 -91 q 779 -119 751 -113 q 827 -125 807 -125 q 930 -90 880 -125 q 1030 22 980 -55 q 1126 229 1090 113 q 1047 268 1076 244 q 1052 282 1050 275 q 1057 298 1054 290 q 997 323 1020 309 q 961 454 961 383 q 1002 581 961 520 q 1036 620 1012 595 q 1095 676 1061 644 q 1008 768 1047 740 q 968 812 987 794 q 932 843 948 830 q 818 887 877 877 q 848 959 838 923 q 858 1027 858 994 m 548 816 q 647 840 573 816 q 768 863 720 863 q 916 819 851 863 q 988 750 957 791 q 942 705 962 726 q 909 666 922 684 q 875 598 887 634 q 863 523 863 562 q 912 368 863 437 q 1022 280 961 298 q 988 195 1009 238 q 937 106 966 151 q 847 4 891 36 q 758 -27 802 -27 q 659 -5 718 -27 q 555 15 598 15 q 455 -6 508 15 q 365 -30 395 -30 q 155 148 256 -30 q 79 323 105 236 q 52 498 52 411 q 130 758 52 655 q 329 858 209 858 q 452 837 379 858 q 548 816 525 816 m 761 1097 q 740 1001 761 1052 q 676 905 719 950 q 638 875 657 887 q 600 855 619 862 q 571 849 590 852 q 529 844 552 845 q 582 1023 530 947 q 757 1126 634 1098 q 760 1109 759 1116 q 761 1097 761 1102 "},"Ĳ":{"x_min":51.390625,"x_max":687.5625,"ha":724,"o":"m 673 877 q 687 890 687 877 l 687 970 q 673 983 687 983 l 401 983 q 388 970 388 983 l 388 890 q 401 877 388 877 l 475 877 l 475 16 q 455 -76 475 -41 q 379 -111 436 -111 q 309 -101 340 -111 q 252 -79 277 -91 q 234 -91 234 -73 l 234 -183 q 241 -195 234 -193 q 313 -219 276 -211 q 402 -227 350 -227 q 554 -167 502 -227 q 607 -11 607 -106 l 607 877 l 673 877 m 322 0 q 334 13 334 0 l 334 93 q 322 106 334 106 l 256 106 l 256 876 l 322 876 q 334 890 334 876 l 334 969 q 322 983 334 983 l 63 983 q 51 969 51 983 l 51 890 q 63 876 51 876 l 127 876 l 127 106 l 63 106 q 51 93 51 106 l 51 13 q 63 0 51 0 l 322 0 "},"Ê":{"x_min":63.890625,"x_max":755.609375,"ha":758,"o":"m 743 0 q 755 13 755 0 l 755 98 q 743 112 755 112 l 280 112 l 280 461 l 659 461 q 673 473 673 461 l 673 561 q 659 575 673 575 l 280 575 l 280 876 l 697 876 q 709 890 709 876 l 709 975 q 697 988 709 988 l 77 988 q 63 975 63 988 l 63 895 q 77 882 63 882 l 144 882 l 144 106 l 77 106 q 63 94 63 106 l 63 13 q 77 0 63 0 l 743 0 m 672 1033 q 684 1035 679 1032 q 688 1045 688 1038 l 688 1122 q 680 1134 688 1132 l 416 1250 q 405 1250 411 1252 l 144 1134 q 136 1122 136 1132 l 136 1045 q 154 1033 136 1030 l 411 1125 l 672 1033 "},"Ά":{"x_min":1.390625,"x_max":918.125,"ha":918,"o":"m 904 0 q 918 13 918 0 l 918 93 q 904 106 918 106 l 833 106 l 537 973 q 525 983 534 983 l 411 983 q 398 973 401 983 l 81 106 l 13 106 q 1 93 1 106 l 1 13 q 13 0 1 0 l 165 0 q 177 9 175 0 l 291 333 l 612 333 l 719 9 q 733 0 722 0 l 904 0 m 459 804 l 573 450 l 331 450 l 459 804 m 223 963 q 220 977 226 970 q 206 983 215 983 l 116 983 q 108 977 111 983 l 5 737 q 8 723 2 730 q 22 716 13 716 l 97 716 q 102 718 100 716 q 105 722 105 719 l 223 963 "},"ǭ":{"x_min":41.671875,"x_max":680.609375,"ha":721,"o":"m 570 -219 l 570 -154 q 565 -143 570 -147 q 552 -143 559 -138 q 505 -162 527 -155 q 458 -169 483 -169 q 416 -156 430 -169 q 401 -123 401 -144 q 412 -82 401 -102 q 439 -44 423 -62 q 473 -12 455 -26 q 504 12 491 1 q 634 131 588 50 q 680 325 680 212 q 659 464 680 401 q 595 572 637 527 q 495 641 554 616 q 361 666 436 666 q 227 641 286 666 q 126 572 168 616 q 63 464 84 527 q 41 325 41 401 q 63 186 41 248 q 126 78 84 123 q 227 8 168 33 q 361 -16 286 -16 q 313 -77 330 -44 q 295 -152 295 -109 q 337 -239 295 -211 q 436 -268 379 -268 q 500 -259 470 -268 q 565 -230 529 -250 l 570 -219 m 544 325 q 533 236 544 279 q 499 160 522 193 q 442 108 476 127 q 361 88 408 88 q 279 108 313 88 q 222 160 245 127 q 188 236 200 193 q 177 325 177 279 q 188 415 177 372 q 222 491 200 458 q 279 543 245 523 q 361 562 313 562 q 442 543 408 562 q 499 491 476 523 q 533 415 522 458 q 544 325 544 372 m 588 695 q 602 707 602 695 l 602 772 q 588 782 602 782 l 151 782 q 138 772 138 782 l 138 707 q 151 695 138 695 l 588 695 "},")":{"x_min":21.390625,"x_max":315.296875,"ha":360,"o":"m 315 397 q 265 713 315 555 q 123 1007 215 870 q 106 1009 115 1018 l 27 954 q 23 937 18 950 q 93 807 63 869 q 143 680 123 744 q 173 547 163 616 q 183 397 183 477 q 143 113 183 250 q 23 -140 104 -22 q 26 -158 18 -152 l 105 -215 q 114 -217 108 -218 q 123 -213 120 -216 q 263 71 212 -83 q 315 397 315 226 "},"ε":{"x_min":37.5,"x_max":573.65625,"ha":606,"o":"m 37 195 q 62 102 37 141 q 127 37 87 63 q 218 -1 168 11 q 322 -13 269 -13 q 448 0 393 -13 q 565 43 504 15 q 570 49 568 44 q 573 58 573 54 l 573 156 q 566 172 573 168 q 548 172 558 177 q 488 143 516 155 q 435 124 461 131 q 381 113 409 116 q 322 111 354 111 q 234 136 263 111 q 204 201 204 161 q 240 266 204 245 q 329 287 276 287 l 384 286 q 402 302 402 286 l 402 394 q 384 411 402 411 l 341 411 q 295 414 318 411 q 256 426 273 418 q 229 448 240 434 q 219 484 219 462 q 245 536 219 515 q 326 556 272 556 q 417 540 377 556 q 494 504 456 523 q 497 501 497 502 q 501 498 498 500 q 522 504 512 491 l 569 572 q 571 587 572 579 q 565 598 570 595 q 516 627 543 612 q 457 654 488 641 q 390 674 426 666 q 312 682 354 682 q 216 671 262 682 q 136 638 170 661 q 80 579 101 615 q 59 493 59 544 q 138 354 59 405 q 64 291 91 334 q 37 195 37 248 "},"э":{"x_min":35.5,"x_max":573.65625,"ha":607,"o":"m 66 533 q 84 526 72 520 q 146 547 106 536 q 241 559 186 559 q 374 509 327 559 q 433 387 420 459 l 137 387 q 123 376 123 387 l 123 293 q 137 281 123 281 l 434 281 q 373 147 423 198 q 237 95 323 95 q 152 106 195 95 q 58 144 109 116 q 44 144 51 148 q 37 131 37 140 l 37 44 q 45 31 37 34 q 129 2 76 18 q 244 -12 183 -12 q 384 12 323 -12 q 487 83 445 37 q 551 191 529 129 q 573 329 573 254 q 550 466 573 404 q 482 574 526 529 q 377 645 438 619 q 243 670 316 670 q 125 654 176 670 q 43 625 75 637 q 36 607 33 620 l 66 533 "},"ш":{"x_min":29.171875,"x_max":966.75,"ha":992,"o":"m 251 558 q 265 572 265 558 l 265 657 q 251 670 265 670 l 41 670 q 29 657 29 670 l 29 572 q 41 558 29 558 l 79 558 l 79 108 l 48 108 q 36 94 36 108 l 36 15 q 48 1 36 1 l 948 -1 q 962 11 962 -1 l 962 98 q 948 111 962 111 l 923 112 l 923 561 l 954 561 q 966 575 966 561 l 966 654 q 954 668 966 668 l 757 668 q 743 654 743 668 l 743 575 q 757 561 743 561 l 786 561 l 786 112 l 579 112 l 579 559 l 609 559 q 622 573 622 559 l 622 652 q 609 666 622 666 l 412 666 q 398 652 398 666 l 398 573 q 412 559 398 559 l 441 559 l 441 111 l 216 111 l 216 558 l 251 558 "},"Я":{"x_min":1.390625,"x_max":787.5625,"ha":839,"o":"m 13 0 l 150 0 q 206 15 184 0 q 243 56 229 30 q 268 115 258 81 q 286 188 277 150 q 303 259 294 223 q 327 327 312 294 q 365 387 343 359 q 420 434 387 415 l 570 434 l 570 106 l 502 106 q 488 93 488 106 l 488 13 q 502 0 488 0 l 773 0 q 787 13 787 0 l 787 93 q 773 106 787 106 l 707 106 l 707 876 l 773 876 q 787 890 787 876 l 787 969 q 773 983 787 983 l 406 983 q 169 910 254 983 q 84 707 84 837 q 102 600 84 645 q 156 519 120 555 q 206 480 180 495 q 269 454 231 465 q 223 410 241 434 q 193 358 205 386 q 172 302 180 330 q 156 245 163 273 q 145 196 150 220 q 129 151 140 172 q 72 106 109 106 l 13 106 q 1 93 1 106 l 1 13 q 13 0 1 0 m 230 707 q 272 827 230 784 q 398 870 315 870 l 570 870 l 570 548 l 398 548 q 230 707 230 548 "},"a":{"x_min":40.28125,"x_max":716.71875,"ha":720,"o":"m 716 69 l 687 118 q 668 120 680 127 q 646 109 659 116 q 622 102 633 102 q 606 109 611 102 q 601 140 601 116 l 601 416 q 538 600 601 534 q 336 666 475 666 q 225 654 277 666 q 130 618 172 641 q 125 600 119 612 l 152 531 q 161 525 155 526 q 170 526 166 523 q 246 553 209 545 q 319 561 283 561 q 432 527 394 561 q 470 431 470 494 l 470 390 q 397 431 443 413 q 294 448 351 448 q 187 431 234 448 q 107 382 140 413 q 57 309 75 351 q 40 216 40 266 q 104 45 40 108 q 286 -16 168 -16 q 405 8 356 -16 q 479 62 454 33 q 512 15 488 31 q 580 0 536 0 q 650 13 615 0 q 712 51 684 27 l 716 69 m 472 219 q 425 122 472 158 q 312 86 379 86 q 206 122 241 86 q 172 216 172 158 q 205 310 172 273 q 308 347 238 347 q 430 309 388 347 q 472 219 472 272 "},"Ę":{"x_min":63.890625,"x_max":757,"ha":758,"o":"m 736 -225 l 736 -159 q 730 -148 736 -152 q 718 -148 725 -144 q 670 -168 693 -161 q 623 -175 648 -175 q 581 -162 595 -175 q 566 -129 566 -150 q 576 -90 566 -109 q 600 -54 586 -70 q 631 -23 615 -37 q 662 0 648 -9 l 743 0 q 755 13 755 0 l 757 98 q 744 112 757 112 l 280 112 l 280 458 l 659 458 q 673 470 673 458 l 673 558 q 659 570 673 570 l 280 570 l 280 870 l 697 870 q 709 884 709 870 l 709 969 q 697 983 709 983 l 77 983 q 63 969 63 983 l 63 890 q 77 876 63 876 l 144 876 l 144 106 l 77 106 q 63 93 63 106 l 63 13 q 77 0 63 0 l 547 0 q 481 -68 506 -30 q 456 -158 456 -106 q 468 -209 456 -187 q 500 -245 480 -230 q 547 -266 520 -259 q 601 -273 573 -273 q 665 -264 636 -273 q 730 -236 694 -255 l 736 -225 "},"Z":{"x_min":34.71875,"x_max":751.453125,"ha":751,"o":"m 737 0 q 751 13 751 0 l 751 101 q 737 115 751 115 l 193 115 l 744 870 l 744 969 q 730 983 744 983 l 55 983 q 43 969 43 983 l 43 882 q 55 868 43 868 l 583 868 l 34 116 l 34 13 q 47 0 34 0 l 737 0 "},"k":{"x_min":-17.953125,"x_max":745.890625,"ha":696,"o":"m 745 80 l 713 126 q 695 129 708 136 q 673 113 686 122 q 650 105 661 105 q 631 111 638 105 q 612 136 623 116 l 455 431 l 665 572 q 668 590 673 577 l 622 662 q 602 666 615 672 l 234 406 l 234 948 q 209 1030 234 994 q 122 1066 183 1066 q 54 1052 90 1066 q -11 1015 19 1037 q -15 997 -22 1007 l 13 950 q 22 943 16 944 q 33 945 27 941 q 54 958 43 952 q 79 963 66 963 q 97 955 91 963 q 102 925 102 947 l 102 13 q 116 0 102 0 l 220 0 q 234 13 234 0 l 234 280 l 345 355 l 486 76 q 536 18 506 36 q 598 0 565 0 q 649 6 626 0 q 691 22 672 13 q 723 42 709 31 q 745 61 737 52 l 745 80 "},"Ù":{"x_min":47.21875,"x_max":954.25,"ha":996,"o":"m 940 882 q 954 895 954 882 l 954 975 q 940 988 954 988 l 754 988 q 740 975 740 988 l 740 352 q 683 152 740 212 q 506 93 626 93 q 325 152 381 93 q 269 352 269 212 l 269 975 q 255 988 269 988 l 59 988 q 47 975 47 988 l 47 895 q 59 882 47 882 l 127 882 l 127 331 q 149 181 127 248 q 216 68 170 115 q 334 -2 262 22 q 505 -26 405 -26 q 786 68 700 -26 q 873 331 873 163 l 873 882 l 940 882 m 694 1030 q 706 1032 701 1029 q 711 1043 711 1036 l 711 1122 q 700 1136 711 1133 l 280 1222 q 268 1220 273 1223 q 263 1209 263 1216 l 263 1109 q 275 1095 263 1098 l 694 1030 "},"⌶":{"x_min":2.78125,"x_max":1036.1875,"ha":1036,"o":"m 1023 0 q 1036 11 1036 0 l 1036 83 q 1023 94 1036 94 l 563 94 l 563 884 l 1023 884 q 1036 895 1036 884 l 1036 968 q 1023 979 1036 979 l 16 979 q 2 968 2 979 l 2 895 q 16 884 2 884 l 469 884 l 469 94 l 16 94 q 2 83 2 94 l 2 11 q 16 0 2 0 l 1023 0 "},"Ů":{"x_min":45.84375,"x_max":952.859375,"ha":996,"o":"m 938 877 q 952 890 952 877 l 952 970 q 938 984 952 984 l 752 984 q 738 970 738 984 l 738 351 q 682 152 738 212 q 505 91 625 91 q 324 152 380 91 q 268 351 268 212 l 268 970 q 254 984 268 984 l 58 984 q 45 970 45 984 l 45 890 q 58 877 45 877 l 126 877 l 126 329 q 147 180 126 245 q 215 69 169 115 q 332 0 261 23 q 504 -25 404 -25 q 670 0 601 -25 q 785 69 740 23 q 851 180 830 115 q 872 329 872 245 l 872 877 l 938 877 m 661 1188 q 650 1244 661 1218 q 619 1291 638 1270 q 572 1324 600 1312 q 513 1336 545 1336 q 454 1324 481 1336 q 408 1291 427 1312 q 377 1244 388 1270 q 366 1188 366 1218 q 407 1084 366 1126 q 513 1043 448 1043 q 572 1054 545 1043 q 619 1085 600 1065 q 650 1132 638 1105 q 661 1188 661 1158 m 579 1188 q 558 1141 579 1159 q 513 1123 537 1123 q 468 1141 488 1123 q 447 1188 447 1159 q 468 1235 447 1216 q 513 1254 488 1254 q 558 1235 537 1254 q 579 1188 579 1216 "},"¢":{"x_min":126.40625,"x_max":654.546875,"ha":751,"o":"m 652 766 q 645 784 658 779 q 575 811 618 797 q 475 829 533 826 l 475 963 q 461 977 475 977 l 393 977 q 380 963 380 977 l 380 823 q 275 782 322 811 q 194 709 227 752 q 143 610 161 665 q 126 491 126 555 q 191 270 126 361 q 380 158 256 180 l 380 12 q 393 -1 380 -1 l 461 -1 q 475 12 475 -1 l 475 152 q 572 169 527 155 q 644 195 616 183 q 651 208 651 198 l 651 295 q 645 308 651 304 q 632 308 638 312 q 548 272 586 281 q 475 261 511 262 l 475 718 q 554 705 520 715 q 607 686 587 695 q 623 693 619 682 l 652 766 m 258 491 q 287 623 258 563 q 380 705 316 683 l 380 275 q 290 355 322 298 q 258 491 258 412 "},"́":{"x_min":268.359375,"x_max":580.765625,"ha":778,"o":"m 280 697 l 372 697 q 377 698 373 697 q 381 702 380 700 l 576 944 q 579 957 583 951 q 566 963 575 963 l 462 963 q 456 962 459 963 q 451 958 452 961 l 270 718 q 269 704 266 711 q 280 697 272 697 "},"В":{"x_min":61.109375,"x_max":820.90625,"ha":868,"o":"m 820 279 q 807 362 820 323 q 768 432 793 401 q 709 486 743 463 q 634 519 675 508 q 736 604 700 550 q 773 736 773 658 q 745 851 773 804 q 670 927 716 898 q 566 970 625 957 q 444 983 506 983 l 75 983 q 61 969 61 983 l 61 890 q 75 876 61 876 l 141 876 l 141 106 l 75 106 q 61 93 61 106 l 61 13 q 75 0 61 0 l 437 0 q 575 12 506 0 q 698 56 644 25 q 786 143 752 88 q 820 279 820 197 m 668 283 q 652 209 668 241 q 608 156 636 177 q 542 123 580 134 q 459 112 504 112 l 277 112 l 277 455 l 462 455 q 540 446 502 455 q 606 417 577 437 q 651 363 634 397 q 668 283 668 330 m 627 720 q 609 645 627 675 q 563 597 591 615 q 498 574 534 580 q 425 568 462 568 l 277 568 l 277 870 l 436 870 q 573 836 519 870 q 627 720 627 802 "},"І":{"x_min":51.390625,"x_max":334.75,"ha":379,"o":"m 322 0 q 334 13 334 0 l 334 93 q 322 106 334 106 l 256 106 l 256 876 l 322 876 q 334 890 334 876 l 334 969 q 322 983 334 983 l 63 983 q 51 969 51 983 l 51 890 q 63 876 51 876 l 127 876 l 127 106 l 63 106 q 51 93 51 106 l 51 13 q 63 0 51 0 l 322 0 "},"ē":{"x_min":66.671875,"x_max":661.15625,"ha":695,"o":"m 647 275 q 661 288 661 275 l 661 333 q 587 581 661 495 q 375 666 513 666 q 246 641 304 666 q 149 571 188 616 q 88 463 109 526 q 66 325 66 401 q 86 191 66 254 q 146 83 106 129 q 246 10 186 37 q 387 -16 306 -16 q 522 -2 473 -16 q 605 27 570 11 q 612 40 612 30 l 612 126 q 606 138 612 134 q 593 138 600 143 q 512 106 559 120 q 401 91 465 91 q 317 108 352 91 q 258 151 281 125 q 221 210 234 177 q 204 275 208 243 l 647 275 m 370 563 q 483 514 447 563 q 523 377 519 465 l 205 377 q 256 514 216 465 q 370 563 295 563 m 587 702 q 601 713 601 702 l 601 779 q 587 788 601 788 l 150 788 q 137 779 137 788 l 137 713 q 150 702 137 702 l 587 702 "},"β":{"x_min":102.78125,"x_max":751.453125,"ha":792,"o":"m 751 312 q 700 508 751 434 q 552 609 650 581 q 637 692 604 637 q 670 826 670 747 q 650 926 670 882 q 595 1002 630 970 q 510 1050 559 1033 q 404 1066 461 1066 q 264 1041 322 1066 q 170 972 206 1016 q 118 870 134 929 q 102 744 102 812 l 102 -188 q 115 -202 102 -202 l 219 -202 q 233 -188 233 -202 l 233 748 q 240 827 233 788 q 267 896 248 866 q 318 944 286 926 q 398 962 350 962 q 499 925 461 962 q 537 815 537 887 q 496 702 537 743 q 388 661 455 661 l 359 661 q 345 647 345 661 l 345 558 q 359 544 345 544 l 390 544 q 550 489 488 544 q 611 322 611 434 q 558 151 611 206 q 418 95 505 95 q 373 98 394 95 q 320 111 352 101 q 304 97 304 115 l 304 13 q 312 0 304 2 q 373 -13 348 -11 q 429 -16 398 -16 q 556 4 497 -16 q 658 65 615 25 q 726 168 701 106 q 751 312 751 230 "},"≠":{"x_min":31.953125,"x_max":757,"ha":763,"o":"m 743 250 q 757 263 757 250 l 757 352 q 743 365 757 365 l 425 365 l 513 466 l 743 466 q 757 480 757 466 l 757 569 q 743 581 757 581 l 613 581 l 670 647 q 674 657 675 651 q 670 668 673 663 l 602 725 q 583 723 594 734 l 459 581 l 45 581 q 31 569 31 581 l 31 480 q 45 466 31 466 l 359 466 l 272 365 l 45 365 q 31 352 31 365 l 31 263 q 45 250 31 250 l 170 250 l 118 187 q 119 169 109 176 l 181 108 q 201 108 193 97 l 325 250 l 743 250 "},"¥":{"x_min":9.71875,"x_max":782,"ha":764,"o":"m 768 876 q 782 890 782 876 l 782 969 q 768 983 782 983 l 641 983 q 630 976 633 983 l 411 552 l 172 976 q 159 983 168 983 l 22 983 q 9 969 9 983 l 9 890 q 22 876 9 876 l 80 876 l 288 518 l 138 518 q 126 505 126 518 l 126 433 q 138 419 126 419 l 341 419 l 341 337 l 138 337 q 126 323 126 337 l 126 252 q 138 238 126 238 l 341 238 l 341 106 l 275 106 q 261 93 261 106 l 261 13 q 275 0 261 0 l 540 0 q 554 13 554 0 l 554 93 q 540 106 554 106 l 473 106 l 473 238 l 677 238 q 691 252 691 238 l 691 323 q 677 337 691 337 l 473 337 l 473 419 l 677 419 q 691 433 691 419 l 691 505 q 677 518 691 518 l 520 518 l 705 876 l 768 876 "},"Ĥ":{"x_min":52.78125,"x_max":958.40625,"ha":1008,"o":"m 944 0 q 958 13 958 0 l 958 93 q 944 106 958 106 l 876 106 l 876 876 l 944 876 q 958 890 958 876 l 958 969 q 944 983 958 983 l 752 983 q 738 969 738 983 l 738 568 l 270 568 l 270 969 q 256 983 270 983 l 65 983 q 52 969 52 983 l 52 890 q 65 876 52 876 l 133 876 l 133 106 l 65 106 q 52 93 52 106 l 52 13 q 65 0 52 0 l 256 0 q 270 13 270 0 l 270 455 l 738 455 l 738 13 q 752 0 738 0 l 944 0 m 702 1061 q 715 1066 711 1061 q 715 1079 719 1072 l 566 1334 q 554 1341 562 1341 l 440 1341 q 434 1339 437 1341 q 429 1334 430 1337 l 281 1079 q 281 1066 277 1072 q 293 1061 286 1061 l 375 1061 q 381 1063 377 1061 q 387 1066 386 1065 l 491 1248 l 604 1066 q 609 1063 605 1065 q 615 1061 612 1061 l 702 1061 "},"U":{"x_min":45.84375,"x_max":952.859375,"ha":996,"o":"m 938 877 q 952 890 952 877 l 952 970 q 938 984 952 984 l 752 984 q 738 970 738 984 l 738 351 q 682 152 738 212 q 505 91 625 91 q 324 152 380 91 q 268 351 268 212 l 268 970 q 254 984 268 984 l 58 984 q 45 970 45 984 l 45 890 q 58 877 45 877 l 126 877 l 126 329 q 147 180 126 245 q 215 69 169 115 q 332 0 261 23 q 504 -25 404 -25 q 670 0 601 -25 q 785 69 740 23 q 851 180 830 115 q 872 329 872 245 l 872 877 l 938 877 "},"ɼ":{"x_min":-10.1875,"x_max":521.34375,"ha":522,"o":"m 519 613 q 513 629 525 623 q 469 651 497 640 q 395 662 441 662 q 300 635 347 662 q 223 554 254 608 q 193 629 216 605 q 123 654 170 654 q 58 640 91 654 q -5 604 25 626 q -9 595 -8 601 q -8 586 -11 590 l 19 540 q 27 533 22 534 q 38 536 33 531 q 83 552 58 552 q 100 545 94 552 q 106 513 106 537 l 106 -305 q 120 -319 106 -319 l 222 -319 q 234 -305 234 -319 l 234 272 q 250 393 234 334 q 294 493 266 451 q 336 534 312 519 q 390 548 361 548 q 441 538 420 548 q 469 523 462 529 q 480 521 475 519 q 488 530 486 523 l 519 613 "},"Ñ":{"x_min":51.390625,"x_max":1016.75,"ha":1061,"o":"m 1002 882 q 1016 894 1016 882 l 1016 975 q 1002 988 1016 988 l 819 988 q 805 975 805 988 l 805 204 l 293 983 q 288 987 291 986 q 281 988 284 988 l 63 988 q 51 975 51 988 l 51 894 q 63 882 51 882 l 131 882 l 131 106 l 63 106 q 51 93 51 106 l 51 13 q 63 0 51 0 l 248 0 q 261 13 261 0 l 261 786 l 775 5 q 784 0 777 0 l 922 0 q 934 13 934 0 l 934 882 l 1002 882 m 805 1230 l 734 1230 q 722 1219 725 1230 q 706 1182 718 1200 q 669 1163 694 1163 q 618 1169 641 1163 q 569 1183 595 1175 q 561 1186 565 1184 q 554 1188 558 1187 l 555 1188 q 504 1202 530 1197 q 434 1207 479 1207 q 368 1192 397 1207 q 320 1154 340 1177 q 290 1101 301 1130 q 276 1043 279 1072 q 279 1032 275 1036 q 290 1027 283 1027 l 359 1027 q 373 1038 370 1027 q 390 1076 377 1058 q 431 1094 402 1094 q 475 1089 455 1094 q 513 1079 495 1084 l 512 1080 q 526 1076 519 1077 q 537 1073 533 1075 q 551 1069 545 1070 q 604 1057 576 1062 q 673 1051 633 1051 q 736 1066 709 1051 q 779 1104 762 1080 q 807 1157 797 1127 q 819 1215 816 1186 l 805 1230 "},"F":{"x_min":54.171875,"x_max":709.78125,"ha":707,"o":"m 695 870 q 709 884 709 870 l 709 969 q 695 983 709 983 l 68 983 q 54 969 54 983 l 54 890 q 68 876 54 876 l 134 876 l 134 106 l 68 106 q 54 93 54 106 l 54 13 q 68 0 54 0 l 350 0 q 363 13 363 0 l 363 93 q 350 106 363 106 l 269 106 l 269 466 l 604 466 q 618 479 618 466 l 618 565 q 604 579 618 579 l 269 579 l 269 870 l 695 870 "},"Ќ":{"x_min":59.734375,"x_max":919.515625,"ha":920,"o":"m 907 0 q 919 13 919 0 l 919 93 q 907 106 919 106 l 819 106 l 506 625 l 738 876 l 861 876 q 875 890 875 876 l 875 969 q 861 983 875 983 l 682 983 q 672 979 676 983 l 277 545 l 277 969 q 265 983 277 983 l 73 983 q 59 969 59 983 l 59 890 q 73 876 59 876 l 141 876 l 141 106 l 73 106 q 59 93 59 106 l 59 13 q 73 0 59 0 l 265 0 q 277 13 277 0 l 277 375 l 409 519 l 715 6 q 727 0 718 0 l 907 0 m 694 1100 q 704 1112 704 1102 l 704 1200 q 688 1211 704 1213 l 281 1134 q 270 1123 270 1132 l 270 1054 q 275 1044 270 1048 q 287 1041 280 1040 l 694 1100 "},"∕":{"x_min":-414.296875,"x_max":448.734375,"ha":7,"o":"m 444 957 l -316 -37 q -334 -40 -325 -48 l -408 9 q -409 27 -419 18 l 350 1023 q 359 1028 352 1027 q 368 1026 365 1029 l 441 976 q 444 957 454 970 "},"Ƶ":{"x_min":34.71875,"x_max":751.453125,"ha":751,"o":"m 722 456 q 736 466 736 456 l 736 545 q 722 556 736 556 l 515 556 l 744 870 l 744 969 q 730 983 744 983 l 55 983 q 43 969 43 983 l 43 882 q 55 868 43 868 l 583 868 l 355 556 l 55 556 q 41 545 41 556 l 41 466 q 55 456 41 456 l 283 456 l 34 116 l 34 13 q 47 0 34 0 l 737 0 q 751 13 751 0 l 751 101 q 737 115 751 115 l 193 115 l 441 456 l 722 456 "},"å":{"x_min":40.28125,"x_max":716.71875,"ha":749,"o":"m 716 69 l 687 118 q 668 120 680 127 q 646 109 659 116 q 622 102 633 102 q 606 109 611 102 q 601 140 601 116 l 601 416 q 538 600 601 534 q 336 666 475 666 q 225 654 277 666 q 130 618 172 641 q 125 600 119 612 l 152 531 q 161 525 155 526 q 170 526 166 523 q 246 553 209 545 q 319 561 283 561 q 432 527 394 561 q 470 431 470 494 l 470 390 q 397 431 443 413 q 294 448 351 448 q 187 431 234 448 q 107 382 140 413 q 57 309 75 351 q 40 216 40 266 q 104 45 40 108 q 286 -16 168 -16 q 405 8 356 -16 q 479 62 454 33 q 512 15 488 31 q 580 0 536 0 q 650 13 615 0 q 712 51 684 27 l 716 69 m 494 825 q 483 880 494 854 q 452 927 472 907 q 406 960 433 948 q 347 972 379 972 q 288 960 315 972 q 241 927 261 948 q 211 880 222 907 q 200 825 200 854 q 240 720 200 762 q 347 679 281 679 q 406 690 379 679 q 452 721 433 701 q 483 768 472 741 q 494 825 494 794 m 472 219 q 425 122 472 158 q 312 86 379 86 q 206 122 241 86 q 172 216 172 158 q 205 310 172 273 q 308 347 238 347 q 430 309 388 347 q 472 219 472 272 m 412 825 q 391 777 412 795 q 347 759 370 759 q 301 777 322 759 q 280 825 280 795 q 301 871 280 852 q 347 890 322 890 q 391 871 370 890 q 412 825 412 852 "},"Ϋ":{"x_min":1.390625,"x_max":813.953125,"ha":815,"o":"m 800 880 q 813 894 813 880 l 813 975 q 800 988 813 988 l 670 988 q 658 982 661 988 l 422 566 l 165 982 q 154 988 161 988 l 13 988 q 1 975 1 988 l 1 894 q 13 880 1 880 l 73 880 l 350 437 l 350 106 l 283 106 q 269 93 269 106 l 269 13 q 283 0 269 0 l 554 0 q 568 13 568 0 l 568 93 q 554 106 568 106 l 487 106 l 487 441 l 737 880 l 800 880 m 665 1115 q 640 1177 665 1151 q 579 1202 615 1202 q 518 1177 543 1202 q 494 1115 494 1151 q 518 1054 494 1079 q 579 1029 543 1029 q 640 1054 615 1029 q 665 1115 665 1079 m 336 1115 q 311 1177 336 1151 q 250 1202 286 1202 q 189 1177 213 1202 q 165 1115 165 1151 q 189 1054 165 1079 q 250 1029 213 1029 q 311 1054 286 1029 q 336 1115 336 1079 "},"0":{"x_min":58.34375,"x_max":727.84375,"ha":760,"o":"m 727 491 q 713 665 727 575 q 662 829 700 755 q 559 952 625 904 q 393 1000 494 1000 q 226 952 291 1000 q 123 829 161 904 q 72 665 86 755 q 58 491 58 575 q 72 318 58 408 q 123 154 86 229 q 226 31 161 79 q 393 -16 291 -16 q 559 31 494 -16 q 662 154 625 79 q 713 318 700 229 q 727 491 727 408 m 586 491 q 580 372 586 440 q 554 245 575 305 q 496 143 534 184 q 393 101 458 101 q 288 143 327 101 q 230 245 250 184 q 205 372 211 305 q 200 491 200 440 q 202 568 200 526 q 211 654 204 611 q 231 738 218 697 q 265 812 244 780 q 317 863 286 844 q 393 883 348 883 q 468 863 436 883 q 520 812 500 844 q 554 738 541 780 q 575 654 568 697 q 584 568 581 611 q 586 491 586 526 "},"ō":{"x_min":66.671875,"x_max":705.609375,"ha":746,"o":"m 705 325 q 684 464 705 401 q 620 572 662 527 q 520 641 579 616 q 386 666 461 666 q 252 641 311 666 q 151 572 193 616 q 88 464 109 527 q 66 325 66 401 q 88 186 66 248 q 151 78 109 123 q 252 8 193 33 q 386 -16 311 -16 q 520 8 461 -16 q 620 78 579 33 q 684 186 662 123 q 705 325 705 248 m 569 325 q 558 236 569 279 q 524 160 547 193 q 467 108 501 127 q 386 88 433 88 q 304 108 338 88 q 247 160 270 127 q 213 236 225 193 q 202 325 202 279 q 213 415 202 372 q 247 491 225 458 q 304 543 270 523 q 386 562 338 562 q 467 543 433 562 q 524 491 501 523 q 558 415 547 458 q 569 325 569 372 m 605 698 q 619 709 619 698 l 619 775 q 605 784 619 784 l 168 784 q 155 775 155 784 l 155 709 q 168 698 155 698 l 605 698 "},"”":{"x_min":78.25,"x_max":575.046875,"ha":624,"o":"m 565 977 l 575 961 q 544 879 562 920 q 505 802 526 838 q 463 734 484 765 q 425 682 443 702 q 409 677 419 676 l 337 702 q 330 720 323 709 q 359 779 344 745 q 386 849 373 812 q 410 925 400 886 q 427 1000 420 963 q 444 1009 429 1013 l 565 977 m 315 977 l 325 961 q 294 879 312 920 q 255 802 276 838 q 213 734 234 765 q 175 682 193 702 q 161 677 168 675 l 87 702 q 80 720 73 709 q 109 779 94 745 q 136 849 123 812 q 160 925 150 886 q 177 1000 170 963 q 194 1009 179 1013 l 315 977 "},"ö":{"x_min":66.671875,"x_max":705.609375,"ha":778,"o":"m 705 325 q 684 464 705 401 q 620 572 662 527 q 520 641 579 616 q 386 666 461 666 q 252 641 311 666 q 151 572 193 616 q 88 464 109 527 q 66 325 66 401 q 88 186 66 248 q 151 78 109 123 q 252 8 193 33 q 386 -16 311 -16 q 520 8 461 -16 q 620 78 579 33 q 684 186 662 123 q 705 325 705 248 m 569 325 q 558 236 569 279 q 524 160 547 193 q 467 108 501 127 q 386 88 433 88 q 304 108 338 88 q 247 160 270 127 q 213 236 225 193 q 202 325 202 279 q 213 415 202 372 q 247 491 225 458 q 304 543 270 523 q 386 562 338 562 q 467 543 433 562 q 524 491 501 523 q 558 415 547 458 q 569 325 569 372 m 593 738 q 569 791 593 769 q 509 813 545 813 q 450 791 473 813 q 426 738 426 769 q 450 685 426 707 q 509 663 473 663 q 569 685 545 663 q 593 738 593 707 m 334 738 q 311 791 334 769 q 251 813 287 813 q 192 791 216 813 q 168 738 168 769 q 192 685 168 707 q 251 663 216 663 q 311 685 287 663 q 334 738 334 707 "},"☺":{"x_min":29.171875,"x_max":1062.578125,"ha":1090,"o":"m 1062 491 q 1021 697 1062 602 q 909 861 980 791 q 745 969 838 930 q 545 1008 651 1008 q 346 969 440 1008 q 181 861 252 930 q 70 697 111 791 q 29 491 29 602 q 70 286 29 380 q 181 122 111 191 q 346 14 252 54 q 545 -25 440 -25 q 745 14 651 -25 q 909 122 838 54 q 1021 286 980 191 q 1062 491 1062 380 m 945 491 q 914 327 945 404 q 829 195 883 251 q 702 108 775 140 q 545 76 629 76 q 389 108 462 76 q 262 195 316 140 q 177 327 208 251 q 145 491 145 404 q 177 656 145 580 q 262 788 208 732 q 389 876 316 844 q 545 908 462 908 q 702 876 629 908 q 829 788 775 844 q 914 656 883 732 q 945 491 945 580 m 752 413 l 680 413 q 666 404 669 413 q 548 286 648 286 q 467 314 495 286 q 429 402 438 343 q 416 413 426 413 l 337 413 q 325 400 325 413 q 391 239 331 290 q 545 188 450 188 q 700 239 641 188 q 766 400 758 290 l 752 413 m 458 633 q 436 686 458 663 q 383 708 415 708 q 329 686 351 708 q 308 633 308 663 q 329 579 308 601 q 383 558 351 558 q 436 579 415 558 q 458 633 458 601 m 770 627 q 749 680 770 658 q 695 702 727 702 q 642 680 663 702 q 620 627 620 658 q 642 574 620 595 q 695 552 663 552 q 749 574 727 552 q 770 627 770 595 "},"ć":{"x_min":50,"x_max":588.171875,"ha":607,"o":"m 587 602 q 580 620 590 616 q 497 650 548 633 q 380 666 447 666 q 245 641 306 666 q 140 570 184 615 q 73 462 97 525 q 50 325 50 400 q 72 187 50 250 q 136 79 94 125 q 238 8 177 33 q 379 -16 300 -16 q 493 -1 440 -16 q 577 27 547 13 q 586 40 586 30 l 586 127 q 579 140 586 136 q 565 140 572 144 q 470 102 513 112 q 386 91 427 91 q 300 109 337 91 q 236 157 262 126 q 197 231 211 188 q 184 325 184 275 q 196 412 184 370 q 231 486 208 454 q 293 536 255 518 q 381 555 330 555 q 477 543 437 555 q 538 522 516 531 q 556 529 551 516 l 587 602 m 520 945 q 522 959 526 952 q 511 965 519 965 l 405 965 q 395 959 398 965 l 215 719 q 213 705 209 712 q 225 698 216 698 l 315 698 q 321 700 318 698 q 325 704 325 701 l 520 945 "},"þ":{"x_min":9.25,"x_max":770.890625,"ha":811,"o":"m 770 331 q 751 470 770 406 q 693 581 732 534 q 598 654 655 627 q 466 680 541 680 q 353 657 408 680 q 258 590 298 634 l 258 951 q 252 997 258 975 q 234 1036 247 1019 q 199 1063 220 1052 q 147 1073 177 1073 q 80 1059 115 1073 q 15 1020 45 1044 q 9 1012 11 1018 q 11 1004 8 1007 l 38 955 q 47 948 41 950 q 58 951 54 947 q 80 963 68 958 q 104 969 93 969 q 123 961 116 969 q 130 930 130 952 l 130 -298 q 143 -311 130 -311 l 247 -311 q 261 -298 261 -311 l 261 69 q 477 -16 334 -16 q 600 9 545 -16 q 692 83 654 36 q 750 193 730 130 q 770 331 770 256 m 630 331 q 620 241 630 284 q 588 166 609 198 q 534 115 568 134 q 455 95 501 95 q 373 115 409 95 q 312 166 337 134 q 274 241 287 198 q 261 331 261 284 q 274 422 261 379 q 313 497 287 465 q 375 550 338 530 q 458 569 412 569 q 536 550 504 569 q 590 497 569 530 q 620 422 611 465 q 630 331 630 379 "},"]":{"x_min":40.28125,"x_max":269.46875,"ha":328,"o":"m 256 -194 q 269 -180 269 -194 l 269 975 q 256 987 269 987 l 51 987 q 40 975 40 987 l 40 890 q 51 876 40 876 l 154 876 l 154 -83 l 51 -83 q 40 -95 40 -83 l 40 -180 q 51 -194 40 -194 l 256 -194 "},"А":{"x_min":1.390625,"x_max":918.125,"ha":918,"o":"m 904 0 q 918 13 918 0 l 918 93 q 904 106 918 106 l 833 106 l 537 973 q 525 983 534 983 l 411 983 q 398 973 401 983 l 81 106 l 13 106 q 1 93 1 106 l 1 13 q 13 0 1 0 l 165 0 q 177 9 175 0 l 291 333 l 612 333 l 719 9 q 733 0 722 0 l 904 0 m 459 804 l 573 450 l 331 450 l 459 804 "},"":{"x_min":38.890625,"x_max":1277.875,"ha":1353,"o":"m 1265 391 q 1277 405 1277 391 l 1277 463 q 1265 476 1277 476 l 1223 476 l 1223 879 l 1265 879 q 1277 893 1277 879 l 1277 951 q 1265 963 1277 963 l 1093 963 q 1086 961 1090 963 q 1082 957 1083 959 l 918 568 l 752 957 q 740 963 748 963 l 569 963 q 555 951 555 963 l 555 893 q 569 879 555 879 l 609 879 l 609 476 l 569 476 q 555 463 555 476 l 555 405 q 569 391 555 391 l 697 391 q 711 405 711 391 l 711 786 l 875 400 q 887 391 877 391 l 941 391 q 954 400 951 391 l 1115 783 l 1115 405 q 1129 391 1115 391 l 1265 391 m 491 872 q 505 884 505 872 l 505 951 q 491 963 505 963 l 52 963 q 38 951 38 963 l 38 884 q 52 872 38 872 l 216 872 l 216 476 l 173 476 q 161 463 161 476 l 161 405 q 173 391 161 391 l 370 391 q 384 405 384 391 l 384 463 q 370 476 384 476 l 329 476 l 329 872 l 491 872 "},"Ո":{"x_min":66.671875,"x_max":812.5625,"ha":881,"o":"m 812 12 l 812 654 q 791 802 812 737 q 725 913 770 868 q 611 984 680 959 q 444 1008 541 1008 q 272 984 344 1008 q 155 913 201 959 q 88 802 109 868 q 66 654 66 737 l 66 12 q 79 -1 66 -1 l 194 -1 q 208 12 208 -1 l 208 632 q 264 831 208 770 q 445 891 320 891 q 622 831 565 891 q 679 632 679 770 l 679 12 q 693 -1 679 -1 l 798 -1 q 812 12 812 -1 "},"′":{"x_min":36.796875,"x_max":295.703125,"ha":311,"o":"m 294 955 q 293 968 297 962 q 281 975 290 975 l 184 975 q 172 969 175 975 l 38 727 q 38 714 34 720 q 51 708 43 708 l 134 708 q 145 715 141 708 l 294 955 "},"Ы":{"x_min":-17.140625,"x_max":1093.140625,"ha":1083,"o":"m 751 330 q 732 468 751 405 q 674 578 712 531 q 577 650 636 625 q 441 676 519 676 q 327 654 381 676 q 234 590 272 632 l 234 947 q 209 1030 234 994 q 122 1066 183 1066 q 54 1052 90 1066 q -11 1015 19 1038 q -16 1007 -15 1012 q -15 998 -18 1001 l 13 950 q 33 947 22 938 q 54 959 43 954 q 79 963 66 963 q 97 955 91 963 q 102 925 102 947 l 102 13 q 116 0 102 0 l 220 0 q 234 13 234 0 l 234 79 q 321 11 266 38 q 451 -16 376 -16 q 578 9 522 -16 q 672 82 634 36 q 731 193 711 129 q 751 330 751 256 m 1093 61 l 1065 109 q 1045 113 1057 122 q 1025 101 1037 108 q 1001 94 1012 94 q 984 101 990 94 q 979 133 979 108 l 979 944 q 954 1029 979 993 q 870 1065 930 1065 q 807 1051 841 1065 q 744 1013 772 1037 q 740 995 733 1005 l 766 948 q 775 941 769 943 q 786 944 782 940 q 807 957 795 951 q 830 962 819 962 q 847 954 841 962 q 852 923 852 945 l 852 129 q 875 26 852 62 q 961 -9 898 -9 q 1027 4 994 -9 q 1088 43 1061 19 l 1093 61 m 612 330 q 602 240 612 283 q 572 165 593 198 q 518 114 551 133 q 437 95 484 95 q 351 114 388 95 q 288 165 313 133 q 248 240 262 198 q 234 330 234 283 q 248 420 234 377 q 288 495 262 463 q 351 547 313 527 q 437 566 388 566 q 518 547 484 566 q 572 495 551 527 q 602 420 593 463 q 612 330 612 377 "},"ĭ":{"x_min":-68.0625,"x_max":373.640625,"ha":344,"o":"m 358 61 l 330 109 q 311 113 323 119 q 291 101 304 108 q 268 94 279 94 q 251 101 256 94 q 245 131 245 108 l 245 536 q 220 616 245 581 q 137 650 195 650 q 72 636 106 650 q 9 600 38 622 q 5 581 0 593 l 33 536 q 41 529 36 530 q 52 531 47 527 q 95 548 72 548 q 113 541 106 548 q 119 509 119 533 l 119 122 q 142 26 119 61 q 227 -8 165 -8 q 293 6 259 -8 q 355 44 327 20 l 358 61 m 359 926 l 287 926 q 273 916 276 926 q 155 798 255 798 q 74 827 102 798 q 36 915 45 855 q 23 926 33 926 l -55 926 q -68 912 -68 926 q -2 752 -61 802 q 152 701 56 701 q 306 752 248 701 q 373 912 365 802 l 359 926 "},"8":{"x_min":77.78125,"x_max":705.609375,"ha":758,"o":"m 705 277 q 662 429 705 362 q 545 526 619 497 q 638 613 605 555 q 672 737 672 672 q 650 844 672 795 q 591 927 629 893 q 502 981 554 962 q 391 1000 451 1000 q 281 981 331 1000 q 193 927 230 962 q 134 844 155 893 q 112 737 112 795 q 145 613 112 672 q 238 526 179 555 q 120 429 163 497 q 77 277 77 362 q 102 154 77 208 q 168 61 126 100 q 268 3 211 23 q 391 -16 326 -16 q 515 3 458 -16 q 614 61 572 23 q 681 154 657 100 q 705 277 705 208 m 570 279 q 556 206 570 240 q 519 147 543 172 q 463 107 495 122 q 391 93 430 93 q 321 107 354 93 q 264 147 288 122 q 227 206 240 172 q 213 279 213 240 q 227 352 213 318 q 265 411 241 386 q 321 450 288 436 q 391 465 354 465 q 462 450 429 465 q 519 411 495 436 q 556 352 543 386 q 570 279 570 318 m 544 740 q 532 678 544 707 q 500 629 520 650 q 452 596 480 608 q 391 584 425 584 q 331 596 359 584 q 284 629 304 608 q 252 678 263 650 q 240 740 240 707 q 284 853 240 811 q 391 895 327 895 q 500 853 456 895 q 544 740 544 811 "},"R":{"x_min":51.390625,"x_max":837.5625,"ha":839,"o":"m 825 0 q 837 13 837 0 l 837 93 q 825 106 837 106 l 766 106 q 709 151 729 106 q 693 196 698 172 q 682 245 688 220 q 666 302 675 273 q 645 358 658 330 q 614 410 633 386 q 569 454 595 434 q 632 480 607 465 q 682 519 658 495 q 736 600 718 555 q 754 707 754 645 q 669 910 754 837 q 431 983 584 983 l 65 983 q 51 969 51 983 l 51 890 q 65 876 51 876 l 131 876 l 131 106 l 65 106 q 51 93 51 106 l 51 13 q 65 0 51 0 l 336 0 q 350 13 350 0 l 350 93 q 336 106 350 106 l 268 106 l 268 434 l 418 434 q 473 387 451 415 q 511 327 495 359 q 535 259 526 294 q 552 188 544 223 q 570 115 561 150 q 595 56 580 81 q 631 15 609 30 q 688 0 654 0 l 825 0 m 608 707 q 440 548 608 548 l 268 548 l 268 870 l 440 870 q 566 827 523 870 q 608 707 608 784 "},"Ż":{"x_min":34.71875,"x_max":751.453125,"ha":751,"o":"m 737 0 q 751 13 751 0 l 751 101 q 737 115 751 115 l 193 115 l 744 870 l 744 969 q 730 983 744 983 l 55 983 q 43 969 43 983 l 43 882 q 55 868 43 868 l 583 868 l 34 116 l 34 13 q 47 0 34 0 l 737 0 m 479 1116 q 457 1169 479 1147 q 404 1191 436 1191 q 350 1169 372 1191 q 329 1116 329 1147 q 350 1063 329 1084 q 404 1041 372 1041 q 457 1063 436 1041 q 479 1116 479 1084 "},"ħ":{"x_min":-17.953125,"x_max":780.625,"ha":761,"o":"m 320 768 q 333 779 333 768 l 333 862 q 320 873 333 873 l 233 873 l 233 945 q 227 991 233 969 q 209 1030 222 1013 q 174 1057 195 1047 q 122 1066 152 1066 q 54 1052 90 1066 q -11 1015 19 1038 q -15 997 -22 1007 l 13 950 q 22 943 16 944 q 33 945 27 941 q 54 958 43 952 q 79 963 66 963 q 97 955 91 963 q 102 925 102 947 l 102 873 l 6 873 q -6 862 -6 873 l -6 779 q 6 768 -6 768 l 102 768 l 102 13 q 116 0 102 0 l 219 0 q 233 13 233 0 l 233 322 q 243 413 233 369 q 274 490 252 456 q 329 543 295 523 q 409 563 362 563 q 503 523 475 563 q 531 419 531 483 l 531 409 l 530 130 l 530 125 q 555 27 530 62 q 644 -8 580 -8 q 713 6 679 -8 q 777 44 748 20 l 780 62 l 751 111 q 732 115 744 122 q 710 102 723 109 q 686 95 697 95 q 669 101 675 95 q 663 127 663 106 l 663 437 q 605 611 663 545 q 418 676 547 676 q 310 652 356 676 q 233 594 263 629 l 233 768 l 320 768 "},"õ":{"x_min":66.671875,"x_max":705.609375,"ha":778,"o":"m 705 325 q 684 464 705 401 q 620 572 662 527 q 520 641 579 616 q 386 666 461 666 q 252 641 311 666 q 151 572 193 616 q 88 464 109 527 q 66 325 66 401 q 88 186 66 248 q 151 78 109 123 q 252 8 193 33 q 386 -16 311 -16 q 520 8 461 -16 q 620 78 579 33 q 684 186 662 123 q 705 325 705 248 m 569 325 q 558 236 569 279 q 524 160 547 193 q 467 108 501 127 q 386 88 433 88 q 304 108 338 88 q 247 160 270 127 q 213 236 225 193 q 202 325 202 279 q 213 415 202 372 q 247 491 225 458 q 304 543 270 523 q 386 562 338 562 q 467 543 433 562 q 524 491 501 523 q 558 415 547 458 q 569 325 569 372 m 601 880 l 530 880 q 518 869 518 880 q 503 828 515 845 q 468 811 491 811 q 442 814 454 811 q 415 822 430 818 l 416 820 q 415 820 420 818 q 406 823 409 822 q 355 837 376 833 q 305 841 334 841 q 243 827 270 841 q 197 792 216 813 q 169 743 179 770 q 158 690 159 716 q 172 677 158 677 l 243 677 q 255 687 252 677 q 272 728 261 709 q 308 747 284 747 q 339 743 323 747 q 372 734 355 740 q 375 734 376 733 q 379 733 375 734 l 391 729 q 427 721 411 725 q 477 718 444 718 q 535 731 509 718 q 578 766 561 744 q 604 813 595 787 q 613 868 613 840 l 601 880 "},"─":{"x_min":0,"x_max":1033.421875,"ha":1033,"o":"m 1020 444 q 1033 455 1033 444 l 1033 527 q 1020 538 1033 538 l 13 538 q 0 527 0 538 l 0 455 q 13 444 0 444 l 1020 444 "},"˙":{"x_min":243.078125,"x_max":393.09375,"ha":613,"o":"m 393 738 q 371 791 393 769 q 318 813 350 813 q 264 791 286 813 q 243 738 243 769 q 264 685 243 707 q 318 663 286 663 q 371 685 350 663 q 393 738 393 707 "},"ê":{"x_min":66.671875,"x_max":661.15625,"ha":726,"o":"m 647 275 q 661 288 661 275 l 661 333 q 587 581 661 495 q 375 666 513 666 q 246 641 304 666 q 149 571 188 616 q 88 463 109 526 q 66 325 66 401 q 86 191 66 254 q 146 83 106 129 q 246 10 186 37 q 387 -16 306 -16 q 522 -2 473 -16 q 605 27 570 11 q 612 40 612 30 l 612 126 q 606 138 612 134 q 593 138 600 143 q 512 106 559 120 q 401 91 465 91 q 317 108 352 91 q 258 151 281 125 q 221 210 234 177 q 204 275 208 243 l 647 275 m 587 697 q 600 702 595 697 q 600 715 604 708 l 451 970 q 438 977 447 977 l 325 977 q 318 975 322 977 q 313 970 315 973 l 166 715 q 166 702 162 708 q 177 697 170 697 l 259 697 q 266 699 262 697 q 272 702 270 701 l 376 884 l 488 702 q 493 699 490 701 q 500 697 497 697 l 587 697 m 370 563 q 483 514 447 563 q 523 377 519 465 l 205 377 q 256 514 216 465 q 370 563 295 563 "},"″":{"x_min":31.25,"x_max":479.90625,"ha":494,"o":"m 288 961 q 288 974 291 968 q 276 980 284 980 l 179 980 q 166 975 169 980 l 33 733 q 33 720 29 726 q 45 713 37 713 l 129 713 q 140 720 136 713 l 288 961 m 477 961 q 477 974 481 968 q 466 980 473 980 l 368 980 q 356 975 359 980 l 223 733 q 223 720 219 726 q 234 713 227 713 l 318 713 q 330 720 326 713 l 477 961 "},"„":{"x_min":64.234375,"x_max":559.765625,"ha":624,"o":"m 301 125 l 309 108 q 281 25 298 66 q 243 -52 263 -15 q 200 -120 222 -90 q 161 -172 179 -151 q 145 -175 155 -177 l 73 -151 q 65 -133 61 -147 q 120 -4 94 -80 q 162 145 147 72 q 180 156 165 158 l 301 125 m 551 125 l 559 108 q 530 25 548 66 q 491 -52 512 -15 q 449 -120 470 -88 q 409 -172 427 -151 q 403 -175 408 -175 q 395 -175 398 -176 l 323 -151 q 315 -133 309 -145 q 370 -4 344 -80 q 412 145 397 72 q 430 156 415 158 l 551 125 "},"ч":{"x_min":-19.453125,"x_max":779.125,"ha":761,"o":"m -19 613 l 9 565 q 29 561 16 554 q 50 573 37 566 q 75 580 63 580 q 91 575 86 580 q 97 548 97 569 l 97 454 q 155 280 97 345 q 343 215 213 215 q 450 238 404 215 q 527 297 497 262 l 527 122 q 552 37 527 73 q 638 1 577 1 q 706 15 670 1 q 772 52 741 29 q 776 70 783 61 l 747 118 q 738 125 744 123 q 727 122 733 126 q 706 109 718 115 q 682 104 694 104 q 663 112 669 104 q 658 143 658 120 l 658 662 q 644 676 658 676 l 541 676 q 527 662 527 676 l 527 569 q 518 477 527 520 q 486 400 508 433 q 431 347 465 366 q 351 327 398 327 q 257 368 286 327 q 229 472 229 408 l 229 551 q 204 649 229 613 q 116 684 180 684 q 47 670 81 684 q -16 632 12 655 l -19 613 "},"․":{"x_min":97.234375,"x_max":263.90625,"ha":338,"o":"m 263 69 q 239 127 263 102 q 180 152 215 152 q 121 127 145 152 q 97 69 97 102 q 122 9 97 33 q 180 -13 148 -13 q 238 9 212 -13 q 263 69 263 33 "},"Â":{"x_min":0,"x_max":916.734375,"ha":917,"o":"m 902 0 q 916 13 916 0 l 916 94 q 902 106 916 106 l 832 106 l 536 979 q 523 988 533 988 l 409 988 q 397 979 400 988 l 80 106 l 12 106 q 0 94 0 106 l 0 13 q 12 0 0 0 l 163 0 q 176 9 173 0 l 290 336 l 611 336 l 718 9 q 732 0 720 0 l 902 0 m 726 1033 q 743 1045 743 1030 l 743 1122 q 736 1134 743 1132 l 468 1250 q 458 1250 462 1252 l 193 1134 q 186 1122 186 1130 l 186 1045 q 202 1033 186 1030 l 463 1125 l 726 1033 m 458 808 l 572 452 l 330 452 l 458 808 "},"Į":{"x_min":51.390625,"x_max":395.859375,"ha":379,"o":"m 395 -225 l 395 -159 q 390 -148 395 -152 q 377 -148 384 -144 q 330 -168 352 -161 q 283 -175 308 -175 q 240 -162 255 -175 q 226 -129 226 -150 q 236 -90 226 -109 q 260 -54 245 -70 q 291 -23 275 -37 q 322 0 308 -9 q 334 13 334 0 l 334 93 q 322 106 334 106 l 256 106 l 256 876 l 322 876 q 334 890 334 876 l 334 969 q 322 983 334 983 l 63 983 q 51 969 51 983 l 51 890 q 63 876 51 876 l 127 876 l 127 106 l 63 106 q 51 93 51 106 l 51 13 q 63 0 51 0 l 206 0 q 141 -68 166 -30 q 116 -158 116 -106 q 128 -209 116 -187 q 160 -245 140 -230 q 206 -266 180 -259 q 261 -273 233 -273 q 325 -264 295 -273 q 390 -236 354 -255 l 395 -225 "},"ҫ":{"x_min":66.671875,"x_max":604.84375,"ha":607,"o":"m 604 609 q 597 627 607 623 q 514 658 565 641 q 397 675 463 675 q 262 649 323 675 q 157 577 201 623 q 90 467 113 530 q 66 329 66 404 q 82 207 66 263 q 130 107 98 151 q 208 34 162 63 q 315 -8 254 4 l 245 -98 q 247 -116 237 -109 l 276 -144 q 290 -147 283 -151 q 322 -134 305 -140 q 355 -129 338 -129 q 393 -136 376 -129 q 411 -165 411 -144 q 386 -194 411 -188 q 333 -200 362 -200 q 266 -190 301 -200 q 211 -172 231 -181 q 193 -184 193 -166 l 193 -251 q 195 -259 193 -255 q 201 -263 198 -262 q 275 -285 240 -277 q 351 -293 309 -293 q 417 -286 386 -293 q 472 -263 448 -279 q 510 -223 495 -248 q 525 -162 525 -198 q 512 -111 525 -133 q 481 -76 500 -90 q 440 -55 462 -62 q 397 -48 418 -48 l 375 -48 l 401 -16 q 511 0 459 -15 q 594 27 563 15 q 602 40 602 30 l 602 129 q 595 141 602 137 q 581 141 588 145 q 487 103 530 113 q 402 93 444 93 q 316 111 354 93 q 253 160 279 129 q 214 234 227 191 q 201 329 201 277 q 213 417 201 375 q 248 491 225 459 q 309 542 272 523 q 398 561 347 561 q 493 550 454 561 q 555 527 533 538 q 573 534 568 522 l 604 609 "},"Ţ":{"x_min":4.171875,"x_max":745.890625,"ha":745,"o":"m 732 870 q 745 884 745 870 l 745 969 q 732 983 745 983 l 16 983 q 4 969 4 983 l 4 884 q 16 870 4 870 l 305 870 l 305 106 l 238 106 q 226 93 226 106 l 226 13 q 238 0 226 0 l 316 0 q 279 -129 302 -65 q 233 -237 256 -193 q 241 -255 229 -251 l 309 -279 q 323 -276 316 -283 q 359 -225 340 -255 q 397 -157 379 -194 q 434 -80 416 -120 q 462 0 451 -40 l 509 0 q 523 13 523 0 l 523 93 q 509 106 523 106 l 443 106 l 443 870 l 732 870 "},"₄":{"x_min":141.671875,"x_max":598.65625,"ha":760,"o":"m 584 116 q 598 130 598 116 l 598 198 q 584 212 598 212 l 527 212 l 527 518 q 513 531 527 531 l 393 531 q 386 530 390 531 q 381 526 383 529 l 141 211 l 141 130 q 155 116 141 116 l 411 116 l 411 86 l 365 86 q 351 73 351 86 l 351 9 q 365 -4 351 -4 l 573 -4 q 587 9 587 -4 l 587 73 q 573 86 587 86 l 527 86 l 527 116 l 584 116 m 262 212 l 411 405 l 411 212 l 262 212 "},"´":{"x_min":189.65625,"x_max":502.0625,"ha":667,"o":"m 498 926 q 500 939 504 933 q 488 945 497 945 l 383 945 q 373 940 376 945 l 193 700 q 190 686 187 693 q 202 679 194 679 l 293 679 q 299 680 295 679 q 302 684 302 682 l 498 926 "},"Ĉ":{"x_min":62.5,"x_max":810.109375,"ha":845,"o":"m 808 933 q 801 951 813 945 q 684 990 750 972 q 529 1008 619 1008 q 340 970 426 1008 q 192 865 254 933 q 96 702 130 797 q 62 491 62 607 q 95 279 62 375 q 190 116 129 184 q 336 11 251 48 q 526 -25 422 -25 q 686 -6 619 -25 q 798 36 754 12 q 805 48 805 38 l 805 150 q 799 162 805 158 q 786 162 793 166 q 683 118 740 137 q 541 98 626 98 q 407 127 468 98 q 303 209 347 156 q 235 333 259 261 q 211 491 211 405 q 233 648 211 576 q 297 774 255 720 q 399 858 338 827 q 536 888 459 888 q 661 873 608 888 q 757 841 715 858 q 775 848 769 836 l 808 933 m 695 1041 q 708 1047 704 1041 q 708 1059 712 1052 l 559 1315 q 547 1322 555 1322 l 433 1322 q 427 1320 430 1322 q 422 1315 423 1318 l 275 1059 q 275 1047 270 1052 q 286 1041 279 1041 l 368 1041 q 375 1043 370 1041 q 380 1047 379 1045 l 484 1229 l 597 1047 q 602 1043 598 1045 q 608 1041 605 1041 l 695 1041 "},"И":{"x_min":43.0625,"x_max":1008.40625,"ha":1061,"o":"m 56 876 l 125 876 l 125 13 q 137 0 125 0 l 275 0 q 284 5 281 0 l 798 782 l 798 13 q 811 0 798 0 l 995 0 q 1008 13 1008 0 l 1008 93 q 995 106 1008 106 l 927 106 l 927 876 l 995 876 q 1008 890 1008 876 l 1008 969 q 995 983 1008 983 l 777 983 q 771 982 775 983 q 766 977 768 980 l 254 202 l 254 969 q 240 983 254 983 l 56 983 q 43 969 43 983 l 43 890 q 56 876 43 876 "},"ة":{"x_min":66.671875,"x_max":705.609375,"ha":778,"o":"m 705 325 q 684 464 705 401 q 620 572 662 527 q 520 641 579 616 q 386 666 461 666 q 252 641 311 666 q 151 572 193 616 q 88 464 109 527 q 66 325 66 401 q 88 186 66 248 q 151 78 109 123 q 252 8 193 33 q 386 -16 311 -16 q 520 8 461 -16 q 620 78 579 33 q 684 186 662 123 q 705 325 705 248 m 569 325 q 558 236 569 279 q 524 160 547 193 q 467 108 501 127 q 386 88 433 88 q 304 108 338 88 q 247 160 270 127 q 213 236 225 193 q 202 325 202 279 q 213 415 202 372 q 247 491 225 458 q 304 543 270 523 q 386 562 338 562 q 467 543 433 562 q 524 491 501 523 q 558 415 547 458 q 569 325 569 372 m 588 863 q 565 916 588 894 q 505 938 541 938 q 445 916 469 938 q 422 863 422 894 q 445 810 422 832 q 505 788 469 788 q 565 810 541 788 q 588 863 588 832 m 330 863 q 306 916 330 894 q 247 938 283 938 q 188 916 212 938 q 163 863 163 894 q 188 810 163 832 q 247 788 212 788 q 306 810 283 788 q 330 863 330 832 "},"○":{"x_min":29.171875,"x_max":1062.578125,"ha":1090,"o":"m 1062 491 q 1021 697 1062 602 q 909 861 980 791 q 745 969 838 930 q 545 1008 651 1008 q 346 969 440 1008 q 181 861 252 930 q 70 697 111 791 q 29 491 29 602 q 70 286 29 380 q 181 122 111 191 q 346 14 252 54 q 545 -25 440 -25 q 745 14 651 -25 q 909 122 838 54 q 1021 286 980 191 q 1062 491 1062 380 m 945 491 q 914 327 945 404 q 829 195 883 251 q 702 108 775 140 q 545 76 629 76 q 389 108 462 76 q 262 195 316 140 q 177 327 208 251 q 145 491 145 404 q 177 656 145 580 q 262 788 208 732 q 389 876 316 844 q 545 908 462 908 q 702 876 629 908 q 829 788 775 844 q 914 656 883 732 q 945 491 945 580 "},"Љ":{"x_min":0,"x_max":1320.9375,"ha":1350,"o":"m 1320 340 q 1301 478 1320 415 q 1243 588 1282 541 q 1147 660 1205 634 q 1011 686 1088 686 q 896 663 951 686 q 804 600 841 641 l 804 875 l 870 875 q 884 888 884 875 l 884 968 q 870 982 884 982 l 248 980 q 234 969 234 980 l 234 884 q 248 873 234 873 l 329 873 q 286 586 306 707 q 246 383 266 466 q 206 249 226 300 q 162 170 186 198 q 112 129 138 141 q 54 115 86 118 l 13 115 q 0 102 0 115 l 0 9 q 13 -2 0 -2 q 70 -2 54 -2 q 92 0 87 -1 q 98 0 97 0 q 111 1 100 1 q 203 29 162 1 q 275 107 244 58 q 330 222 306 156 q 372 359 354 287 q 403 504 390 430 q 427 647 416 579 q 445 774 437 716 q 462 869 454 832 l 668 869 l 668 0 l 793 0 q 805 12 805 0 l 805 86 q 892 19 837 45 q 1020 -6 947 -6 q 1148 19 1091 -6 q 1242 92 1204 45 q 1300 202 1280 138 q 1320 340 1320 266 m 1182 340 q 1172 250 1182 293 q 1141 175 1162 208 q 1087 124 1120 143 q 1007 105 1054 105 q 922 123 959 105 q 859 172 886 141 q 819 243 833 202 q 804 330 805 284 l 804 340 q 818 430 804 387 q 857 505 832 473 q 920 556 883 537 q 1007 576 958 576 q 1087 556 1054 576 q 1141 505 1120 537 q 1172 430 1162 473 q 1182 340 1182 387 "},"р":{"x_min":9.828125,"x_max":770.890625,"ha":811,"o":"m 770 329 q 751 467 770 404 q 693 577 732 530 q 598 649 655 623 q 466 675 541 675 q 350 651 406 675 q 252 580 293 627 q 220 636 245 613 q 145 659 194 659 q 80 645 113 659 q 16 608 47 630 q 12 590 5 600 l 40 543 q 49 536 43 537 q 59 538 55 534 q 81 551 69 545 q 105 556 94 556 q 124 548 118 556 q 130 516 130 540 l 130 -295 q 143 -309 130 -309 l 247 -309 q 261 -295 261 -309 l 261 69 q 477 -16 334 -16 q 600 9 545 -16 q 692 82 654 36 q 750 192 730 129 q 770 329 770 255 m 630 329 q 620 239 630 281 q 588 164 609 197 q 534 113 568 131 q 455 94 501 94 q 373 113 409 94 q 312 164 337 131 q 274 239 287 197 q 261 329 261 281 q 274 419 261 376 q 313 494 287 462 q 375 545 338 526 q 458 565 412 565 q 536 545 504 565 q 590 494 569 526 q 620 419 611 462 q 630 329 630 376 "},"Ω":{"x_min":58.34375,"x_max":1029.25,"ha":1060,"o":"m 1015 0 q 1029 13 1029 0 l 1029 111 q 1015 125 1029 125 l 845 125 q 961 279 915 184 q 1007 513 1007 375 q 977 708 1007 618 q 888 865 947 798 q 743 970 829 932 q 544 1008 657 1008 q 345 970 431 1008 q 199 865 258 932 q 109 708 140 798 q 79 513 79 618 q 125 279 79 375 q 240 125 172 184 l 72 125 q 58 111 58 125 l 58 13 q 72 0 58 0 l 472 0 q 486 13 486 0 l 486 105 q 475 119 486 116 q 398 146 441 125 q 318 213 355 168 q 254 331 280 259 q 229 509 229 404 l 229 513 q 243 642 229 576 q 293 762 258 708 q 389 850 329 816 q 543 884 450 884 q 696 850 636 884 q 792 762 757 816 q 842 642 827 708 q 857 513 857 576 l 857 509 q 831 331 857 404 q 768 213 805 259 q 688 146 730 168 q 611 119 645 125 q 601 105 601 116 l 601 13 q 613 0 601 0 l 1015 0 "},"т":{"x_min":4.171875,"x_max":588.9375,"ha":590,"o":"m 575 556 q 588 570 588 556 l 588 655 q 575 669 588 669 l 16 669 q 4 655 4 669 l 4 570 q 16 556 4 556 l 229 556 l 229 106 l 198 106 q 186 93 186 106 l 186 13 q 198 0 186 0 l 395 0 q 409 13 409 0 l 409 93 q 395 106 409 106 l 366 106 l 366 556 l 575 556 "},"П":{"x_min":26.390625,"x_max":890.34375,"ha":913,"o":"m 876 983 l 40 983 q 26 969 26 983 l 26 890 q 40 876 26 876 l 106 876 l 106 106 l 40 106 q 26 93 26 106 l 26 13 q 40 0 26 0 l 323 0 q 336 13 336 0 l 336 93 q 323 106 336 106 l 243 106 l 243 870 l 673 870 l 673 106 l 593 106 q 580 93 580 106 l 580 13 q 593 0 580 0 l 876 0 q 890 13 890 0 l 890 93 q 876 106 890 106 l 809 106 l 809 876 l 876 876 q 890 890 890 876 l 890 969 q 876 983 890 983 "},"Ö":{"x_min":70.84375,"x_max":1001.46875,"ha":1047,"o":"m 1001 494 q 971 701 1001 607 q 883 865 941 795 q 737 973 825 934 q 536 1012 650 1012 q 335 973 422 1012 q 189 865 248 934 q 100 701 130 795 q 70 494 70 607 q 100 286 70 381 q 189 122 130 191 q 335 13 248 52 q 536 -25 422 -25 q 737 13 650 -25 q 883 122 825 52 q 971 286 941 191 q 1001 494 1001 381 m 852 494 q 834 339 852 412 q 778 211 816 266 q 679 124 740 156 q 536 91 619 91 q 393 124 452 91 q 295 211 333 156 q 238 339 256 266 q 220 494 220 412 q 238 647 220 575 q 295 775 256 720 q 393 863 333 830 q 536 895 452 895 q 679 863 619 895 q 778 775 740 830 q 834 647 816 720 q 852 494 852 575 m 793 1116 q 768 1177 793 1151 q 707 1202 743 1202 q 645 1177 670 1202 q 620 1116 620 1151 q 645 1054 620 1080 q 707 1029 670 1029 q 768 1054 743 1029 q 793 1116 793 1080 m 462 1116 q 437 1177 462 1151 q 376 1202 412 1202 q 315 1177 340 1202 q 290 1116 290 1151 q 315 1054 290 1080 q 376 1029 340 1029 q 437 1054 412 1029 q 462 1116 462 1080 "},"z":{"x_min":20.828125,"x_max":607,"ha":601,"o":"m 595 181 l 536 187 q 526 185 530 188 q 520 177 522 181 q 496 126 513 141 q 448 111 479 111 q 416 113 430 111 q 387 120 402 116 q 345 131 369 126 q 281 136 322 136 q 253 134 270 136 q 213 125 236 131 l 586 566 l 586 637 q 572 650 586 650 l 73 650 q 61 637 61 650 l 61 552 q 73 540 61 540 l 408 540 l 20 80 l 20 8 q 37 -5 20 -9 q 119 9 69 2 q 226 16 169 16 q 281 11 254 16 q 336 1 309 6 q 381 -7 359 -4 q 427 -11 404 -11 q 497 0 465 -11 q 553 33 529 11 q 592 88 577 55 q 607 168 607 122 l 595 181 "},"™":{"x_min":38.890625,"x_max":1277.875,"ha":1353,"o":"m 1265 391 q 1277 405 1277 391 l 1277 463 q 1265 476 1277 476 l 1223 476 l 1223 879 l 1265 879 q 1277 893 1277 879 l 1277 951 q 1265 963 1277 963 l 1093 963 q 1086 961 1090 963 q 1082 957 1083 959 l 918 568 l 752 957 q 740 963 748 963 l 569 963 q 555 951 555 963 l 555 893 q 569 879 555 879 l 609 879 l 609 476 l 569 476 q 555 463 555 476 l 555 405 q 569 391 555 391 l 697 391 q 711 405 711 391 l 711 786 l 875 400 q 887 391 877 391 l 941 391 q 954 400 951 391 l 1115 783 l 1115 405 q 1129 391 1115 391 l 1265 391 m 491 872 q 505 884 505 872 l 505 951 q 491 963 505 963 l 52 963 q 38 951 38 963 l 38 884 q 52 872 38 872 l 216 872 l 216 476 l 173 476 q 161 463 161 476 l 161 405 q 173 391 161 391 l 370 391 q 384 405 384 391 l 384 463 q 370 476 384 476 l 329 476 l 329 872 l 491 872 "},"Θ":{"x_min":61.109375,"x_max":991.75,"ha":1047,"o":"m 991 491 q 961 698 991 604 q 873 861 932 793 q 727 969 815 930 q 526 1008 640 1008 q 325 969 412 1008 q 179 861 238 930 q 90 698 120 793 q 61 491 61 604 q 90 285 61 380 q 179 121 120 190 q 325 13 238 52 q 526 -25 412 -25 q 727 13 640 -25 q 873 121 815 52 q 961 285 932 190 q 991 491 991 380 m 843 491 q 825 338 843 411 q 768 211 807 266 q 670 124 730 156 q 526 91 609 91 q 383 124 443 91 q 285 211 323 156 q 229 338 247 266 q 211 491 211 411 q 229 645 211 572 q 285 772 247 718 q 383 860 323 827 q 526 893 443 893 q 670 860 609 893 q 768 772 730 827 q 825 645 807 718 q 843 491 843 572 m 683 444 q 695 455 695 444 l 695 538 q 683 550 695 550 l 369 550 q 355 538 355 550 l 355 455 q 369 444 355 444 l 683 444 "},"Ř":{"x_min":51.390625,"x_max":837.5625,"ha":839,"o":"m 825 0 q 837 13 837 0 l 837 93 q 825 106 837 106 l 766 106 q 709 151 729 106 q 693 196 698 172 q 682 245 688 220 q 666 302 675 273 q 645 358 658 330 q 614 410 633 386 q 569 454 595 434 q 632 480 607 465 q 682 519 658 495 q 736 600 718 555 q 754 707 754 645 q 669 910 754 837 q 431 983 584 983 l 65 983 q 51 969 51 983 l 51 890 q 65 876 51 876 l 131 876 l 131 106 l 65 106 q 51 93 51 106 l 51 13 q 65 0 51 0 l 336 0 q 350 13 350 0 l 350 93 q 336 106 350 106 l 268 106 l 268 434 l 418 434 q 473 387 451 415 q 511 327 495 359 q 535 259 526 294 q 552 188 544 223 q 570 115 561 150 q 595 56 580 81 q 631 15 609 30 q 688 0 654 0 l 825 0 m 608 707 q 440 548 608 548 l 268 548 l 268 870 l 440 870 q 566 827 523 870 q 608 707 608 784 m 611 1302 q 611 1316 615 1309 q 598 1322 607 1322 l 516 1322 q 505 1315 508 1322 l 398 1132 l 288 1315 q 276 1322 284 1322 l 188 1322 q 177 1316 181 1322 q 177 1302 173 1309 l 326 1047 q 331 1043 327 1045 q 337 1041 334 1041 l 451 1041 q 458 1043 454 1041 q 463 1047 462 1045 l 611 1302 "},"Ǭ":{"x_min":61.109375,"x_max":991.75,"ha":1047,"o":"m 857 -184 l 857 -119 q 851 -108 857 -112 q 838 -108 845 -104 q 791 -127 813 -120 q 744 -134 769 -134 q 702 -122 716 -134 q 687 -88 687 -109 q 698 -46 687 -66 q 726 -9 709 -26 q 761 22 743 8 q 791 48 779 37 q 941 229 891 115 q 991 491 991 344 q 961 698 991 604 q 873 861 932 793 q 727 969 815 930 q 526 1008 640 1008 q 325 969 412 1008 q 179 861 238 930 q 90 698 120 793 q 61 491 61 604 q 90 285 61 380 q 179 121 120 190 q 325 13 238 52 q 526 -25 412 -25 q 571 -22 550 -25 q 613 -18 593 -20 q 590 -64 598 -40 q 581 -118 581 -88 q 623 -204 581 -176 q 722 -233 665 -233 q 786 -224 757 -233 q 851 -195 815 -215 l 857 -184 m 843 491 q 825 338 843 411 q 768 211 807 266 q 670 124 730 156 q 526 91 609 91 q 383 124 443 91 q 285 211 323 156 q 229 338 247 266 q 211 491 211 411 q 229 645 211 572 q 285 772 247 718 q 383 860 323 827 q 526 893 443 893 q 670 860 609 893 q 768 772 730 827 q 825 645 807 718 q 843 491 843 572 m 740 1065 q 754 1076 754 1065 l 754 1141 q 740 1151 754 1151 l 302 1151 q 290 1141 290 1151 l 290 1076 q 302 1065 290 1065 l 740 1065 "},"Ň":{"x_min":65.28125,"x_max":1030.640625,"ha":1061,"o":"m 1016 876 q 1030 890 1030 876 l 1030 969 q 1016 983 1030 983 l 833 983 q 819 969 819 983 l 819 202 l 306 977 q 302 982 305 980 q 295 983 298 983 l 77 983 q 65 969 65 983 l 65 890 q 77 876 65 876 l 145 876 l 145 106 l 77 106 q 65 93 65 106 l 65 13 q 77 0 65 0 l 262 0 q 275 13 275 0 l 275 782 l 788 5 q 798 0 791 0 l 936 0 q 948 13 948 0 l 948 876 l 1016 876 m 838 1136 q 847 1147 847 1138 l 847 1215 q 829 1226 847 1229 l 575 1144 l 316 1226 q 304 1225 309 1227 q 300 1215 300 1222 l 300 1147 q 308 1136 300 1138 l 569 1032 l 580 1032 l 838 1136 "},"É":{"x_min":63.890625,"x_max":755.609375,"ha":758,"o":"m 743 0 q 755 13 755 0 l 755 98 q 743 112 755 112 l 280 112 l 280 459 l 659 459 q 673 473 673 459 l 673 561 q 659 575 673 575 l 280 575 l 280 876 l 697 876 q 709 888 709 876 l 709 975 q 697 988 709 988 l 77 988 q 63 975 63 988 l 63 894 q 77 882 63 882 l 144 882 l 144 106 l 77 106 q 63 93 63 106 l 63 13 q 77 0 63 0 l 743 0 m 640 1095 q 650 1109 650 1098 l 650 1208 q 645 1219 650 1215 q 634 1222 640 1223 l 218 1134 q 206 1122 206 1132 l 206 1043 q 211 1032 206 1036 q 223 1029 216 1027 l 640 1095 "},"и":{"x_min":43.0625,"x_max":780.625,"ha":806,"o":"m 56 558 l 125 558 l 125 13 q 137 0 125 0 l 275 0 q 284 5 281 0 l 570 463 l 570 13 q 583 0 570 0 l 768 0 q 780 13 780 0 l 780 93 q 768 106 780 106 l 700 106 l 700 558 l 768 558 q 780 572 780 558 l 780 651 q 768 665 780 665 l 550 665 q 543 663 547 665 q 538 659 540 662 l 254 202 l 254 651 q 240 665 254 665 l 56 665 q 43 651 43 665 l 43 572 q 56 558 43 558 "},"³":{"x_min":195.84375,"x_max":601.4375,"ha":788,"o":"m 601 602 q 581 676 601 643 q 525 725 561 709 q 584 832 584 763 q 569 898 584 870 q 527 943 554 926 q 467 969 501 961 q 394 977 433 977 q 284 955 331 977 q 204 912 237 933 q 200 893 191 904 l 234 840 q 251 836 241 830 q 256 840 254 838 q 315 868 284 855 q 383 880 345 880 q 443 864 423 880 q 463 825 463 848 q 436 779 463 791 q 373 768 408 768 l 338 768 q 326 755 326 768 l 326 684 q 338 672 326 672 l 373 673 l 381 673 q 449 657 422 673 q 476 607 476 640 q 453 556 476 576 q 387 537 430 537 q 301 547 338 537 q 215 584 263 558 q 202 584 208 588 q 195 573 195 580 l 195 495 q 198 489 195 493 q 204 484 201 486 q 291 452 250 463 q 387 441 333 441 q 465 451 426 441 q 534 481 504 461 q 582 531 563 501 q 601 602 601 561 "},"[":{"x_min":84.734375,"x_max":313.90625,"ha":328,"o":"m 301 -194 q 313 -180 313 -194 l 313 -95 q 301 -83 313 -83 l 198 -83 l 198 876 l 301 876 q 313 890 313 876 l 313 975 q 301 987 313 987 l 97 987 q 84 975 84 987 l 84 -180 q 97 -194 84 -194 l 301 -194 "},"؛":{"x_min":73.609375,"x_max":307.171875,"ha":353,"o":"m 83 383 l 197 350 q 207 350 202 347 q 213 361 212 354 q 229 439 219 398 q 251 518 238 480 q 277 591 263 556 q 305 654 291 626 q 297 672 311 668 l 229 698 q 222 698 226 700 q 215 694 218 697 q 178 639 198 672 q 138 568 158 607 q 102 486 119 529 q 75 401 86 444 l 83 383 m 73 93 q 99 27 73 55 q 161 0 125 0 q 222 27 197 0 q 248 93 248 55 q 221 160 248 133 q 161 187 194 187 q 100 160 127 187 q 73 93 73 133 "},"∏":{"x_min":65.28125,"x_max":959.796875,"ha":1007,"o":"m 945 0 q 959 13 959 0 l 959 93 q 945 106 959 106 l 877 106 l 877 876 l 945 876 q 959 890 959 876 l 959 969 q 945 983 959 983 l 77 983 q 65 969 65 983 l 65 890 q 77 876 65 876 l 145 876 l 145 106 l 77 106 q 65 93 65 106 l 65 13 q 77 0 65 0 l 269 0 q 283 13 283 0 l 283 863 l 740 863 l 740 13 q 754 0 740 0 l 945 0 "},"Έ":{"x_min":-130.09375,"x_max":813.953125,"ha":815,"o":"m 800 0 q 812 13 812 0 l 813 98 q 801 112 813 112 l 337 112 l 337 458 l 716 458 q 730 470 730 458 l 730 558 q 716 570 730 570 l 337 570 l 337 870 l 754 870 q 766 884 766 870 l 766 969 q 754 983 766 983 l 134 983 q 120 969 120 983 l 120 890 q 134 876 120 876 l 201 876 l 201 106 l 134 106 q 120 93 120 106 l 120 13 q 134 0 120 0 l 800 0 m 88 966 q 86 979 91 973 q 72 986 80 986 l -18 986 q -26 980 -23 986 l -129 740 q -126 726 -131 733 q -112 719 -120 719 l -37 719 q -31 720 -34 719 q -29 725 -29 722 l 88 966 "},"ˋ":{"x_min":190.109375,"x_max":502.53125,"ha":667,"o":"m 490 679 q 501 686 498 679 q 500 700 504 693 l 319 940 q 314 944 318 943 q 308 945 311 945 l 204 945 q 191 939 195 945 q 194 926 187 933 l 388 684 q 393 680 390 682 q 398 679 397 679 l 490 679 "},"Ρ":{"x_min":56.953125,"x_max":762.5625,"ha":788,"o":"m 762 693 q 676 907 762 830 q 437 983 590 983 l 70 983 q 56 969 56 983 l 56 890 q 70 876 56 876 l 137 876 l 137 106 l 70 106 q 56 93 56 106 l 56 13 q 70 0 56 0 l 350 0 q 363 13 363 0 l 363 93 q 350 106 363 106 l 272 106 l 272 408 l 437 408 q 676 481 590 408 q 762 693 762 554 m 622 693 q 575 563 622 605 q 443 520 529 520 l 272 520 l 272 870 l 443 870 q 575 825 529 870 q 622 693 622 779 "},"ğ":{"x_min":66.671875,"x_max":711.171875,"ha":788,"o":"m 711 34 l 711 645 q 697 659 711 659 l 594 659 q 580 645 580 659 l 580 588 q 366 675 505 675 q 239 648 295 675 q 145 575 183 622 q 86 466 106 529 q 66 329 66 402 q 86 190 66 254 q 143 81 105 127 q 239 9 181 34 q 373 -16 297 -16 q 486 4 430 -16 q 580 68 541 26 l 580 26 q 572 -60 580 -18 q 541 -137 563 -102 q 477 -193 518 -172 q 372 -213 436 -213 q 251 -200 301 -213 q 169 -170 201 -186 q 156 -171 162 -168 q 150 -181 150 -175 l 150 -272 q 158 -283 150 -280 q 252 -312 198 -300 q 379 -325 305 -325 q 526 -299 463 -325 q 629 -226 588 -273 q 691 -112 670 -179 q 711 34 711 -45 m 580 329 q 566 239 580 281 q 527 164 552 197 q 463 113 501 131 q 379 94 426 94 q 299 113 331 94 q 245 164 266 131 q 215 239 225 197 q 205 329 205 281 q 215 419 205 376 q 245 494 225 462 q 299 545 266 526 q 379 565 331 565 q 463 545 426 565 q 527 494 501 526 q 566 419 552 462 q 580 329 580 376 m 583 955 l 511 955 q 497 945 500 955 q 379 827 479 827 q 297 856 326 827 q 259 944 269 884 q 247 955 256 955 l 168 955 q 155 941 155 955 q 221 781 162 832 q 376 730 280 730 q 530 781 472 730 q 597 941 588 832 l 583 955 "},"ª":{"x_min":48.609375,"x_max":480.59375,"ha":489,"o":"m 480 616 l 462 645 q 454 651 459 650 q 444 648 448 652 q 435 642 440 645 q 423 638 430 638 q 422 641 423 638 q 422 655 422 644 l 422 816 q 379 929 422 888 q 244 970 337 970 q 172 963 206 970 q 109 941 137 955 q 102 926 98 937 l 119 877 q 137 870 125 863 q 182 884 161 882 q 227 887 204 887 q 297 868 275 887 q 319 820 319 850 l 319 812 q 272 832 300 825 q 212 840 244 840 q 90 800 133 840 q 48 700 48 761 q 90 596 48 633 q 211 559 131 559 q 286 573 255 559 q 334 602 318 587 q 397 568 350 568 q 442 577 420 568 q 479 601 463 586 l 480 616 m 319 701 q 297 655 319 673 q 236 637 276 637 q 172 654 191 637 q 152 700 152 672 q 171 745 152 727 q 231 763 190 763 q 300 745 280 763 q 319 701 319 726 "},"ї":{"x_min":-50,"x_max":375.03125,"ha":372,"o":"m 358 61 l 330 109 q 311 113 323 119 q 291 101 304 108 q 268 94 279 94 q 251 101 256 94 q 245 131 245 108 l 245 536 q 220 616 245 581 q 137 650 195 650 q 72 636 106 650 q 9 600 38 622 q 5 581 0 593 l 33 536 q 41 529 36 530 q 52 531 47 527 q 95 548 72 548 q 113 541 106 548 q 119 509 119 533 l 119 122 q 142 26 119 61 q 227 -8 165 -8 q 293 6 259 -8 q 355 44 327 20 l 358 61 m 375 761 q 351 813 375 791 q 291 836 327 836 q 231 813 255 836 q 208 761 208 791 q 231 707 208 729 q 291 686 255 686 q 351 707 327 686 q 375 761 375 729 m 116 761 q 93 813 116 791 q 33 836 69 836 q -25 813 -1 836 q -50 761 -50 791 q -25 707 -50 729 q 33 686 -1 686 q 93 707 69 686 q 116 761 116 729 "},"ﬀ":{"x_min":13.890625,"x_max":838.265625,"ha":781,"o":"m 476 1009 q 476 1019 477 1013 q 470 1027 475 1025 q 406 1057 436 1048 q 338 1066 376 1066 q 240 1045 280 1066 q 176 992 201 1025 q 140 918 151 959 q 130 837 130 877 l 130 661 l 26 661 q 13 647 13 661 l 13 572 q 26 559 13 559 l 130 559 l 130 13 q 143 0 130 0 l 245 0 q 258 13 258 0 l 258 559 l 491 559 l 491 13 q 504 0 491 0 l 607 0 q 619 13 619 0 l 619 559 l 755 559 q 769 572 769 559 l 769 647 q 755 661 769 661 l 619 661 l 619 800 q 622 859 619 830 q 635 909 626 887 q 662 943 644 930 q 709 955 680 955 q 753 947 730 955 q 791 933 776 940 q 801 932 795 930 q 809 938 807 933 l 837 1009 q 837 1019 838 1013 q 832 1027 836 1025 q 767 1057 797 1048 q 700 1066 737 1066 q 602 1045 641 1066 q 537 992 562 1025 q 502 918 512 959 q 491 837 491 877 l 491 661 l 258 661 l 258 800 q 261 859 258 830 q 274 909 265 887 q 301 943 283 930 q 348 955 319 955 q 392 947 369 955 q 430 933 415 940 q 440 932 434 930 q 448 938 445 933 l 476 1009 "},"T":{"x_min":4.171875,"x_max":745.890625,"ha":745,"o":"m 732 870 q 745 884 745 870 l 745 969 q 732 983 745 983 l 16 983 q 4 969 4 983 l 4 884 q 16 870 4 870 l 305 870 l 305 106 l 238 106 q 226 93 226 106 l 226 13 q 238 0 226 0 l 509 0 q 523 13 523 0 l 523 93 q 509 106 523 106 l 443 106 l 443 870 l 732 870 "},"š":{"x_min":40.28125,"x_max":525.046875,"ha":572,"o":"m 525 193 q 510 272 525 240 q 468 327 495 305 q 402 365 441 350 q 316 391 363 380 q 210 427 250 406 q 170 481 170 448 q 200 541 170 519 q 293 563 230 563 q 389 549 348 563 q 448 527 430 534 q 450 526 448 526 q 462 522 455 522 q 472 530 469 523 l 501 597 q 497 613 506 608 q 390 654 443 643 q 293 666 337 666 q 198 654 243 666 q 120 616 154 641 q 65 554 86 591 q 45 469 45 518 q 63 391 45 422 q 111 338 81 359 q 182 303 141 316 q 269 277 223 290 q 362 243 327 262 q 397 180 397 225 q 386 139 397 156 q 356 111 375 122 q 316 95 338 100 q 269 90 293 90 q 148 111 200 90 q 61 155 97 133 q 47 156 54 159 q 40 145 40 152 l 40 51 q 43 45 40 48 q 48 40 45 41 q 134 4 77 25 q 279 -16 191 -16 q 368 -4 323 -16 q 447 31 412 6 q 503 96 481 56 q 525 193 525 136 m 508 937 q 508 950 512 944 q 495 957 504 957 l 413 957 q 402 950 405 957 l 295 766 l 186 950 q 173 957 181 957 l 86 957 q 75 950 79 957 q 75 937 70 944 l 223 682 q 228 678 225 680 q 234 676 231 676 l 348 676 q 355 678 351 676 q 361 682 359 680 l 508 937 "},"є":{"x_min":50,"x_max":588.171875,"ha":607,"o":"m 520 272 q 533 283 533 272 l 533 366 q 520 377 533 377 l 188 377 q 209 447 194 415 q 247 503 223 479 q 304 541 270 527 q 381 555 337 555 q 477 543 437 555 q 538 522 516 531 q 556 529 551 516 l 587 602 q 580 620 590 616 q 497 650 548 633 q 380 666 447 666 q 245 641 306 666 q 140 570 184 615 q 73 462 97 525 q 50 325 50 400 q 72 187 50 250 q 136 79 94 125 q 238 8 177 33 q 379 -16 300 -16 q 493 -1 440 -16 q 577 27 547 13 q 586 40 586 30 l 586 127 q 579 140 586 136 q 565 140 572 144 q 470 102 513 112 q 386 91 427 91 q 251 141 301 91 q 188 272 201 191 l 520 272 "},"Þ":{"x_min":63.890625,"x_max":769.5,"ha":788,"o":"m 769 500 q 683 713 769 637 q 444 790 597 790 l 279 790 l 279 876 l 348 876 q 362 890 362 876 l 362 969 q 348 983 362 983 l 77 983 q 63 969 63 983 l 63 890 q 77 876 63 876 l 144 876 l 144 106 l 77 106 q 63 93 63 106 l 63 13 q 77 0 63 0 l 356 0 q 370 13 370 0 l 370 93 q 356 106 370 106 l 279 106 l 279 215 l 444 215 q 683 288 597 215 q 769 500 769 361 m 629 500 q 582 370 629 412 q 450 327 536 327 l 279 327 l 279 677 l 450 677 q 582 631 536 677 q 629 500 629 586 "},"j":{"x_min":-72.234375,"x_max":248.625,"ha":322,"o":"m 248 -97 l 248 543 q 224 627 248 591 q 141 663 200 663 q 78 649 112 663 q 15 612 44 634 q 11 594 5 605 l 38 547 q 47 540 41 541 q 56 543 52 538 q 101 559 77 559 q 118 552 112 559 q 123 520 123 544 l 123 -86 q 121 -140 123 -115 q 110 -182 119 -165 q 84 -210 101 -200 q 36 -220 66 -220 q -16 -211 4 -220 q -52 -194 -37 -202 q -65 -194 -59 -190 q -72 -206 -72 -198 l -72 -286 q -63 -297 -72 -294 q -59 -298 -61 -298 q -56 -300 -59 -298 q -8 -318 -33 -311 q 55 -326 16 -326 q 204 -265 161 -326 q 248 -97 248 -204 m 247 898 q 222 963 247 936 q 161 990 197 990 q 100 963 125 990 q 75 898 75 936 q 99 833 75 858 q 161 808 123 808 q 222 833 198 808 q 247 898 247 858 "},"Σ":{"x_min":34.71875,"x_max":751.453125,"ha":751,"o":"m 737 0 q 751 13 751 0 l 751 101 q 737 115 751 115 l 188 115 l 481 516 q 484 525 484 519 q 481 533 484 530 l 211 868 l 730 868 q 744 882 744 868 l 744 969 q 730 983 744 983 l 55 983 q 43 969 43 983 l 43 872 l 325 515 l 34 116 l 34 13 q 47 0 34 0 l 737 0 "},"1":{"x_min":200.015625,"x_max":576.4375,"ha":738,"o":"m 563 0 q 576 13 576 0 l 576 93 q 563 106 576 106 l 461 106 l 461 969 q 455 981 461 976 q 443 983 450 986 l 209 915 q 200 902 200 912 l 200 819 q 204 808 200 812 q 216 807 209 804 l 329 838 l 329 106 l 225 106 q 212 93 212 106 l 212 13 q 225 0 212 0 l 563 0 "},"Ү":{"x_min":0,"x_max":812.5625,"ha":813,"o":"m 798 876 q 812 890 812 876 l 812 969 q 798 983 812 983 l 669 983 q 657 976 659 983 l 420 563 l 163 976 q 152 983 159 983 l 12 983 q 0 969 0 983 l 0 890 q 12 876 0 876 l 72 876 l 348 434 l 348 106 l 281 106 q 268 93 268 106 l 268 13 q 281 0 268 0 l 552 0 q 566 13 566 0 l 566 93 q 552 106 566 106 l 486 106 l 486 438 l 736 876 l 798 876 "},"ɺ":{"x_min":-10.1875,"x_max":521.34375,"ha":522,"o":"m -8 48 q -2 33 -13 38 q 41 11 13 22 q 115 0 69 0 q 210 27 163 0 q 287 108 256 54 q 317 32 294 56 q 387 8 340 8 q 452 22 419 8 q 516 58 486 36 q 520 66 519 61 q 519 76 522 72 l 491 122 q 483 129 488 127 q 472 126 477 130 q 427 109 452 109 q 410 117 416 109 q 404 148 404 125 l 404 968 q 390 982 404 982 l 288 982 q 276 968 276 982 l 276 390 q 260 269 276 327 q 216 169 244 211 q 174 128 198 143 q 120 113 150 113 q 69 123 90 113 q 41 138 48 133 q 30 140 36 143 q 22 131 25 138 l -8 48 "},"ĉ":{"x_min":50,"x_max":588.171875,"ha":607,"o":"m 587 602 q 580 620 590 616 q 497 650 548 633 q 380 666 447 666 q 245 641 306 666 q 140 570 184 615 q 73 462 97 525 q 50 325 50 400 q 72 187 50 250 q 136 79 94 125 q 238 8 177 33 q 379 -16 300 -16 q 493 -1 440 -16 q 577 27 547 13 q 586 40 586 30 l 586 127 q 579 140 586 136 q 565 140 572 144 q 470 102 513 112 q 386 91 427 91 q 300 109 337 91 q 236 157 262 126 q 197 231 211 188 q 184 325 184 275 q 196 412 184 370 q 231 486 208 454 q 293 536 255 518 q 381 555 330 555 q 477 543 437 555 q 538 522 516 531 q 556 529 551 516 l 587 602 m 562 694 q 575 700 570 694 q 575 712 579 705 l 426 968 q 413 975 422 975 l 300 975 q 293 972 297 975 q 288 968 290 970 l 141 712 q 141 700 137 705 q 152 694 145 694 l 234 694 q 241 696 237 694 q 247 700 245 698 l 351 882 l 463 700 q 468 696 465 698 q 475 694 472 694 l 562 694 "},"Ɔ":{"x_min":56.625,"x_max":804.234375,"ha":845,"o":"m 58 50 q 65 31 52 37 q 181 -6 116 11 q 337 -25 247 -25 q 526 12 440 -25 q 674 118 612 50 q 770 281 736 186 q 804 491 804 376 q 770 703 804 608 q 676 866 737 798 q 529 971 615 934 q 340 1008 444 1008 q 179 989 247 1008 q 68 947 112 970 q 61 934 61 944 l 61 833 q 67 820 61 825 q 80 820 73 816 q 183 865 126 845 q 325 884 240 884 q 458 855 397 884 q 563 774 519 826 q 631 650 607 722 q 655 491 655 577 q 633 334 655 406 q 569 209 611 262 q 467 125 527 155 q 330 94 406 94 q 204 109 258 94 q 109 141 151 125 q 91 134 97 147 l 58 50 "},"ī":{"x_min":-59.734375,"x_max":404.203125,"ha":344,"o":"m 358 61 l 330 109 q 311 113 323 119 q 291 101 304 108 q 268 94 279 94 q 251 101 256 94 q 245 131 245 108 l 245 536 q 220 616 245 581 q 137 650 195 650 q 72 636 106 650 q 9 600 38 622 q 5 581 0 593 l 33 536 q 41 529 36 530 q 52 531 47 527 q 95 548 72 548 q 113 541 106 548 q 119 509 119 533 l 119 122 q 142 26 119 61 q 227 -8 165 -8 q 293 6 259 -8 q 355 44 327 20 l 358 61 m 390 695 q 404 707 404 695 l 404 772 q 390 782 404 782 l -47 782 q -59 772 -59 782 l -59 707 q -47 695 -59 695 l 390 695 "},"ϯ":{"x_min":63.890625,"x_max":711.171875,"ha":749,"o":"m 697 569 q 711 583 711 569 l 711 686 q 697 700 711 700 l 450 691 l 459 969 q 445 982 459 982 l 329 982 q 315 969 315 982 l 323 691 l 77 700 q 63 686 63 700 l 63 583 q 77 569 63 569 l 325 576 l 319 -311 q 333 -325 319 -325 l 441 -325 q 455 -311 455 -325 l 450 576 l 697 569 "},"О":{"x_min":61.109375,"x_max":991.75,"ha":1047,"o":"m 991 491 q 961 698 991 604 q 873 861 932 793 q 727 969 815 930 q 526 1008 640 1008 q 325 969 412 1008 q 179 861 238 930 q 90 698 120 793 q 61 491 61 604 q 90 285 61 380 q 179 121 120 190 q 325 13 238 52 q 526 -25 412 -25 q 727 13 640 -25 q 873 121 815 52 q 961 285 932 190 q 991 491 991 380 m 843 491 q 825 338 843 411 q 768 211 807 266 q 670 124 730 156 q 526 91 609 91 q 383 124 443 91 q 285 211 323 156 q 229 338 247 266 q 211 491 211 411 q 229 645 211 572 q 285 772 247 718 q 383 860 323 827 q 526 893 443 893 q 670 860 609 893 q 768 772 730 827 q 825 645 807 718 q 843 491 843 572 "},"Ď":{"x_min":63.890625,"x_max":890.34375,"ha":935,"o":"m 890 491 q 859 685 890 595 q 763 841 827 775 q 603 945 700 908 q 376 983 506 983 l 77 983 q 63 969 63 983 l 63 890 q 77 876 63 876 l 144 876 l 144 106 l 77 106 q 63 93 63 106 l 63 13 q 77 0 63 0 l 376 0 q 603 37 506 0 q 763 140 700 75 q 859 297 827 206 q 890 491 890 387 m 743 491 q 717 338 743 408 q 647 218 691 268 q 541 140 602 168 q 408 112 479 112 l 281 112 l 281 870 l 391 870 q 534 843 469 870 q 645 764 598 815 q 717 644 691 713 q 743 491 743 575 m 651 1145 q 659 1157 659 1148 l 659 1225 q 641 1236 659 1238 l 387 1154 l 129 1236 q 117 1234 122 1237 q 112 1225 112 1232 l 112 1157 q 120 1145 112 1148 l 381 1041 l 393 1041 l 651 1145 "},"&":{"x_min":58.34375,"x_max":987.578125,"ha":983,"o":"m 987 79 l 955 125 q 937 127 950 136 q 916 113 927 120 q 891 105 904 105 q 869 110 880 105 q 843 130 858 115 l 738 238 q 743 245 741 241 q 747 252 744 250 l 745 251 q 749 256 748 254 q 752 262 750 259 l 861 438 l 926 438 q 940 452 940 438 l 940 529 q 926 541 940 541 l 794 541 q 782 534 784 541 l 661 330 q 657 325 659 330 l 458 531 q 543 582 505 556 q 609 638 581 608 q 650 703 636 668 q 665 783 665 738 q 645 877 665 837 q 591 945 625 918 q 511 987 556 973 q 415 1001 465 1001 q 316 986 362 1001 q 233 941 269 970 q 176 870 197 912 q 155 772 155 827 q 187 653 155 704 q 268 550 219 602 q 113 427 168 497 q 58 255 58 358 q 83 143 58 193 q 150 57 108 93 q 245 2 191 22 q 355 -16 298 -16 q 437 -9 398 -16 q 513 14 476 -2 q 588 61 551 31 q 662 134 625 90 l 745 50 q 806 6 782 13 q 847 0 830 0 q 891 6 869 0 q 930 22 912 13 q 963 43 948 31 q 986 62 977 54 l 987 79 m 368 93 q 299 106 331 93 q 242 145 266 120 q 203 202 218 169 q 188 272 188 234 q 229 379 188 333 q 345 469 270 425 l 583 218 q 478 123 530 154 q 368 93 426 93 m 544 782 q 502 691 544 733 q 384 608 459 648 l 377 616 q 344 652 361 633 q 314 690 327 670 q 292 731 301 709 q 283 775 283 752 q 321 873 283 840 q 416 907 359 907 q 508 870 472 907 q 544 782 544 834 "},"G":{"x_min":70.84375,"x_max":850.0625,"ha":903,"o":"m 850 63 l 850 509 q 837 523 850 523 l 640 523 q 626 509 626 523 l 626 429 q 640 415 626 415 l 715 415 l 715 123 q 636 104 675 111 q 550 97 597 97 q 413 126 475 97 q 308 208 351 155 q 241 333 265 261 q 218 491 218 405 q 240 648 218 576 q 303 774 262 720 q 404 858 344 827 q 538 888 463 888 q 672 870 619 888 q 762 832 725 851 q 773 831 768 829 q 782 838 779 833 l 818 923 q 812 941 823 936 q 696 988 765 968 q 526 1008 627 1008 q 342 970 426 1008 q 197 865 258 933 q 104 702 137 797 q 70 491 70 607 q 104 279 70 375 q 197 117 137 184 q 343 12 258 50 q 533 -25 429 -25 q 700 -4 623 -25 q 843 51 776 15 l 850 63 "},"ΰ":{"x_min":5.09375,"x_max":694.5,"ha":733,"o":"m 568 650 q 554 637 554 650 l 554 333 q 544 243 554 286 q 513 167 534 200 q 458 115 491 134 q 377 95 425 95 q 284 137 312 95 q 256 247 256 179 l 256 536 q 230 616 256 581 q 143 650 204 650 q 76 636 111 650 q 11 600 41 622 q 5 591 6 597 q 6 583 4 586 l 34 536 q 43 529 37 530 q 54 531 50 527 q 76 544 63 538 q 100 550 88 550 q 117 543 111 550 q 123 516 123 536 l 123 219 q 181 47 123 112 q 369 -16 240 -16 q 493 -2 436 -16 q 580 51 550 11 q 652 154 630 97 q 680 281 673 211 q 685 441 687 352 q 684 637 683 529 q 670 650 684 650 l 568 650 m 459 986 q 447 1000 459 1000 l 331 1000 q 320 986 320 1000 l 340 677 q 351 666 340 666 l 427 666 q 438 677 438 666 l 459 986 m 694 841 q 670 894 694 872 q 611 916 647 916 q 551 894 575 916 q 527 841 527 872 q 551 788 527 809 q 611 766 575 766 q 670 788 647 766 q 694 841 694 809 m 245 841 q 222 894 245 872 q 162 916 198 916 q 103 894 127 916 q 79 841 79 872 q 103 788 79 809 q 162 766 127 766 q 222 788 198 766 q 245 841 245 809 "},"`":{"x_min":190.109375,"x_max":502.53125,"ha":667,"o":"m 490 679 q 501 686 498 679 q 500 700 504 693 l 319 940 q 314 944 318 943 q 308 945 311 945 l 204 945 q 191 939 195 945 q 194 926 187 933 l 388 684 q 393 680 390 682 q 398 679 397 679 l 490 679 "},"ŏ":{"x_min":41.671875,"x_max":680.609375,"ha":721,"o":"m 680 325 q 659 464 680 401 q 595 572 637 527 q 495 641 554 616 q 361 666 436 666 q 227 641 286 666 q 126 572 168 616 q 63 464 84 527 q 41 325 41 401 q 63 186 41 248 q 126 78 84 123 q 227 8 168 33 q 361 -16 286 -16 q 495 8 436 -16 q 595 78 554 33 q 659 186 637 123 q 680 325 680 248 m 544 325 q 533 236 544 279 q 499 160 522 193 q 442 108 476 127 q 361 88 408 88 q 279 108 313 88 q 222 160 245 127 q 188 236 200 193 q 177 325 177 279 q 188 415 177 372 q 222 491 200 458 q 279 543 245 523 q 361 562 313 562 q 442 543 408 562 q 499 491 476 523 q 533 415 522 458 q 544 325 544 372 m 562 943 l 490 943 q 476 933 479 943 q 358 815 458 815 q 277 843 305 815 q 238 932 248 872 q 226 943 236 943 l 147 943 q 134 929 134 943 q 200 768 141 819 q 355 718 259 718 q 509 768 451 718 q 576 929 568 819 l 562 943 "},"ý":{"x_min":4.265625,"x_max":680.609375,"ha":788,"o":"m 680 37 l 680 645 q 666 659 680 659 l 563 659 q 551 645 551 659 l 551 327 q 539 240 550 281 q 508 166 529 198 q 454 115 487 134 q 376 97 422 97 q 282 139 309 97 q 255 250 255 181 l 255 543 q 229 625 255 590 q 143 659 202 659 q 75 645 111 659 q 11 608 40 630 q 6 590 0 600 l 34 543 q 43 536 37 537 q 54 538 48 534 q 75 551 63 545 q 100 556 87 556 q 116 549 111 556 q 122 522 122 541 l 122 222 q 180 48 122 113 q 366 -16 238 -16 q 479 10 430 -16 q 556 73 527 37 l 556 25 q 548 -71 556 -27 q 518 -146 540 -115 q 456 -195 495 -177 q 356 -213 418 -213 q 244 -200 291 -213 q 165 -172 197 -187 q 152 -172 158 -169 q 147 -183 147 -175 l 147 -272 q 154 -284 147 -281 q 243 -311 191 -300 q 363 -323 294 -323 q 604 -230 527 -323 q 680 37 680 -137 m 608 926 q 610 939 613 933 q 598 945 607 945 l 493 945 q 483 940 486 945 l 302 700 q 300 686 297 693 q 312 679 304 679 l 402 679 q 409 680 405 679 q 412 684 412 682 l 608 926 "},"º":{"x_min":43.0625,"x_max":470.875,"ha":488,"o":"m 470 765 q 456 848 470 811 q 413 913 441 886 q 346 955 386 940 q 256 970 306 970 q 167 955 206 970 q 100 913 127 940 q 57 848 72 886 q 43 765 43 811 q 57 682 43 719 q 100 617 72 644 q 167 575 127 590 q 256 559 206 559 q 346 575 306 559 q 413 617 386 590 q 456 682 441 644 q 470 765 470 719 m 362 765 q 338 678 362 713 q 256 643 315 643 q 175 678 198 643 q 151 765 151 713 q 175 852 151 815 q 256 888 198 888 q 338 852 315 888 q 362 765 362 815 "},"∞":{"x_min":15.28125,"x_max":750.0625,"ha":763,"o":"m 750 404 q 734 483 750 447 q 691 545 719 519 q 626 586 663 572 q 543 601 588 601 q 484 593 509 601 q 438 575 458 586 q 405 549 419 563 q 381 522 391 534 q 325 575 365 550 q 209 601 284 601 q 132 585 168 601 q 71 542 97 569 q 30 479 45 515 q 15 404 15 443 q 30 328 15 363 q 72 266 45 293 q 134 225 98 240 q 209 209 169 209 q 324 234 284 209 q 381 287 363 259 q 405 259 391 273 q 440 234 419 245 q 488 216 461 223 q 552 209 516 209 q 630 225 594 209 q 693 265 666 240 q 734 327 719 291 q 750 404 750 362 m 333 404 q 297 339 333 363 q 209 315 262 315 q 175 322 193 315 q 144 341 158 329 q 122 370 130 354 q 113 404 113 386 q 143 469 113 441 q 218 497 173 497 q 299 471 265 497 q 333 404 333 445 m 652 404 q 643 370 652 386 q 620 341 634 354 q 586 322 605 329 q 550 315 568 315 q 466 340 498 315 q 434 404 434 365 q 466 470 434 444 q 543 497 498 497 q 619 470 586 497 q 652 404 652 444 "},"∇":{"x_min":13.890625,"x_max":884.796875,"ha":897,"o":"m 26 983 q 13 969 13 983 l 13 887 l 368 8 q 380 0 370 0 l 495 0 q 502 2 498 0 q 506 8 505 5 l 884 887 l 884 969 q 870 983 884 983 l 26 983 m 448 179 l 175 863 l 730 863 l 448 179 "},"ź":{"x_min":20.828125,"x_max":607,"ha":601,"o":"m 595 181 l 536 187 q 526 185 530 188 q 520 177 522 181 q 496 126 513 141 q 448 111 479 111 q 416 113 430 111 q 387 120 402 116 q 345 131 369 126 q 281 136 322 136 q 253 134 270 136 q 213 125 236 131 l 586 566 l 586 637 q 572 650 586 650 l 73 650 q 61 637 61 650 l 61 552 q 73 540 61 540 l 408 540 l 20 80 l 20 8 q 37 -5 20 -9 q 119 9 69 2 q 226 16 169 16 q 281 11 254 16 q 336 1 309 6 q 381 -7 359 -4 q 427 -11 404 -11 q 497 0 465 -11 q 553 33 529 11 q 592 88 577 55 q 607 168 607 122 l 595 181 m 497 940 q 499 953 502 947 q 487 959 495 959 l 381 959 q 372 954 375 959 l 191 713 q 189 700 186 707 q 201 693 193 693 l 291 693 q 297 694 294 693 q 301 698 301 695 l 497 940 "},"я":{"x_min":23.609375,"x_max":605.609375,"ha":633,"o":"m 23 454 q 65 313 23 359 q 184 252 106 268 l 29 80 q 29 62 20 69 l 86 1 q 105 1 95 -5 l 320 240 l 412 240 l 412 105 l 365 105 q 351 91 351 105 l 351 12 q 365 -1 351 -1 l 591 0 q 605 13 605 0 l 605 93 q 591 106 605 106 l 547 105 l 547 559 l 581 559 q 595 573 595 559 l 595 652 q 581 666 595 666 l 350 666 q 213 659 273 666 q 110 628 152 651 q 45 563 68 605 q 23 454 23 522 m 165 454 q 177 518 165 497 q 211 547 188 538 q 268 554 234 555 q 344 554 301 554 l 412 554 l 412 352 l 344 352 q 268 352 301 352 q 211 359 234 351 q 177 389 188 368 q 165 454 165 411 "},"٪":{"x_min":40.53125,"x_max":654.21875,"ha":696,"o":"m 616 1057 q 608 1075 620 1070 l 525 1102 q 508 1095 513 1108 l 41 -72 q 48 -88 37 -84 l 131 -118 q 150 -109 145 -120 l 616 1057 m 222 757 q 197 815 222 790 q 138 840 173 840 q 79 815 104 840 q 55 757 55 790 q 81 697 55 720 q 138 673 106 673 q 196 697 170 673 q 222 757 222 720 m 654 301 q 629 359 654 334 q 570 384 605 384 q 511 359 536 384 q 487 301 487 334 q 513 241 487 265 q 570 218 538 218 q 628 241 602 218 q 654 301 654 265 "},"Ё":{"x_min":63.890625,"x_max":755.609375,"ha":758,"o":"m 743 0 q 755 13 755 0 l 755 98 q 743 112 755 112 l 280 112 l 280 459 l 659 459 q 673 473 673 459 l 673 561 q 659 573 673 573 l 280 573 l 280 875 l 697 875 q 709 888 709 875 l 709 975 q 697 988 709 988 l 77 988 q 63 975 63 988 l 63 894 q 77 880 63 880 l 144 880 l 144 106 l 77 106 q 63 93 63 106 l 63 13 q 77 0 63 0 l 743 0 m 340 1115 q 316 1177 340 1151 q 255 1202 291 1202 q 194 1177 219 1202 q 169 1115 169 1151 q 194 1054 169 1079 q 255 1029 219 1029 q 316 1054 291 1029 q 340 1115 340 1079 m 668 1115 q 643 1177 668 1151 q 581 1202 618 1202 q 521 1177 545 1202 q 497 1115 497 1151 q 521 1054 497 1079 q 581 1029 545 1029 q 643 1054 618 1029 q 668 1115 668 1079 "},"Ư":{"x_min":45.84375,"x_max":1184.8125,"ha":982,"o":"m 1176 1176 l 1062 1208 q 1045 1197 1048 1211 q 1020 1088 1037 1144 q 984 984 1004 1033 l 752 984 q 738 970 738 984 l 738 351 q 682 152 738 212 q 505 91 625 91 q 324 152 380 91 q 268 351 268 212 l 268 970 q 254 984 268 984 l 58 984 q 45 970 45 984 l 45 890 q 58 877 45 877 l 126 877 l 126 329 q 147 180 126 245 q 215 69 169 115 q 332 0 261 23 q 504 -25 404 -25 q 670 0 601 -25 q 785 69 740 23 q 851 180 830 115 q 872 329 872 245 l 872 877 q 970 877 936 877 q 1019 876 1004 876 q 1039 877 1036 876 q 1045 880 1043 877 q 1045 882 1045 882 q 1047 883 1047 882 q 1083 936 1063 905 q 1121 1003 1102 966 q 1157 1079 1140 1040 q 1184 1159 1173 1119 l 1176 1176 "},"█":{"x_min":0,"x_max":1105.640625,"ha":1106,"o":"m 0 0 l 1105 0 l 1105 983 l 0 983 l 0 0 "},"ń":{"x_min":9.828125,"x_max":809.78125,"ha":788,"o":"m 809 61 l 780 109 q 771 115 777 115 q 759 113 765 116 q 738 101 751 108 q 713 94 725 94 q 698 100 704 94 q 693 125 693 105 l 693 131 l 691 430 q 632 602 691 537 q 445 666 573 666 q 328 638 377 666 q 250 572 279 611 q 218 628 241 605 q 145 651 194 651 q 80 636 113 651 q 16 600 47 622 q 12 583 5 591 l 40 536 q 49 529 43 530 q 59 531 55 527 q 81 544 69 538 q 105 550 94 550 q 124 541 118 550 q 130 511 130 533 l 130 13 q 143 0 130 0 l 247 0 q 259 13 259 0 l 259 318 q 269 408 259 365 q 300 484 279 451 q 355 536 322 516 q 436 555 388 555 q 529 514 501 555 q 558 404 558 473 l 558 122 q 583 26 558 61 q 672 -8 608 -8 q 741 6 707 -8 q 805 44 776 20 l 809 61 m 586 945 q 588 959 591 952 q 576 965 584 965 l 470 965 q 461 959 463 965 l 280 719 q 278 705 275 712 q 290 698 281 698 l 380 698 q 386 700 383 698 q 390 704 390 701 l 586 945 "},"Г":{"x_min":61.109375,"x_max":752.84375,"ha":753,"o":"m 740 983 l 75 983 q 61 969 61 983 l 61 890 q 75 876 61 876 l 141 876 l 141 106 l 75 106 q 61 93 61 106 l 61 13 q 75 0 61 0 l 358 0 q 370 13 370 0 l 370 93 q 358 106 370 106 l 277 106 l 277 870 l 740 870 q 752 884 752 870 l 752 969 q 740 983 752 983 "},"Ь":{"x_min":-17.140625,"x_max":751.453125,"ha":792,"o":"m 751 330 q 732 468 751 405 q 674 578 712 531 q 577 650 636 625 q 441 676 519 676 q 327 654 381 676 q 234 590 272 632 l 234 947 q 209 1030 234 994 q 122 1066 183 1066 q 54 1052 90 1066 q -11 1015 19 1038 q -16 1007 -15 1012 q -15 998 -18 1001 l 13 950 q 33 947 22 938 q 54 959 43 954 q 79 963 66 963 q 97 955 91 963 q 102 925 102 947 l 102 13 q 116 0 102 0 l 220 0 q 234 13 234 0 l 234 79 q 321 11 266 38 q 451 -16 376 -16 q 578 9 522 -16 q 672 82 634 36 q 731 193 711 129 q 751 330 751 256 m 612 330 q 602 240 612 283 q 572 165 593 198 q 518 114 551 133 q 437 95 484 95 q 351 114 388 95 q 288 165 313 133 q 248 240 262 198 q 234 330 234 283 q 248 420 234 377 q 288 495 262 463 q 351 547 313 527 q 437 566 388 566 q 518 547 484 566 q 572 495 551 527 q 602 420 593 463 q 612 330 612 377 "},"Ĝ":{"x_min":70.84375,"x_max":850.0625,"ha":903,"o":"m 850 63 l 850 509 q 837 523 850 523 l 640 523 q 626 509 626 523 l 626 429 q 640 415 626 415 l 715 415 l 715 123 q 636 104 675 111 q 550 97 597 97 q 413 126 475 97 q 308 208 351 155 q 241 333 265 261 q 218 491 218 405 q 240 648 218 576 q 303 774 262 720 q 404 858 344 827 q 538 888 463 888 q 672 870 619 888 q 762 832 725 851 q 773 831 768 829 q 782 838 779 833 l 818 923 q 812 941 823 936 q 696 988 765 968 q 526 1008 627 1008 q 342 970 426 1008 q 197 865 258 933 q 104 702 137 797 q 70 491 70 607 q 104 279 70 375 q 197 117 137 184 q 343 12 258 50 q 533 -25 429 -25 q 700 -4 623 -25 q 843 51 776 15 l 850 63 m 720 1065 q 733 1070 729 1065 q 733 1083 737 1076 l 584 1339 q 572 1345 580 1345 l 458 1345 q 452 1343 455 1345 q 447 1339 448 1341 l 300 1083 q 300 1070 295 1076 q 311 1065 304 1065 l 393 1065 q 400 1067 395 1065 q 405 1070 404 1069 l 509 1252 l 622 1070 q 627 1067 623 1069 q 633 1065 630 1065 l 720 1065 "},"p":{"x_min":9.828125,"x_max":770.890625,"ha":811,"o":"m 770 329 q 751 467 770 404 q 693 577 732 530 q 598 649 655 623 q 466 675 541 675 q 350 651 406 675 q 252 580 293 627 q 220 636 245 613 q 145 659 194 659 q 80 645 113 659 q 16 608 47 630 q 12 590 5 600 l 40 543 q 49 536 43 537 q 59 538 55 534 q 81 551 69 545 q 105 556 94 556 q 124 548 118 556 q 130 516 130 540 l 130 -295 q 143 -309 130 -309 l 247 -309 q 261 -295 261 -309 l 261 69 q 477 -16 334 -16 q 600 9 545 -16 q 692 82 654 36 q 750 192 730 129 q 770 329 770 255 m 630 329 q 620 239 630 281 q 588 164 609 197 q 534 113 568 131 q 455 94 501 94 q 373 113 409 94 q 312 164 337 131 q 274 239 287 197 q 261 329 261 281 q 274 419 261 376 q 313 494 287 462 q 375 545 338 526 q 458 565 412 565 q 536 545 504 565 q 590 494 569 526 q 620 419 611 462 q 630 329 630 376 "},"│":{"x_min":469.484375,"x_max":563.9375,"ha":1033,"o":"m 552 -25 q 563 -11 563 -25 l 563 995 q 552 1008 563 1008 l 480 1008 q 469 995 469 1008 l 469 -11 q 480 -25 469 -25 l 552 -25 "},"Ю":{"x_min":51.390625,"x_max":1348.71875,"ha":1390,"o":"m 1348 491 q 1318 698 1348 604 q 1230 861 1288 793 q 1084 969 1172 930 q 883 1008 997 1008 q 691 973 775 1008 q 550 877 608 938 q 459 729 491 815 q 419 541 426 643 l 256 541 l 256 876 l 322 876 q 334 890 334 876 l 334 969 q 322 983 334 983 l 63 983 q 51 969 51 983 l 51 890 q 63 876 51 876 l 127 876 l 127 106 l 63 106 q 51 93 51 106 l 51 13 q 63 0 51 0 l 322 0 q 334 13 334 0 l 334 93 q 322 106 334 106 l 256 106 l 256 436 l 419 436 q 459 250 426 334 q 551 104 493 165 q 693 9 609 43 q 883 -25 776 -25 q 1084 13 997 -25 q 1230 121 1172 52 q 1318 285 1288 190 q 1348 491 1348 380 m 1200 491 q 1182 338 1200 411 q 1125 211 1163 266 q 1027 124 1087 156 q 883 91 966 91 q 740 124 800 91 q 642 211 680 156 q 586 338 604 266 q 568 491 568 411 q 586 645 568 572 q 642 772 604 718 q 740 860 680 827 q 883 893 800 893 q 1027 860 966 893 q 1125 772 1087 827 q 1182 645 1163 718 q 1200 491 1200 572 "},"ր":{"x_min":9.828125,"x_max":691.71875,"ha":745,"o":"m 570 1 l 679 1 q 691 15 691 1 l 691 430 q 632 602 691 537 q 445 666 573 666 q 328 638 377 666 q 250 572 279 611 q 218 628 241 605 q 145 651 194 651 q 80 636 113 651 q 16 600 47 622 q 12 583 5 591 l 40 536 q 49 529 43 530 q 59 531 55 527 q 81 544 69 538 q 105 550 94 550 q 124 541 118 550 q 130 511 130 533 l 130 -309 q 143 -323 130 -323 l 247 -323 q 259 -309 259 -323 l 259 318 q 269 408 259 365 q 300 484 279 451 q 355 536 322 516 q 436 555 388 555 q 529 514 501 555 q 558 404 558 473 l 558 15 q 570 1 558 1 "},"ο":{"x_min":66.671875,"x_max":705.609375,"ha":746,"o":"m 705 325 q 684 464 705 401 q 620 572 662 527 q 520 641 579 616 q 386 666 461 666 q 252 641 311 666 q 151 572 193 616 q 88 464 109 527 q 66 325 66 401 q 88 186 66 248 q 151 78 109 123 q 252 8 193 33 q 386 -16 311 -16 q 520 8 461 -16 q 620 78 579 33 q 684 186 662 123 q 705 325 705 248 m 569 325 q 558 236 569 279 q 524 160 547 193 q 467 108 501 127 q 386 88 433 88 q 304 108 338 88 q 247 160 270 127 q 213 236 225 193 q 202 325 202 279 q 213 415 202 372 q 247 491 225 458 q 304 543 270 523 q 386 562 338 562 q 467 543 433 562 q 524 491 501 523 q 558 415 547 458 q 569 325 569 372 "},"S":{"x_min":41.671875,"x_max":665.328125,"ha":693,"o":"m 665 262 q 643 381 665 331 q 583 465 622 430 q 490 525 544 500 q 372 572 436 550 q 279 608 316 590 q 218 647 241 626 q 185 692 195 668 q 175 748 175 716 q 228 855 175 816 q 368 894 281 894 q 495 879 443 894 q 581 851 547 865 q 600 857 594 845 l 630 940 q 623 957 636 954 q 577 974 607 965 q 514 991 548 983 q 442 1003 480 998 q 369 1008 404 1008 q 234 990 294 1008 q 131 937 173 972 q 65 851 88 902 q 41 734 41 800 q 67 618 41 665 q 134 537 93 570 q 229 481 176 504 q 336 441 281 459 q 411 411 376 427 q 470 375 445 395 q 510 325 495 354 q 525 258 525 297 q 468 135 525 175 q 313 95 412 95 q 171 115 233 95 q 65 155 109 136 q 52 154 58 158 q 47 143 47 151 l 47 41 q 54 29 47 31 q 170 -7 102 9 q 320 -25 237 -25 q 462 -6 398 -25 q 571 48 526 12 q 641 138 616 84 q 665 262 665 191 "},"/":{"x_min":3.84375,"x_max":519.015625,"ha":496,"o":"m 516 957 l 112 -16 q 94 -23 106 -30 l 12 11 q 5 27 0 18 l 408 1001 q 425 1007 415 1012 l 509 975 q 516 957 523 969 "},"⊕":{"x_min":29.171875,"x_max":1062.578125,"ha":1090,"o":"m 1062 491 q 1021 697 1062 602 q 909 861 980 791 q 745 969 838 930 q 545 1008 651 1008 q 346 969 440 1008 q 181 861 252 930 q 70 697 111 791 q 29 491 29 602 q 70 286 29 380 q 181 122 111 191 q 346 14 252 54 q 545 -25 440 -25 q 745 14 651 -25 q 909 122 838 54 q 1021 286 980 191 q 1062 491 1062 380 m 945 491 q 914 327 945 404 q 829 195 883 251 q 702 108 775 140 q 545 76 629 76 q 389 108 462 76 q 262 195 316 140 q 177 327 208 251 q 145 491 145 404 q 177 656 145 580 q 262 788 208 732 q 389 876 316 844 q 545 908 462 908 q 702 876 629 908 q 829 788 775 844 q 914 656 883 732 q 945 491 945 580 m 893 426 q 907 440 907 426 l 907 536 q 893 550 907 550 l 607 550 l 607 837 q 594 850 607 850 l 494 850 q 481 837 481 850 l 481 550 l 195 550 q 181 536 181 550 l 181 440 q 195 426 181 426 l 481 426 l 481 138 q 494 125 481 125 l 594 125 q 607 138 607 125 l 607 426 l 893 426 "},"ϲ":{"x_min":50,"x_max":588.171875,"ha":607,"o":"m 587 602 q 580 620 590 616 q 497 650 548 633 q 380 666 447 666 q 245 641 306 666 q 140 570 184 615 q 73 462 97 525 q 50 325 50 400 q 72 187 50 250 q 136 79 94 125 q 238 8 177 33 q 379 -16 300 -16 q 493 -1 440 -16 q 577 27 547 13 q 586 40 586 30 l 586 127 q 579 140 586 136 q 565 140 572 144 q 470 102 513 112 q 386 91 427 91 q 300 109 337 91 q 236 157 262 126 q 197 231 211 188 q 184 325 184 275 q 196 412 184 370 q 231 486 208 454 q 293 536 255 518 q 381 555 330 555 q 477 543 437 555 q 538 522 516 531 q 556 529 551 516 l 587 602 "},"►":{"x_min":36.109375,"x_max":734.78125,"ha":768,"o":"m 36 286 l 720 445 q 734 456 734 445 l 734 529 q 720 540 734 540 l 36 695 l 36 286 "},"Ŧ":{"x_min":4.171875,"x_max":745.890625,"ha":745,"o":"m 588 534 q 602 545 602 534 l 602 627 q 588 637 602 637 l 443 637 l 443 870 l 732 870 q 745 884 745 870 l 745 969 q 732 983 745 983 l 16 983 q 4 969 4 983 l 4 884 q 16 870 4 870 l 305 870 l 305 637 l 151 637 q 138 627 138 637 l 138 545 q 151 534 138 534 l 305 534 l 305 106 l 238 106 q 226 93 226 106 l 226 13 q 238 0 226 0 l 509 0 q 523 13 523 0 l 523 93 q 509 106 523 106 l 443 106 l 443 534 l 588 534 "},"ʦ":{"x_min":11.109375,"x_max":909.796875,"ha":956,"o":"m 909 193 q 895 272 909 240 q 853 327 880 305 q 787 365 826 350 q 701 391 748 380 q 595 427 634 406 q 555 481 555 448 q 585 541 555 519 q 677 563 615 563 q 774 549 733 563 q 833 527 815 534 q 834 526 833 526 q 847 522 840 522 q 857 530 854 523 l 886 597 q 882 613 891 608 q 775 654 827 643 q 677 666 722 666 q 583 654 627 666 q 504 616 538 641 q 450 554 470 591 q 430 469 430 518 q 448 391 430 422 q 496 338 466 359 q 567 303 526 316 q 654 277 608 290 q 747 243 712 262 q 782 180 782 225 q 770 139 782 156 q 741 111 759 122 q 700 95 723 100 q 654 90 677 90 q 533 111 584 90 q 445 155 481 133 q 431 156 438 159 q 425 145 425 152 l 425 123 q 379 105 409 113 q 322 97 350 97 q 266 118 279 97 q 254 190 254 138 l 254 555 l 408 555 q 422 569 422 555 l 422 643 q 408 655 422 655 l 254 655 l 254 822 q 241 834 254 834 l 140 834 q 126 822 126 834 l 126 655 l 23 655 q 11 643 11 655 l 11 569 q 23 555 11 555 l 126 555 l 126 175 q 170 32 126 75 q 302 -9 215 -9 q 384 4 343 -9 q 445 33 425 18 q 531 0 477 18 q 663 -16 584 -16 q 752 -4 708 -16 q 832 31 797 6 q 888 96 866 56 q 909 193 909 136 "},"ђ":{"x_min":-76.390625,"x_max":663.9375,"ha":761,"o":"m 491 776 q 505 786 505 776 l 505 865 q 491 876 505 876 l 233 876 l 233 945 q 227 991 233 969 q 209 1030 222 1013 q 174 1057 195 1047 q 122 1066 152 1066 q 54 1052 90 1066 q -11 1015 19 1038 q -15 997 -22 1007 l 13 950 q 22 943 16 944 q 33 945 27 941 q 54 958 43 952 q 79 963 66 963 q 97 955 91 963 q 102 925 102 947 l 102 876 l -62 876 q -76 865 -76 876 l -76 786 q -62 776 -76 776 l 102 776 l 102 13 q 116 0 102 0 l 219 0 q 233 13 233 0 l 233 322 q 243 413 233 369 q 274 490 252 456 q 329 543 295 523 q 409 563 362 563 q 503 523 475 563 q 531 419 531 483 l 530 -79 q 525 -105 530 -100 q 508 -111 519 -111 q 484 -104 497 -111 q 462 -91 470 -97 q 443 -95 450 -84 l 413 -144 l 416 -162 q 480 -200 445 -186 q 550 -215 515 -215 q 638 -179 613 -215 q 663 -81 663 -144 l 663 437 q 605 611 663 545 q 418 676 547 676 q 310 652 356 676 q 233 594 263 629 l 233 776 l 491 776 "},"ϕ":{"x_min":52.78125,"x_max":884.796875,"ha":931,"o":"m 519 -158 q 531 -144 531 -158 l 531 0 q 680 36 615 8 q 791 107 745 63 q 861 210 837 151 q 884 338 884 269 q 861 468 884 409 q 791 570 837 526 q 680 642 745 615 q 531 677 615 669 l 531 811 q 519 825 531 825 l 415 825 q 402 811 402 825 l 402 676 q 254 641 319 668 q 145 570 190 613 q 76 467 100 526 q 52 338 52 408 q 76 211 52 269 q 145 108 100 152 q 254 36 190 63 q 402 0 319 8 l 401 -144 q 413 -158 401 -158 l 519 -158 m 184 338 q 197 418 184 380 q 238 488 211 456 q 306 541 265 519 q 402 570 347 562 l 402 106 q 306 137 347 115 q 238 190 265 159 q 197 260 211 222 q 184 338 184 298 m 748 338 q 735 259 748 297 q 695 189 722 220 q 627 136 668 158 q 531 106 587 115 l 531 572 q 627 541 587 563 q 695 488 668 519 q 735 418 722 456 q 748 338 748 380 "},"y":{"x_min":4.265625,"x_max":680.609375,"ha":756,"o":"m 680 37 l 680 645 q 666 659 680 659 l 563 659 q 551 645 551 659 l 551 327 q 539 240 550 281 q 508 166 529 198 q 454 115 487 134 q 376 97 422 97 q 282 139 309 97 q 255 250 255 181 l 255 543 q 229 625 255 590 q 143 659 202 659 q 75 645 111 659 q 11 608 40 630 q 6 590 0 600 l 34 543 q 43 536 37 537 q 54 538 48 534 q 75 551 63 545 q 100 556 87 556 q 116 549 111 556 q 122 522 122 541 l 122 222 q 180 48 122 113 q 366 -16 238 -16 q 479 10 430 -16 q 556 73 527 37 l 556 25 q 548 -71 556 -27 q 518 -146 540 -115 q 456 -195 495 -177 q 356 -213 418 -213 q 244 -200 291 -213 q 165 -172 197 -187 q 152 -172 158 -169 q 147 -183 147 -175 l 147 -272 q 154 -284 147 -281 q 243 -311 191 -300 q 363 -323 294 -323 q 604 -230 527 -323 q 680 37 680 -137 "},"Π":{"x_min":26.390625,"x_max":890.34375,"ha":913,"o":"m 876 983 l 40 983 q 26 969 26 983 l 26 890 q 40 876 26 876 l 106 876 l 106 106 l 40 106 q 26 93 26 106 l 26 13 q 40 0 26 0 l 323 0 q 336 13 336 0 l 336 93 q 323 106 336 106 l 243 106 l 243 870 l 673 870 l 673 106 l 593 106 q 580 93 580 106 l 580 13 q 593 0 580 0 l 876 0 q 890 13 890 0 l 890 93 q 876 106 890 106 l 809 106 l 809 876 l 876 876 q 890 890 890 876 l 890 969 q 876 983 890 983 "},"‗":{"x_min":0,"x_max":694.5,"ha":696,"o":"m 680 -169 q 694 -158 694 -169 l 694 -80 q 680 -69 694 -69 l 13 -69 q 0 -80 0 -69 l 0 -158 q 13 -169 0 -169 l 680 -169 m 680 -334 q 694 -323 694 -334 l 694 -245 q 680 -234 694 -234 l 13 -234 q 0 -245 0 -234 l 0 -323 q 13 -334 0 -334 l 680 -334 "},"ˊ":{"x_min":189.1875,"x_max":501.59375,"ha":667,"o":"m 201 679 l 293 679 q 297 680 294 679 q 302 684 301 682 l 497 926 q 500 939 504 933 q 487 945 495 945 l 383 945 q 377 944 380 945 q 372 940 373 943 l 191 700 q 190 686 187 693 q 201 679 193 679 "},"∵":{"x_min":84.734375,"x_max":819.515625,"ha":903,"o":"m 275 480 q 245 540 275 516 q 180 563 216 563 q 114 540 144 563 q 84 480 84 516 q 112 422 84 447 q 180 397 140 397 q 247 422 219 397 q 275 480 275 447 m 551 68 q 521 127 551 104 q 455 151 491 151 q 390 127 419 151 q 361 68 361 104 q 388 9 361 34 q 455 -15 415 -15 q 522 9 494 -15 q 551 68 551 34 m 819 472 q 790 531 819 508 q 725 555 761 555 q 659 531 688 555 q 630 472 630 508 q 657 413 630 438 q 725 388 684 388 q 791 413 763 388 q 819 472 819 438 "},"–":{"x_min":0,"x_max":694.5,"ha":695,"o":"m 680 222 q 694 231 694 222 l 694 311 q 680 322 694 322 l 13 322 q 0 311 0 322 l 0 231 q 13 222 0 222 l 680 222 "},"ë":{"x_min":66.671875,"x_max":661.15625,"ha":726,"o":"m 647 275 q 661 288 661 275 l 661 333 q 587 581 661 495 q 375 666 513 666 q 246 641 304 666 q 149 571 188 616 q 88 463 109 526 q 66 325 66 401 q 86 191 66 254 q 146 83 106 129 q 246 10 186 37 q 387 -16 306 -16 q 522 -2 473 -16 q 605 27 570 11 q 612 40 612 30 l 612 126 q 606 138 612 134 q 593 138 600 143 q 512 106 559 120 q 401 91 465 91 q 317 108 352 91 q 258 151 281 125 q 221 210 234 177 q 204 275 208 243 l 647 275 m 370 563 q 483 514 447 563 q 523 377 519 465 l 205 377 q 256 514 216 465 q 370 563 295 563 m 584 763 q 561 816 584 794 q 501 838 537 838 q 441 816 465 838 q 418 763 418 794 q 441 710 418 732 q 501 688 465 688 q 561 710 537 688 q 584 763 584 732 m 326 763 q 302 816 326 794 q 243 838 279 838 q 184 816 208 838 q 159 763 159 794 q 184 710 159 732 q 243 688 208 688 q 302 710 279 688 q 326 763 326 732 "},"Å":{"x_min":1.390625,"x_max":918.125,"ha":920,"o":"m 904 0 q 918 13 918 0 l 918 93 q 904 106 918 106 l 833 106 l 555 926 q 605 982 587 947 q 623 1058 623 1016 q 611 1117 623 1088 q 579 1168 600 1145 q 529 1202 558 1190 q 466 1215 501 1215 q 404 1202 433 1215 q 355 1168 376 1190 q 322 1117 334 1145 q 311 1058 311 1088 q 329 982 311 1016 q 379 927 347 948 l 81 106 l 13 106 q 1 93 1 106 l 1 13 q 13 0 1 0 l 165 0 q 177 9 175 0 l 291 334 l 612 334 l 719 9 q 733 0 722 0 l 904 0 m 459 808 l 573 452 l 331 452 l 459 808 m 537 1058 q 517 1009 537 1027 q 473 988 497 991 l 462 988 q 416 1009 436 990 q 397 1058 397 1027 q 418 1107 397 1087 q 466 1127 440 1127 q 516 1107 494 1127 q 537 1058 537 1087 "},"б":{"x_min":75,"x_max":733.390625,"ha":760,"o":"m 733 315 q 711 449 733 390 q 647 549 688 508 q 550 612 607 590 q 426 634 494 634 q 313 611 368 634 q 213 534 258 588 q 238 702 218 634 q 291 811 258 769 q 363 870 323 852 q 448 887 404 887 q 549 873 511 887 q 609 848 587 859 q 616 845 609 848 q 625 841 622 843 q 641 848 638 836 l 675 923 q 670 940 680 937 q 636 958 658 948 q 585 977 613 968 q 521 993 556 987 q 447 1000 486 1000 q 358 988 400 1000 q 281 957 316 976 q 220 914 247 938 q 177 865 194 890 q 135 797 154 833 q 103 716 116 761 q 82 617 90 672 q 75 494 75 562 q 79 377 75 427 q 91 287 84 326 q 108 220 98 248 q 127 170 118 193 q 243 29 170 75 q 418 -16 315 -16 q 541 6 483 -16 q 641 74 598 30 q 708 179 683 118 q 733 315 733 240 m 594 306 q 580 224 594 262 q 543 158 566 186 q 485 113 519 130 q 412 97 451 97 q 340 111 373 97 q 283 154 306 126 q 245 220 259 181 q 231 306 231 258 q 282 463 231 406 q 412 519 333 519 q 543 462 491 519 q 594 306 594 405 "},"ƒ":{"x_min":18.828125,"x_max":771.6875,"ha":764,"o":"m 770 940 q 766 957 773 951 q 703 989 743 975 q 620 1004 663 1004 q 456 943 516 1004 q 377 777 397 883 l 344 595 l 195 595 q 181 581 181 595 l 181 508 q 195 494 181 494 l 326 494 l 248 73 q 237 15 244 44 q 218 -34 230 -12 q 184 -69 205 -55 q 131 -83 163 -83 q 82 -76 106 -83 q 51 -65 58 -69 q 38 -63 44 -61 q 30 -73 31 -65 l 19 -151 q 26 -166 16 -161 q 77 -184 41 -173 q 155 -195 112 -195 q 305 -138 252 -195 q 379 36 358 -81 l 461 494 l 620 494 q 633 508 633 494 l 633 581 q 620 595 633 595 l 479 595 l 505 734 q 519 795 511 766 q 542 845 527 823 q 578 879 556 866 q 630 891 600 891 q 675 884 651 891 q 719 866 700 877 q 737 872 729 861 l 770 940 "},"у":{"x_min":-23.5,"x_max":794.515625,"ha":795,"o":"m 794 569 l 762 523 q 744 520 757 513 q 722 536 734 527 q 698 544 709 544 q 679 538 687 544 q 661 513 672 533 l 309 -320 q 291 -326 302 -333 l 208 -294 q 201 -276 194 -288 l 313 -13 l 112 505 q 93 546 101 533 q 70 559 84 559 q 46 554 58 559 q 25 544 34 550 q 6 550 12 536 l -20 595 q -16 613 -27 607 q 46 651 13 637 q 115 665 79 665 q 164 654 144 665 q 199 626 184 644 q 223 584 213 608 q 241 534 233 561 l 379 155 q 482 400 431 277 q 586 644 533 522 q 608 659 593 657 q 634 661 623 662 q 647 659 645 659 q 697 651 673 659 q 739 632 720 643 q 772 609 758 620 q 794 588 786 597 l 794 569 "},"J":{"x_min":1.390625,"x_max":454.203125,"ha":486,"o":"m 440 877 q 454 890 454 877 l 454 970 q 440 983 454 983 l 168 983 q 155 970 155 983 l 155 890 q 168 877 155 877 l 241 877 l 241 219 q 222 126 241 161 q 145 91 202 91 q 75 101 106 91 q 19 123 44 111 q 1 111 1 129 l 1 19 q 8 6 1 9 q 79 -16 43 -8 q 169 -25 116 -25 q 321 35 269 -25 q 373 191 373 95 l 373 877 l 440 877 "},"ŷ":{"x_min":4.265625,"x_max":680.609375,"ha":756,"o":"m 680 37 l 680 645 q 666 659 680 659 l 563 659 q 551 645 551 659 l 551 327 q 539 240 550 281 q 508 166 529 198 q 454 115 487 134 q 376 97 422 97 q 282 139 309 97 q 255 250 255 181 l 255 543 q 229 625 255 590 q 143 659 202 659 q 75 645 111 659 q 11 608 40 630 q 6 590 0 600 l 34 543 q 43 536 37 537 q 54 538 48 534 q 75 551 63 545 q 100 556 87 556 q 116 549 111 556 q 122 522 122 541 l 122 222 q 180 48 122 113 q 366 -16 238 -16 q 479 10 430 -16 q 556 73 527 37 l 556 25 q 548 -71 556 -27 q 518 -146 540 -115 q 456 -195 495 -177 q 356 -213 418 -213 q 244 -200 291 -213 q 165 -172 197 -187 q 152 -172 158 -169 q 147 -183 147 -175 l 147 -272 q 154 -284 147 -281 q 243 -311 191 -300 q 363 -323 294 -323 q 604 -230 527 -323 q 680 37 680 -137 m 593 725 q 605 730 601 725 q 605 743 609 736 l 456 998 q 444 1005 452 1005 l 330 1005 q 324 1003 327 1005 q 319 998 320 1001 l 172 743 q 172 730 168 736 q 183 725 176 725 l 265 725 q 272 727 268 725 q 277 730 276 729 l 381 912 l 494 730 q 499 727 495 729 q 505 725 502 725 l 593 725 "},"ŕ":{"x_min":10.640625,"x_max":542.171875,"ha":522,"o":"m 540 609 q 534 625 545 619 q 490 647 518 636 q 416 658 462 658 q 321 631 368 658 q 244 550 275 604 q 214 625 237 601 q 144 650 191 650 q 79 636 112 650 q 15 600 45 622 q 11 591 12 597 q 12 581 9 586 l 40 536 q 48 529 43 530 q 59 531 54 527 q 104 548 79 548 q 121 541 115 548 q 127 509 127 533 l 127 13 q 141 0 127 0 l 243 0 q 255 13 255 0 l 255 268 q 271 388 255 330 q 315 488 287 447 q 357 529 333 515 q 411 544 381 544 q 462 534 441 544 q 490 519 483 525 q 501 517 495 515 q 509 526 506 519 l 540 609 m 527 941 q 529 954 533 948 q 518 961 526 961 l 412 961 q 402 955 405 961 l 222 715 q 220 701 216 708 q 231 694 223 694 l 322 694 q 328 695 325 694 q 331 700 331 697 l 527 941 "},"☻":{"x_min":29.171875,"x_max":1062.578125,"ha":1090,"o":"m 1062 491 q 1021 697 1062 602 q 909 861 980 791 q 745 969 838 930 q 545 1008 651 1008 q 346 969 440 1008 q 181 861 252 930 q 70 697 111 791 q 29 491 29 602 q 70 286 29 380 q 181 122 111 191 q 346 14 252 54 q 545 -25 440 -25 q 745 14 651 -25 q 909 122 838 54 q 1021 286 980 191 q 1062 491 1062 380 m 766 400 q 700 239 758 290 q 545 188 641 188 q 391 239 450 188 q 325 400 331 290 q 337 413 325 413 l 416 413 q 429 402 426 413 q 467 314 438 343 q 548 286 495 286 q 666 404 648 286 q 680 413 669 413 l 752 413 l 766 400 m 770 627 q 749 574 770 595 q 695 552 727 552 q 642 574 663 552 q 620 627 620 595 q 642 680 620 658 q 695 702 663 702 q 749 680 727 702 q 770 627 770 658 m 458 633 q 436 579 458 601 q 383 558 415 558 q 329 579 351 558 q 308 633 308 601 q 329 686 308 663 q 383 708 351 708 q 436 686 415 708 q 458 633 458 663 "},"˘":{"x_min":134.734375,"x_max":576.4375,"ha":683,"o":"m 562 911 l 490 911 q 476 901 479 911 q 358 783 458 783 q 277 811 305 783 q 238 900 248 840 q 226 911 236 911 l 147 911 q 134 897 134 911 q 200 736 141 787 q 355 686 259 686 q 509 736 451 686 q 576 897 568 787 l 562 911 "},"┤":{"x_min":0,"x_max":563.9375,"ha":1033,"o":"m 552 -25 q 563 -11 563 -25 l 563 995 q 552 1008 563 1008 l 480 1008 q 469 995 469 1008 l 469 538 l 13 538 q 0 527 0 538 l 0 455 q 13 444 0 444 l 469 444 l 469 -11 q 480 -25 469 -25 l 552 -25 "},"↑":{"x_min":9.015625,"x_max":446.5625,"ha":450,"o":"m 431 700 q 444 705 440 700 q 444 718 448 711 l 295 973 q 283 980 291 980 l 169 980 q 163 978 166 980 q 158 973 159 976 l 11 718 q 11 705 6 711 q 22 700 15 700 l 176 832 l 177 15 q 188 1 177 1 l 261 1 q 272 15 272 1 l 273 832 l 431 700 "},"D":{"x_min":63.890625,"x_max":890.34375,"ha":935,"o":"m 890 491 q 859 685 890 595 q 763 841 827 775 q 603 945 700 908 q 376 983 506 983 l 77 983 q 63 969 63 983 l 63 890 q 77 876 63 876 l 144 876 l 144 106 l 77 106 q 63 93 63 106 l 63 13 q 77 0 63 0 l 376 0 q 603 37 506 0 q 763 140 700 75 q 859 297 827 206 q 890 491 890 387 m 743 491 q 717 338 743 408 q 647 218 691 268 q 541 140 602 168 q 408 112 479 112 l 281 112 l 281 870 l 391 870 q 534 843 469 870 q 645 764 598 815 q 717 644 691 713 q 743 491 743 575 "},"┼":{"x_min":0,"x_max":1033.421875,"ha":1033,"o":"m 552 -25 q 563 -11 563 -25 l 563 444 l 1020 444 q 1033 455 1033 444 l 1033 527 q 1020 538 1033 538 l 563 538 l 563 995 q 552 1008 563 1008 l 480 1008 q 469 995 469 1008 l 469 538 l 13 538 q 0 527 0 538 l 0 455 q 13 444 0 444 l 469 444 l 469 -11 q 480 -25 469 -25 l 552 -25 "},"ĺ":{"x_min":-16.5625,"x_max":338.921875,"ha":325,"o":"m 338 62 l 311 111 q 291 115 302 123 q 270 102 283 109 q 247 95 258 95 q 230 102 236 95 q 225 134 225 109 l 225 945 q 200 1030 225 994 q 116 1066 176 1066 q 52 1052 87 1066 q -9 1015 18 1038 q -13 997 -20 1007 l 12 950 q 21 943 15 944 q 31 945 27 941 q 53 958 41 952 q 76 963 65 963 q 93 955 87 963 q 98 925 98 947 l 98 130 q 121 27 98 63 q 206 -8 144 -8 q 273 6 240 -8 q 334 44 306 20 l 338 62 m 306 1364 q 309 1377 312 1370 q 297 1383 305 1383 l 191 1383 q 181 1377 184 1383 l 1 1137 q 0 1123 -4 1130 q 11 1116 2 1116 l 101 1116 q 107 1118 104 1116 q 111 1122 111 1119 l 306 1364 "},"ł":{"x_min":-16.5625,"x_max":338.921875,"ha":325,"o":"m 338 62 l 311 111 q 291 115 302 123 q 270 102 283 109 q 247 95 258 95 q 230 102 236 95 q 225 134 225 109 l 225 543 l 329 634 q 331 639 329 636 q 333 645 333 643 l 333 725 q 326 738 333 734 q 312 736 319 743 l 225 658 l 225 945 q 200 1030 225 994 q 116 1066 176 1066 q 52 1052 87 1066 q -9 1015 18 1038 q -13 997 -20 1007 l 12 950 q 21 943 15 944 q 31 945 27 941 q 53 958 41 952 q 76 963 65 963 q 93 955 87 963 q 98 925 98 947 l 98 547 l 5 463 q 2 459 4 462 q 0 454 0 456 l 0 373 q 6 359 0 363 q 20 362 13 355 l 98 431 l 98 130 q 121 27 98 63 q 206 -8 144 -8 q 273 6 240 -8 q 334 44 306 20 l 338 62 "},"ه":{"x_min":41.671875,"x_max":680.609375,"ha":721,"o":"m 680 325 q 659 464 680 401 q 595 572 637 527 q 495 641 554 616 q 361 666 436 666 q 227 641 286 666 q 126 572 168 616 q 63 464 84 527 q 41 325 41 401 q 63 186 41 248 q 126 78 84 123 q 227 8 168 33 q 361 -16 286 -16 q 495 8 436 -16 q 595 78 554 33 q 659 186 637 123 q 680 325 680 248 m 544 325 q 533 236 544 279 q 499 160 522 193 q 442 108 476 127 q 361 88 408 88 q 279 108 313 88 q 222 160 245 127 q 188 236 200 193 q 177 325 177 279 q 188 415 177 372 q 222 491 200 458 q 279 543 245 523 q 361 562 313 562 q 442 543 408 562 q 499 491 476 523 q 533 415 522 458 q 544 325 544 372 "},"ц":{"x_min":27.78125,"x_max":702.828125,"ha":731,"o":"m 688 -205 q 702 -193 702 -205 l 702 98 q 688 111 702 111 l 558 112 l 558 561 l 588 561 q 601 575 601 561 l 601 654 q 588 668 601 668 l 391 668 q 377 654 377 668 l 377 575 q 391 561 377 561 l 420 561 l 420 112 l 213 112 l 213 559 l 244 559 q 256 573 256 559 l 256 652 q 244 666 256 666 l 47 666 q 33 652 33 666 l 33 573 q 47 559 33 559 l 76 559 l 76 111 l 41 111 q 27 97 27 111 l 27 12 q 41 -1 27 -1 l 577 0 l 577 -193 q 590 -205 577 -205 l 688 -205 "},"Л":{"x_min":0,"x_max":884.796875,"ha":896,"o":"m 668 869 l 668 0 l 854 0 q 866 12 866 0 l 866 100 q 854 112 866 112 l 804 112 l 804 875 l 870 875 q 884 888 884 875 l 884 968 q 870 982 884 982 l 248 980 q 234 969 234 980 l 234 884 q 248 873 234 873 l 329 873 q 286 586 306 707 q 246 383 266 466 q 206 249 226 300 q 162 170 186 198 q 112 129 138 141 q 54 115 86 118 l 13 115 q 0 102 0 115 l 0 9 q 13 -2 0 -2 q 70 -2 54 -2 q 92 0 87 -1 q 98 0 97 0 q 111 1 100 1 q 203 29 162 1 q 275 107 244 58 q 330 222 306 156 q 372 359 354 287 q 403 504 390 430 q 427 647 416 579 q 445 774 437 716 q 462 869 454 832 l 668 869 "},"├":{"x_min":469.484375,"x_max":1033.421875,"ha":1033,"o":"m 552 -25 q 563 -11 563 -25 l 563 444 l 1020 444 q 1033 455 1033 444 l 1033 527 q 1020 538 1033 538 l 563 538 l 563 995 q 552 1008 563 1008 l 480 1008 q 469 995 469 1008 l 469 -11 q 480 -25 469 -25 l 552 -25 "},"$":{"x_min":91.671875,"x_max":708.390625,"ha":757,"o":"m 708 275 q 688 384 708 338 q 633 463 668 430 q 550 518 598 495 q 447 559 502 541 l 447 877 q 552 864 509 875 q 632 838 595 854 q 648 845 643 833 l 676 920 q 669 937 680 933 q 629 951 654 943 q 576 967 605 959 q 513 980 547 975 q 447 987 480 986 l 447 1080 q 434 1094 447 1094 l 362 1094 q 350 1080 350 1094 l 350 986 q 161 902 231 969 q 91 723 91 836 q 115 618 91 662 q 175 544 138 575 q 258 493 212 513 q 350 456 304 472 l 350 115 q 213 136 270 118 q 111 173 155 155 q 98 172 104 176 q 93 161 93 169 l 93 63 q 101 51 93 54 q 209 18 145 33 q 350 0 272 2 l 350 -98 q 362 -112 350 -112 l 434 -112 q 447 -98 447 -112 l 447 5 q 638 93 569 23 q 708 275 708 162 m 573 272 q 539 176 573 212 q 447 125 505 140 l 447 423 q 540 366 506 400 q 573 272 573 333 m 220 738 q 252 826 220 790 q 350 873 284 862 l 350 593 q 249 656 277 622 q 220 738 220 690 "},"w":{"x_min":-13.296875,"x_max":1064.171875,"ha":1063,"o":"m 1062 608 q 1054 625 1068 619 l 966 655 q 950 647 955 659 l 768 162 l 661 505 q 641 560 651 534 q 617 606 632 586 q 581 638 602 626 q 526 650 559 650 q 457 636 490 650 q 394 598 425 622 q 391 580 383 590 l 420 536 q 440 531 427 525 q 459 543 448 538 q 483 547 469 547 q 510 538 500 547 q 534 494 520 530 l 534 495 l 537 486 l 372 147 l 259 506 q 240 560 251 534 q 215 606 230 586 q 179 638 201 626 q 126 650 158 650 q 56 636 90 650 q -6 598 23 622 q -9 580 -18 590 l 20 536 q 38 531 27 525 q 80 544 55 544 q 127 491 109 544 l 283 9 q 295 0 286 0 l 412 0 q 425 8 422 0 l 583 330 l 687 9 q 701 0 690 0 l 818 0 q 830 8 827 0 l 1062 608 "},"о":{"x_min":41.671875,"x_max":680.609375,"ha":721,"o":"m 680 325 q 659 464 680 401 q 595 572 637 527 q 495 641 554 616 q 361 666 436 666 q 227 641 286 666 q 126 572 168 616 q 63 464 84 527 q 41 325 41 401 q 63 186 41 248 q 126 78 84 123 q 227 8 168 33 q 361 -16 286 -16 q 495 8 436 -16 q 595 78 554 33 q 659 186 637 123 q 680 325 680 248 m 544 325 q 533 236 544 279 q 499 160 522 193 q 442 108 476 127 q 361 88 408 88 q 279 108 313 88 q 222 160 245 127 q 188 236 200 193 q 177 325 177 279 q 188 415 177 372 q 222 491 200 458 q 279 543 245 523 q 361 562 313 562 q 442 543 408 562 q 499 491 476 523 q 533 415 522 458 q 544 325 544 372 "},"⊥":{"x_min":4.171875,"x_max":745.890625,"ha":745,"o":"m 732 112 l 443 112 l 444 627 q 430 641 444 641 l 318 641 q 305 627 305 641 l 305 112 l 16 112 q 4 98 4 112 l 4 13 q 16 0 4 0 l 732 0 q 745 13 745 0 l 745 98 q 732 112 745 112 "},"Д":{"x_min":0,"x_max":884.796875,"ha":896,"o":"m 248 980 q 234 969 234 980 l 234 884 q 248 873 234 873 l 329 873 q 286 586 306 707 q 246 383 266 466 q 206 249 226 300 q 162 170 186 198 q 112 129 138 141 q 54 115 86 118 l 13 115 q 0 102 0 115 l 0 -101 q 13 -113 0 -113 l 98 -113 q 111 -101 111 -113 l 111 1 l 755 -1 l 755 -104 q 769 -116 755 -116 l 854 -116 q 866 -104 866 -116 l 866 100 q 854 112 866 112 l 804 112 l 804 875 l 870 875 q 884 888 884 875 l 884 968 q 870 982 884 982 l 248 980 m 668 869 l 668 112 l 268 116 q 285 129 272 118 q 314 168 298 141 q 347 239 330 195 q 375 350 363 283 l 462 869 l 668 869 "},"Ç":{"x_min":70.84375,"x_max":818.4375,"ha":845,"o":"m 816 938 q 809 955 822 952 q 693 996 758 977 q 537 1015 627 1015 q 348 977 434 1015 q 200 871 262 940 q 104 707 138 802 q 70 494 70 611 q 95 305 70 391 q 168 154 120 219 q 281 45 215 88 q 430 -15 348 1 l 355 -95 q 352 -104 352 -98 q 355 -113 352 -109 l 384 -145 q 397 -148 390 -151 q 410 -145 404 -145 q 422 -141 416 -144 l 420 -143 q 453 -134 438 -137 q 484 -130 468 -130 q 527 -138 506 -130 q 548 -168 548 -145 q 519 -198 548 -191 q 459 -205 490 -205 q 384 -195 423 -205 q 318 -176 345 -186 q 305 -178 311 -173 q 300 -190 300 -183 l 300 -261 q 309 -275 300 -272 q 395 -295 355 -288 q 484 -302 436 -302 q 553 -295 519 -302 q 614 -271 587 -287 q 658 -229 641 -255 q 675 -166 675 -204 q 662 -115 675 -137 q 629 -78 650 -93 q 584 -56 609 -63 q 534 -48 559 -48 l 502 -48 l 534 -25 q 695 -6 627 -25 q 807 36 762 12 q 813 48 813 38 l 813 151 q 807 163 813 159 q 794 163 801 166 q 691 118 748 138 q 550 98 634 98 q 416 127 476 98 q 311 209 355 156 q 243 335 268 262 q 219 494 219 408 q 241 652 219 579 q 305 778 263 725 q 407 862 347 832 q 544 893 468 893 q 670 878 616 893 q 765 845 723 863 q 783 852 777 840 l 816 938 "},"Ŝ":{"x_min":41.671875,"x_max":665.328125,"ha":693,"o":"m 665 262 q 643 381 665 331 q 583 465 622 430 q 490 525 544 500 q 372 572 436 550 q 279 608 316 590 q 218 647 241 626 q 185 692 195 668 q 175 748 175 716 q 228 855 175 816 q 368 894 281 894 q 495 879 443 894 q 581 851 547 865 q 600 857 594 845 l 630 940 q 623 957 636 954 q 577 974 607 965 q 514 991 548 983 q 442 1003 480 998 q 369 1008 404 1008 q 234 990 294 1008 q 131 937 173 972 q 65 851 88 902 q 41 734 41 800 q 67 618 41 665 q 134 537 93 570 q 229 481 176 504 q 336 441 281 459 q 411 411 376 427 q 470 375 445 395 q 510 325 495 354 q 525 258 525 297 q 468 135 525 175 q 313 95 412 95 q 171 115 233 95 q 65 155 109 136 q 52 154 58 158 q 47 143 47 151 l 47 41 q 54 29 47 31 q 170 -7 102 9 q 320 -25 237 -25 q 462 -6 398 -25 q 571 48 526 12 q 641 138 616 84 q 665 262 665 191 m 558 1038 q 570 1044 566 1038 q 570 1057 575 1050 l 422 1312 q 409 1319 418 1319 l 295 1319 q 289 1317 293 1319 q 284 1312 286 1315 l 137 1057 q 137 1044 133 1050 q 148 1038 141 1038 l 230 1038 q 237 1041 233 1038 q 243 1044 241 1043 l 347 1226 l 459 1044 q 464 1041 461 1043 q 470 1038 468 1038 l 558 1038 "},"Ս":{"x_min":66.671875,"x_max":812.5625,"ha":881,"o":"m 812 970 q 798 984 812 984 l 693 984 q 679 970 679 984 l 679 351 q 622 152 679 212 q 445 91 565 91 q 264 152 320 91 q 208 351 208 212 l 208 970 q 194 984 208 984 l 80 984 q 68 970 68 984 l 66 329 q 88 180 66 245 q 155 69 109 115 q 272 0 201 23 q 444 -25 344 -25 q 611 0 541 -25 q 725 69 680 23 q 791 180 770 115 q 812 329 812 245 l 812 970 "},"⋅":{"x_min":36.109375,"x_max":186.125,"ha":221,"o":"m 186 72 q 164 125 186 102 q 111 147 143 147 q 57 125 79 147 q 36 72 36 102 q 57 18 36 40 q 111 -2 79 -2 q 164 18 143 -2 q 186 72 186 40 "},"C":{"x_min":62.5,"x_max":810.109375,"ha":845,"o":"m 808 933 q 801 951 813 945 q 684 990 750 972 q 529 1008 619 1008 q 340 970 426 1008 q 192 865 254 933 q 96 702 130 797 q 62 491 62 607 q 95 279 62 375 q 190 116 129 184 q 336 11 251 48 q 526 -25 422 -25 q 686 -6 619 -25 q 798 36 754 12 q 805 48 805 38 l 805 150 q 799 162 805 158 q 786 162 793 166 q 683 118 740 137 q 541 98 626 98 q 407 127 468 98 q 303 209 347 156 q 235 333 259 261 q 211 491 211 405 q 233 648 211 576 q 297 774 255 720 q 399 858 338 827 q 536 888 459 888 q 661 873 608 888 q 757 841 715 858 q 775 848 769 836 l 808 933 "},"̉":{"x_min":206.96875,"x_max":483.375,"ha":660,"o":"m 206 984 l 208 919 q 213 908 208 912 q 226 908 219 904 q 273 928 251 920 q 320 936 295 936 q 363 923 348 936 q 377 890 377 911 q 367 850 377 869 q 341 813 356 830 q 309 782 326 795 q 279 758 293 768 q 274 744 272 752 q 286 736 276 736 l 354 736 q 446 813 409 769 q 483 920 483 858 q 440 1007 481 979 q 341 1034 398 1034 q 277 1025 306 1034 q 212 995 248 1016 l 206 984 "},"Ĵ":{"x_min":1.390625,"x_max":518.796875,"ha":486,"o":"m 440 877 q 454 890 454 877 l 454 970 q 440 983 454 983 l 168 983 q 155 970 155 983 l 155 890 q 168 877 155 877 l 241 877 l 241 219 q 222 126 241 161 q 145 91 202 91 q 75 101 106 91 q 19 123 44 111 q 1 111 1 129 l 1 19 q 8 6 1 9 q 79 -16 43 -8 q 169 -25 116 -25 q 321 35 269 -25 q 373 191 373 95 l 373 877 l 440 877 m 504 1047 q 516 1052 512 1047 q 516 1065 520 1058 l 368 1320 q 355 1327 363 1327 l 241 1327 q 235 1325 238 1327 q 230 1320 231 1323 l 83 1065 q 83 1052 79 1058 q 94 1047 87 1047 l 176 1047 q 183 1049 179 1047 q 188 1052 187 1051 l 293 1234 l 405 1052 q 410 1049 406 1051 q 416 1047 413 1047 l 504 1047 "},"È":{"x_min":63.890625,"x_max":755.609375,"ha":758,"o":"m 743 0 q 755 13 755 0 l 755 98 q 743 112 755 112 l 280 112 l 280 459 l 659 459 q 673 473 673 459 l 673 561 q 659 575 673 575 l 280 575 l 280 876 l 697 876 q 709 888 709 876 l 709 975 q 697 988 709 988 l 77 988 q 63 975 63 988 l 63 894 q 77 882 63 882 l 144 882 l 144 106 l 77 106 q 63 93 63 106 l 63 13 q 77 0 63 0 l 743 0 m 630 1029 q 641 1032 637 1027 q 645 1043 645 1036 l 645 1122 q 636 1134 645 1132 l 219 1222 q 207 1219 212 1223 q 202 1208 202 1215 l 202 1109 q 213 1095 202 1098 l 630 1029 "},"ﬁ":{"x_min":11.109375,"x_max":769.5,"ha":754,"o":"m 769 62 l 740 111 q 731 117 737 116 q 719 115 725 118 q 697 102 711 109 q 673 95 684 95 q 656 102 662 95 q 651 134 651 109 l 651 540 q 624 629 651 597 q 522 661 597 661 l 261 661 l 261 782 q 295 916 261 879 q 390 954 330 954 q 485 936 444 954 q 558 900 526 919 q 576 905 568 894 l 618 973 q 615 991 625 984 q 575 1017 597 1004 q 525 1041 552 1030 q 466 1059 498 1052 q 394 1066 433 1066 q 200 997 269 1066 q 130 797 130 927 l 130 661 l 23 661 q 11 647 11 661 l 11 572 q 23 559 11 559 l 130 559 l 130 13 q 143 0 130 0 l 247 0 q 261 13 261 0 l 261 559 l 475 559 q 509 551 500 559 q 519 519 519 543 l 519 125 q 543 27 519 62 q 632 -8 568 -8 q 701 6 666 -8 q 765 44 736 20 l 769 62 "},"X":{"x_min":1.390625,"x_max":893.125,"ha":895,"o":"m 879 0 q 893 13 893 0 l 893 93 q 879 106 893 106 l 794 106 l 519 519 l 757 876 l 850 876 q 862 890 862 876 l 862 969 q 850 983 862 983 l 695 983 q 689 982 693 983 q 684 977 686 980 l 450 625 l 213 977 q 209 982 212 980 q 202 983 205 983 l 36 983 q 22 969 22 983 l 22 890 q 36 876 22 876 l 119 876 l 369 502 l 105 106 l 13 106 q 1 93 1 106 l 1 13 q 13 0 1 0 l 166 0 q 172 1 169 0 q 177 5 176 2 l 438 397 l 700 5 q 704 1 701 2 q 711 0 708 0 l 879 0 "},"ô":{"x_min":66.671875,"x_max":705.609375,"ha":778,"o":"m 705 325 q 684 464 705 401 q 620 572 662 527 q 520 641 579 616 q 386 666 461 666 q 252 641 311 666 q 151 572 193 616 q 88 464 109 527 q 66 325 66 401 q 88 186 66 248 q 151 78 109 123 q 252 8 193 33 q 386 -16 311 -16 q 520 8 461 -16 q 620 78 579 33 q 684 186 662 123 q 705 325 705 248 m 569 325 q 558 236 569 279 q 524 160 547 193 q 467 108 501 127 q 386 88 433 88 q 304 108 338 88 q 247 160 270 127 q 213 236 225 193 q 202 325 202 279 q 213 415 202 372 q 247 491 225 458 q 304 543 270 523 q 386 562 338 562 q 467 543 433 562 q 524 491 501 523 q 558 415 547 458 q 569 325 569 372 m 600 676 q 612 682 608 676 q 612 694 616 687 l 463 950 q 451 957 459 957 l 337 957 q 331 954 334 957 q 326 950 327 952 l 179 694 q 179 682 175 687 q 190 676 183 676 l 272 676 q 279 678 275 676 q 284 682 283 680 l 388 863 l 501 682 q 506 678 502 680 q 512 676 509 676 l 600 676 "},"Ė":{"x_min":63.890625,"x_max":757,"ha":758,"o":"m 743 0 q 755 13 755 0 l 757 98 q 744 112 757 112 l 280 112 l 280 458 l 659 458 q 673 470 673 458 l 673 558 q 659 570 673 570 l 280 570 l 280 870 l 697 870 q 709 884 709 870 l 709 969 q 697 983 709 983 l 77 983 q 63 969 63 983 l 63 890 q 77 876 63 876 l 144 876 l 144 106 l 77 106 q 63 93 63 106 l 63 13 q 77 0 63 0 l 743 0 m 508 1119 q 486 1171 508 1148 q 433 1194 465 1194 q 379 1171 401 1194 q 358 1119 358 1148 q 379 1066 358 1087 q 433 1044 401 1044 q 486 1066 465 1044 q 508 1119 508 1087 "},"٦":{"x_min":1.390625,"x_max":693.109375,"ha":753,"o":"m 13 983 q 1 969 1 983 l 1 884 q 13 870 1 870 l 476 870 l 476 106 l 395 106 q 383 93 383 106 l 383 13 q 395 0 383 0 l 679 0 q 693 13 693 0 l 693 93 q 679 106 693 106 l 612 106 l 612 876 l 679 876 q 693 890 693 876 l 693 969 q 679 983 693 983 l 13 983 "},"г":{"x_min":23.609375,"x_max":465.3125,"ha":465,"o":"m 451 556 q 465 570 465 556 l 465 655 q 451 669 465 669 l 36 669 q 23 655 23 669 l 23 570 q 36 556 23 556 l 73 556 l 73 106 l 43 106 q 30 93 30 106 l 30 13 q 43 0 30 0 l 240 0 q 254 13 254 0 l 254 93 q 240 106 254 106 l 211 106 l 211 556 l 451 556 "},"Ŀ":{"x_min":61.109375,"x_max":752.84375,"ha":753,"o":"m 740 0 q 752 13 752 0 l 752 98 q 740 112 752 112 l 277 112 l 277 876 l 358 876 q 370 890 370 876 l 370 969 q 358 983 370 983 l 75 983 q 61 969 61 983 l 61 890 q 75 876 61 876 l 141 876 l 141 106 l 75 106 q 61 93 61 106 l 61 13 q 75 0 61 0 l 740 0 m 587 597 q 566 650 587 627 q 512 672 544 672 q 459 650 480 672 q 437 597 437 627 q 459 543 437 565 q 512 522 480 522 q 566 543 544 522 q 587 597 587 565 "},"х":{"x_min":16.984375,"x_max":684.78125,"ha":671,"o":"m 684 87 l 652 131 q 633 134 645 144 q 584 113 609 113 q 560 124 572 113 q 533 158 548 134 l 418 334 l 641 583 q 641 601 650 594 l 584 662 q 565 662 575 669 l 356 430 l 259 581 q 242 605 251 593 q 221 628 233 618 q 193 645 209 638 q 155 651 177 651 q 84 629 119 651 q 20 580 48 607 q 19 562 13 573 l 51 519 q 70 516 58 506 q 119 537 95 537 q 143 528 131 537 q 169 495 154 519 l 272 336 l 29 66 q 29 48 20 55 l 86 -12 q 105 -12 95 -19 l 333 240 l 443 68 q 481 22 458 44 q 548 0 504 0 q 620 21 584 0 q 683 70 655 43 l 684 87 "},"ŋ":{"x_min":9.828125,"x_max":691.71875,"ha":747,"o":"m 691 430 q 632 602 691 537 q 445 666 573 666 q 328 638 377 666 q 250 572 279 611 q 218 628 241 605 q 145 651 194 651 q 80 636 113 651 q 16 600 47 622 q 12 583 5 591 l 40 536 q 49 529 43 530 q 59 531 55 527 q 81 544 69 538 q 105 550 94 550 q 124 541 118 550 q 130 511 130 533 l 130 13 q 143 0 130 0 l 247 0 q 259 13 259 0 l 259 318 q 269 408 259 365 q 300 484 279 451 q 355 536 322 516 q 436 555 388 555 q 529 514 501 555 q 558 404 558 473 l 558 63 q 553 -20 562 19 q 529 -97 544 -61 q 495 -164 513 -133 q 462 -222 476 -195 q 470 -240 458 -236 l 538 -263 q 545 -264 541 -265 q 552 -261 550 -263 q 593 -211 569 -240 q 638 -147 616 -181 q 675 -74 661 -112 q 688 1 690 -36 l 691 430 "},"Ч":{"x_min":1.390625,"x_max":868.125,"ha":892,"o":"m 583 105 q 570 91 570 105 l 570 12 q 583 -1 570 -1 l 854 -1 q 868 12 868 -1 l 868 91 q 854 105 868 105 l 787 105 l 788 1044 q 775 1058 788 1058 l 672 1058 q 658 1044 658 1058 l 658 736 q 640 640 658 687 q 591 554 622 593 q 519 493 561 516 q 430 469 477 469 q 366 484 398 469 q 307 521 333 498 q 265 573 281 544 q 250 630 250 602 l 250 925 q 225 1023 250 987 q 137 1058 201 1058 q 68 1043 102 1058 q 4 1005 33 1029 l 1 987 l 30 938 q 50 934 37 927 q 71 947 58 940 q 95 954 84 954 q 112 948 106 954 q 118 922 118 943 l 118 612 q 142 507 118 555 q 208 425 166 459 q 306 372 250 391 q 427 354 362 354 q 492 364 458 354 q 558 391 526 375 q 616 427 590 408 q 658 463 643 447 l 655 105 l 583 105 "},"ü":{"x_min":5.09375,"x_max":801.453125,"ha":814,"o":"m 801 69 l 772 116 q 763 122 769 122 q 751 120 757 123 q 729 109 743 116 q 705 102 716 102 q 689 109 694 102 q 684 140 684 116 l 684 637 q 670 650 684 650 l 568 650 q 554 637 554 650 l 554 333 q 544 243 554 286 q 513 167 534 200 q 458 115 491 134 q 377 95 425 95 q 284 137 312 95 q 256 247 256 179 l 256 536 q 230 616 256 581 q 143 650 204 650 q 76 636 111 650 q 11 600 41 622 q 5 591 6 597 q 6 583 4 586 l 34 536 q 43 529 37 530 q 54 531 50 527 q 76 544 63 538 q 100 550 88 550 q 117 543 111 550 q 123 516 123 536 l 123 219 q 181 47 123 112 q 369 -16 240 -16 q 484 10 436 -16 q 563 77 533 37 q 595 21 570 43 q 663 0 619 0 q 733 13 698 0 q 797 51 768 27 l 801 69 m 601 738 q 577 791 601 769 q 518 813 554 813 q 458 791 481 813 q 434 738 434 769 q 458 685 434 707 q 518 663 481 663 q 577 685 554 663 q 601 738 601 707 m 343 738 q 319 791 343 769 q 259 813 295 813 q 200 791 225 813 q 176 738 176 769 q 200 685 176 707 q 259 663 225 663 q 319 685 295 663 q 343 738 343 707 "},"ь":{"x_min":25,"x_max":607,"ha":633,"o":"m 607 212 q 584 322 607 280 q 520 388 562 365 q 418 418 479 411 q 280 426 356 426 l 218 426 l 218 561 l 265 561 q 279 575 279 561 l 279 654 q 265 668 279 668 l 38 666 q 25 652 25 666 l 25 573 q 38 559 25 559 l 83 561 l 83 106 l 48 106 q 34 93 34 106 l 34 13 q 48 0 34 0 l 280 0 q 417 7 356 0 q 520 38 477 15 q 584 102 562 61 q 607 212 607 144 m 465 212 q 453 148 465 169 q 418 119 441 127 q 362 111 395 111 q 286 112 329 112 l 218 112 l 218 313 l 286 313 q 362 314 329 313 q 418 306 395 315 q 453 277 441 298 q 465 212 465 255 "},"Ÿ":{"x_min":1.390625,"x_max":813.953125,"ha":815,"o":"m 800 880 q 813 894 813 880 l 813 975 q 800 988 813 988 l 670 988 q 658 982 661 988 l 422 566 l 165 982 q 154 988 161 988 l 13 988 q 1 975 1 988 l 1 894 q 13 880 1 880 l 73 880 l 350 437 l 350 106 l 283 106 q 269 93 269 106 l 269 13 q 283 0 269 0 l 554 0 q 568 13 568 0 l 568 93 q 554 106 568 106 l 487 106 l 487 441 l 737 880 l 800 880 m 665 1115 q 640 1177 665 1151 q 579 1202 615 1202 q 518 1177 543 1202 q 494 1115 494 1151 q 518 1054 494 1079 q 579 1029 543 1029 q 640 1054 615 1029 q 665 1115 665 1079 m 336 1115 q 311 1177 336 1151 q 250 1202 286 1202 q 189 1177 213 1202 q 165 1115 165 1151 q 189 1054 165 1079 q 250 1029 213 1029 q 311 1054 286 1029 q 336 1115 336 1079 "},"€":{"x_min":-1.390625,"x_max":810.109375,"ha":845,"o":"m 709 327 q 723 341 723 327 l 723 433 q 709 445 723 445 l 212 445 q 211 468 211 456 q 211 491 211 480 q 211 513 211 502 q 212 536 211 525 l 709 536 q 723 548 723 536 l 723 640 q 709 652 723 652 l 234 652 q 345 823 268 758 q 536 888 422 888 q 661 873 608 888 q 757 841 715 858 q 775 848 769 836 l 808 933 q 801 951 813 945 q 684 990 750 972 q 529 1008 619 1008 q 372 983 445 1008 q 242 911 300 958 q 143 799 184 865 q 81 652 102 733 l 12 652 q -1 640 -1 652 l -1 548 q 12 536 -1 536 l 63 536 q 62 513 62 525 q 62 491 62 502 q 62 468 62 480 q 63 445 62 456 l 12 445 q -1 433 -1 445 l -1 341 q 12 327 -1 327 l 81 327 q 143 180 102 245 q 240 69 183 115 q 369 0 297 23 q 526 -25 441 -25 q 686 -6 619 -25 q 798 36 754 12 q 805 48 805 38 l 805 150 q 799 162 805 158 q 786 162 793 166 q 683 118 740 137 q 541 98 626 98 q 353 160 433 98 q 237 327 273 222 l 709 327 "},"в":{"x_min":34.71875,"x_max":607,"ha":633,"o":"m 597 451 q 574 567 595 525 q 513 631 552 609 q 416 659 473 652 q 286 665 359 665 l 50 665 q 36 651 36 665 l 36 575 q 50 561 36 561 l 83 561 l 83 106 l 48 106 q 34 93 34 106 l 34 13 q 48 0 34 0 l 280 0 q 417 3 356 0 q 520 25 477 6 q 584 80 562 43 q 607 186 607 118 q 595 268 607 234 q 563 323 584 301 q 588 378 579 347 q 597 451 597 409 m 465 186 q 454 143 466 158 q 420 120 443 127 q 363 113 397 113 q 286 112 329 112 l 218 112 l 218 275 l 286 275 q 362 274 329 275 q 418 265 395 273 q 453 238 441 256 q 465 186 465 220 m 455 451 q 443 415 455 427 q 409 396 431 402 q 353 388 386 390 q 280 387 320 387 l 218 387 l 218 552 l 276 552 q 352 553 319 552 q 409 545 386 554 q 443 516 431 537 q 455 451 455 494 "},"Η":{"x_min":52.78125,"x_max":958.40625,"ha":1008,"o":"m 944 0 q 958 13 958 0 l 958 93 q 944 106 958 106 l 876 106 l 876 876 l 944 876 q 958 890 958 876 l 958 969 q 944 983 958 983 l 752 983 q 738 969 738 983 l 738 568 l 270 568 l 270 969 q 256 983 270 983 l 65 983 q 52 969 52 983 l 52 890 q 65 876 52 876 l 133 876 l 133 106 l 65 106 q 52 93 52 106 l 52 13 q 65 0 52 0 l 256 0 q 270 13 270 0 l 270 455 l 738 455 l 738 13 q 752 0 738 0 l 944 0 "},"ƶ":{"x_min":20.828125,"x_max":607,"ha":601,"o":"m 552 300 q 565 311 565 300 l 565 394 q 552 405 565 405 l 450 405 l 586 566 l 586 637 q 572 650 586 650 l 73 650 q 61 637 61 650 l 61 552 q 73 540 61 540 l 408 540 l 294 405 l 80 405 q 66 394 66 405 l 66 311 q 80 300 66 300 l 205 300 l 20 80 l 20 8 q 37 -5 20 -9 q 119 9 69 2 q 226 16 169 16 q 281 11 254 16 q 336 1 309 6 q 381 -7 359 -4 q 427 -11 404 -11 q 497 0 465 -11 q 553 33 529 11 q 592 88 577 55 q 607 168 607 122 l 595 181 l 536 187 q 526 185 530 188 q 520 177 522 181 q 496 126 513 141 q 448 111 479 111 q 416 113 430 111 q 387 120 402 116 q 345 131 369 126 q 281 136 322 136 q 253 134 270 136 q 213 125 236 131 l 361 300 l 552 300 "},"С":{"x_min":62.5,"x_max":810.109375,"ha":845,"o":"m 808 933 q 801 951 813 945 q 684 990 750 972 q 529 1008 619 1008 q 340 970 426 1008 q 192 865 254 933 q 96 702 130 797 q 62 491 62 607 q 95 279 62 375 q 190 116 129 184 q 336 11 251 48 q 526 -25 422 -25 q 686 -6 619 -25 q 798 36 754 12 q 805 48 805 38 l 805 150 q 799 162 805 158 q 786 162 793 166 q 683 118 740 137 q 541 98 626 98 q 407 127 468 98 q 303 209 347 156 q 235 333 259 261 q 211 491 211 405 q 233 648 211 576 q 297 774 255 720 q 399 858 338 827 q 536 888 459 888 q 661 873 608 888 q 757 841 715 858 q 775 848 769 836 l 808 933 "},"ß":{"x_min":102.78125,"x_max":751.453125,"ha":792,"o":"m 751 312 q 700 508 751 434 q 552 609 650 581 q 637 692 604 637 q 670 826 670 747 q 650 926 670 882 q 595 1002 630 970 q 510 1050 559 1033 q 404 1066 461 1066 q 264 1041 322 1066 q 170 972 206 1016 q 118 870 134 929 q 102 744 102 812 l 102 13 q 115 0 102 0 l 219 0 q 233 13 233 0 l 233 748 q 240 827 233 788 q 267 896 248 866 q 318 944 286 926 q 398 962 350 962 q 499 925 461 962 q 537 815 537 887 q 496 702 537 743 q 388 661 455 661 l 359 661 q 345 647 345 661 l 345 558 q 359 544 345 544 l 390 544 q 550 489 488 544 q 611 322 611 434 q 558 151 611 206 q 418 95 505 95 q 373 98 394 95 q 320 111 352 101 q 304 97 304 115 l 304 13 q 312 0 304 2 q 373 -13 348 -11 q 429 -16 398 -16 q 556 4 497 -16 q 658 65 615 25 q 726 168 701 106 q 751 312 751 230 "},"└":{"x_min":469.484375,"x_max":1033.421875,"ha":1033,"o":"m 1020 444 q 1033 455 1033 444 l 1033 527 q 1020 538 1033 538 l 563 538 l 563 995 q 552 1008 563 1008 l 480 1008 q 469 995 469 1008 l 469 444 l 1020 444 "},"њ":{"x_min":45.84375,"x_max":1138.984375,"ha":1163,"o":"m 1138 213 q 1116 324 1138 281 q 1052 389 1094 366 q 950 420 1011 412 q 812 427 888 427 l 750 427 l 750 561 l 818 561 q 832 575 832 561 l 832 654 q 818 668 832 668 l 626 668 q 612 654 612 668 l 612 395 l 263 395 l 263 654 q 250 668 263 668 l 58 668 q 45 654 45 668 l 45 575 q 58 561 45 561 l 126 561 l 126 106 l 58 106 q 45 93 45 106 l 45 13 q 58 0 45 0 l 250 0 q 263 13 263 0 l 263 283 l 612 283 l 612 13 q 626 0 612 0 q 737 0 698 0 q 795 0 777 0 q 819 0 815 0 q 823 1 823 1 q 955 9 897 1 q 1054 40 1013 18 q 1117 105 1095 63 q 1138 213 1138 147 m 997 213 q 985 150 997 170 q 950 120 973 129 q 894 113 927 112 q 818 113 861 113 l 750 113 l 750 315 l 818 315 q 894 315 861 315 q 950 308 927 316 q 985 278 973 300 q 997 213 997 256 "},"Ű":{"x_min":45.84375,"x_max":952.859375,"ha":996,"o":"m 938 877 q 952 890 952 877 l 952 970 q 938 984 952 984 l 752 984 q 738 970 738 984 l 738 351 q 682 152 738 212 q 505 91 625 91 q 324 152 380 91 q 268 351 268 212 l 268 970 q 254 984 268 984 l 58 984 q 45 970 45 984 l 45 890 q 58 877 45 877 l 126 877 l 126 329 q 147 180 126 245 q 215 69 169 115 q 332 0 261 23 q 504 -25 404 -25 q 670 0 601 -25 q 785 69 740 23 q 851 180 830 115 q 872 329 872 245 l 872 877 l 938 877 m 586 1283 q 585 1296 588 1290 q 573 1302 581 1302 l 476 1302 q 463 1297 466 1302 l 330 1055 q 330 1042 326 1048 q 343 1036 334 1036 l 426 1036 q 437 1043 433 1036 l 586 1283 m 775 1283 q 775 1296 779 1290 q 763 1302 770 1302 l 665 1302 q 654 1297 657 1302 l 520 1055 q 520 1042 516 1048 q 531 1036 525 1036 l 615 1036 q 627 1043 623 1036 l 775 1283 "},"c":{"x_min":50,"x_max":588.171875,"ha":607,"o":"m 587 602 q 580 620 590 616 q 497 650 548 633 q 380 666 447 666 q 245 641 306 666 q 140 570 184 615 q 73 462 97 525 q 50 325 50 400 q 72 187 50 250 q 136 79 94 125 q 238 8 177 33 q 379 -16 300 -16 q 493 -1 440 -16 q 577 27 547 13 q 586 40 586 30 l 586 127 q 579 140 586 136 q 565 140 572 144 q 470 102 513 112 q 386 91 427 91 q 300 109 337 91 q 236 157 262 126 q 197 231 211 188 q 184 325 184 275 q 196 412 184 370 q 231 486 208 454 q 293 536 255 518 q 381 555 330 555 q 477 543 437 555 q 538 522 516 531 q 556 529 551 516 l 587 602 "},"¶":{"x_min":47.21875,"x_max":861.1875,"ha":863,"o":"m 861 -122 l 832 -66 q 822 -60 829 -61 q 811 -62 816 -59 q 788 -75 802 -68 q 762 -81 773 -81 q 745 -75 751 -81 q 738 -43 738 -68 l 738 883 l 805 883 q 819 895 819 883 l 819 976 q 805 990 819 990 l 436 990 q 272 959 344 990 q 150 870 200 927 q 73 734 100 813 q 47 559 47 655 q 70 409 47 479 q 136 285 94 338 q 234 198 177 231 q 356 159 291 165 l 356 -187 q 379 -288 356 -252 q 466 -325 401 -325 q 534 -310 501 -325 q 598 -272 568 -295 q 602 -254 608 -265 l 573 -198 q 564 -192 570 -193 q 552 -194 558 -191 q 531 -206 545 -200 q 505 -213 516 -213 q 486 -206 493 -213 q 480 -175 480 -200 l 480 879 l 612 879 l 612 -55 q 635 -156 612 -120 q 723 -193 658 -193 q 793 -178 759 -193 q 857 -140 826 -163 l 861 -122 "},"Ή":{"x_min":-128.703125,"x_max":1040.359375,"ha":1090,"o":"m 1026 0 q 1040 13 1040 0 l 1040 93 q 1026 106 1040 106 l 958 106 l 958 876 l 1026 876 q 1040 890 1040 876 l 1040 969 q 1026 983 1040 983 l 834 983 q 820 969 820 983 l 820 568 l 352 568 l 352 969 q 338 983 352 983 l 147 983 q 134 969 134 983 l 134 890 q 147 876 134 876 l 215 876 l 215 106 l 147 106 q 134 93 134 106 l 134 13 q 147 0 134 0 l 338 0 q 352 13 352 0 l 352 455 l 820 455 l 820 13 q 834 0 820 0 l 1026 0 m 90 958 q 87 971 93 965 q 73 977 81 977 l -16 977 q -25 972 -22 977 l -127 732 q -125 718 -130 725 q -111 711 -119 711 l -36 711 q -30 712 -33 711 q -27 716 -27 713 l 90 958 "},"­":{"x_min":59.734375,"x_max":400.03125,"ha":435,"o":"m 387 222 q 400 233 400 222 l 400 316 q 387 327 400 327 l 73 327 q 59 316 59 327 l 59 233 q 73 222 59 222 l 387 222 "},":":{"x_min":97.234375,"x_max":263.90625,"ha":338,"o":"m 263 77 q 239 143 263 115 q 180 170 215 170 q 121 143 145 170 q 97 77 97 115 q 122 10 97 37 q 180 -16 148 -16 q 238 10 212 -16 q 263 77 263 37 m 263 556 q 239 622 263 595 q 180 650 215 650 q 121 622 145 650 q 97 556 97 595 q 122 491 97 518 q 180 463 148 463 q 238 491 212 463 q 263 556 263 518 "},"₫":{"x_min":66.671875,"x_max":882.015625,"ha":810,"o":"m 869 776 q 882 787 882 776 l 882 870 q 869 882 882 882 l 707 882 l 707 947 q 681 1030 707 994 q 594 1066 655 1066 q 527 1052 562 1066 q 462 1015 493 1038 q 456 1007 458 1012 q 458 998 455 1001 l 486 950 q 495 944 488 945 q 506 947 501 943 q 527 959 515 954 q 551 963 540 963 q 570 955 563 963 q 576 925 576 947 l 576 882 l 393 882 q 379 870 379 882 l 379 787 q 393 776 379 776 l 576 776 l 576 590 q 487 654 540 632 q 362 676 434 676 q 238 650 293 676 q 145 577 184 623 q 86 467 106 530 q 66 330 66 404 q 86 191 66 255 q 143 81 105 127 q 238 9 181 36 q 370 -16 295 -16 q 486 6 429 -16 q 581 73 543 29 q 615 19 590 38 q 687 0 640 0 q 756 14 722 0 q 819 52 790 29 l 823 70 l 794 119 q 775 123 786 131 q 753 111 766 118 q 729 104 740 104 q 712 111 718 104 q 707 141 707 118 l 707 776 l 869 776 m 576 330 q 563 240 576 283 q 524 165 550 197 q 461 113 498 133 q 379 94 425 94 q 300 113 333 94 q 247 165 268 133 q 216 240 226 197 q 206 330 206 283 q 217 420 206 377 q 248 495 227 463 q 302 547 269 527 q 381 566 336 566 q 463 547 427 566 q 525 495 500 527 q 563 420 550 463 q 576 330 576 377 m 784 -169 q 798 -158 798 -169 l 798 -80 q 784 -69 798 -69 l 118 -69 q 104 -80 104 -69 l 104 -158 q 118 -169 104 -169 l 784 -169 "},"ś":{"x_min":40.28125,"x_max":525.046875,"ha":542,"o":"m 525 193 q 510 272 525 240 q 468 327 495 305 q 402 365 441 350 q 316 391 363 380 q 210 427 250 406 q 170 481 170 448 q 200 541 170 519 q 293 563 230 563 q 389 549 348 563 q 448 527 430 534 q 450 526 448 526 q 462 522 455 522 q 472 530 469 523 l 501 597 q 497 613 506 608 q 390 654 443 643 q 293 666 337 666 q 198 654 243 666 q 120 616 154 641 q 65 554 86 591 q 45 469 45 518 q 63 391 45 422 q 111 338 81 359 q 182 303 141 316 q 269 277 223 290 q 362 243 327 262 q 397 180 397 225 q 386 139 397 156 q 356 111 375 122 q 316 95 338 100 q 269 90 293 90 q 148 111 200 90 q 61 155 97 133 q 47 156 54 159 q 40 145 40 152 l 40 51 q 43 45 40 48 q 48 40 45 41 q 134 4 77 25 q 279 -16 191 -16 q 368 -4 323 -16 q 447 31 412 6 q 503 96 481 56 q 525 193 525 136 m 481 941 q 484 954 487 948 q 472 961 480 961 l 366 961 q 356 955 359 961 l 176 715 q 174 701 170 708 q 186 694 177 694 l 276 694 q 282 695 279 694 q 286 700 286 697 l 481 941 "},"Ƨ":{"x_min":40.28125,"x_max":663.9375,"ha":693,"o":"m 40 262 q 64 138 40 191 q 134 48 88 84 q 243 -6 179 12 q 384 -25 306 -25 q 535 -7 468 -25 q 651 29 602 9 q 658 41 658 31 l 658 143 q 652 154 658 151 q 640 155 647 158 q 534 115 595 136 q 391 95 472 95 q 236 135 293 95 q 180 258 180 175 q 195 325 180 297 q 234 375 209 354 q 294 411 259 395 q 369 441 329 427 q 476 481 423 459 q 570 537 529 504 q 638 618 612 570 q 663 734 663 665 q 640 851 663 800 q 574 937 616 902 q 471 990 531 972 q 336 1008 411 1008 q 262 1003 300 1008 q 190 991 225 998 q 127 974 156 983 q 81 957 98 965 q 75 940 69 954 l 105 857 q 123 851 111 845 q 210 879 158 865 q 337 894 262 894 q 477 855 423 894 q 530 748 530 816 q 520 692 530 716 q 486 647 509 668 q 426 608 463 626 q 333 572 388 590 q 214 525 268 550 q 122 465 161 500 q 61 381 83 430 q 40 262 40 331 "}," ":{"x_min":0,"x_max":0,"ha":386},"У":{"x_min":-23.5,"x_max":794.515625,"ha":795,"o":"m 794 884 l 762 838 q 744 836 757 829 q 722 851 734 843 q 698 859 709 859 q 679 854 687 859 q 661 829 672 848 l 309 -5 q 291 -11 302 -18 l 208 20 q 201 38 194 26 l 313 301 l 112 820 q 93 861 101 848 q 70 875 84 875 q 46 870 58 875 q 25 859 34 865 q 6 865 12 851 l -20 911 q -16 929 -27 922 q 46 966 13 952 q 115 980 79 980 q 164 970 144 980 q 199 941 184 959 q 223 900 213 923 q 241 850 233 876 l 379 470 q 482 715 431 593 q 586 959 533 837 q 608 975 593 972 q 634 976 623 977 q 647 975 645 975 q 697 966 673 975 q 739 947 720 958 q 772 924 758 936 q 794 904 786 912 l 794 884 "},"¾":{"x_min":205.578125,"x_max":1387.609375,"ha":1547,"o":"m 1373 116 q 1387 130 1387 116 l 1387 198 q 1373 212 1387 212 l 1316 212 l 1316 518 q 1302 531 1316 531 l 1180 531 q 1174 530 1177 531 q 1169 526 1170 529 l 929 211 l 929 130 q 943 116 929 116 l 1200 116 l 1200 86 l 1152 86 q 1140 73 1140 86 l 1140 9 q 1152 -4 1140 -4 l 1362 -4 q 1376 9 1376 -4 l 1376 73 q 1362 86 1376 86 l 1316 86 l 1316 116 l 1373 116 m 1265 957 q 1262 976 1275 969 l 1190 1026 q 1170 1023 1179 1034 l 404 27 q 406 9 394 18 l 479 -40 q 498 -37 490 -48 l 1265 957 m 627 618 q 606 693 627 659 q 548 743 584 727 q 611 852 611 783 q 595 921 611 893 q 551 967 579 950 q 487 993 523 984 q 411 1001 451 1001 q 297 979 345 1001 q 212 936 248 957 q 208 915 202 929 l 245 861 q 262 857 252 851 q 265 858 265 858 q 268 861 265 859 q 328 889 297 876 q 400 902 359 902 q 463 886 443 902 q 484 845 484 869 q 455 799 484 811 q 388 787 426 787 l 354 787 q 340 775 340 787 l 340 702 q 354 688 340 688 l 388 690 l 398 690 q 468 673 440 690 q 497 622 497 657 q 472 570 497 590 q 404 551 448 551 q 314 561 352 551 q 225 600 276 572 q 211 600 218 604 q 205 587 205 595 l 205 509 q 212 497 205 500 q 304 463 261 475 q 404 452 347 452 q 485 462 445 452 q 556 493 525 472 q 608 545 588 513 q 627 618 627 576 m 1050 212 l 1200 405 l 1200 212 l 1050 212 "},"Ί":{"x_min":-132.875,"x_max":425.03125,"ha":469,"o":"m 412 0 q 425 13 425 0 l 425 93 q 412 106 425 106 l 347 106 l 347 876 l 412 876 q 425 890 425 876 l 425 969 q 412 983 425 983 l 154 983 q 141 969 141 983 l 141 890 q 154 876 141 876 l 218 876 l 218 106 l 154 106 q 141 93 141 106 l 141 13 q 154 0 141 0 l 412 0 m 86 965 q 83 978 88 972 q 69 984 77 984 l -20 984 q -29 979 -26 984 l -131 738 q -129 725 -134 732 q -115 718 -123 718 l -40 718 q -34 719 -37 718 q -31 723 -31 720 l 86 965 "},"ŉ":{"x_min":-3.8125,"x_max":945.90625,"ha":924,"o":"m 945 61 l 916 109 q 907 115 913 115 q 895 113 901 116 q 874 101 887 108 q 850 94 861 94 q 834 100 840 94 q 829 125 829 105 l 829 131 l 827 430 q 768 602 827 537 q 581 666 709 666 q 464 638 513 666 q 386 572 415 611 q 354 628 377 605 q 281 651 330 651 q 216 636 250 651 q 152 600 183 622 q 148 583 141 591 l 176 536 q 185 529 179 530 q 195 531 191 527 q 218 544 205 538 q 241 550 230 550 q 260 541 254 550 q 266 511 266 533 l 266 13 q 279 0 266 0 l 383 0 q 395 13 395 0 l 395 318 q 405 408 395 365 q 436 484 415 451 q 491 536 458 516 q 572 555 525 555 q 666 514 637 555 q 694 404 694 473 l 694 122 q 719 26 694 61 q 808 -8 744 -8 q 877 6 843 -8 q 941 44 912 20 l 945 61 m 219 937 l 105 969 q 95 969 100 972 q 90 959 90 966 q 51 809 77 886 q -2 680 25 732 q 5 662 -6 666 l 73 637 q 87 641 83 634 q 124 693 104 662 q 163 761 144 725 q 200 839 183 798 q 229 920 218 880 l 219 937 "},"┴":{"x_min":0,"x_max":1033.421875,"ha":1033,"o":"m 1020 444 q 1033 455 1033 444 l 1033 527 q 1020 538 1033 538 l 563 538 l 563 995 q 552 1008 563 1008 l 480 1008 q 469 995 469 1008 l 469 538 l 13 538 q 0 527 0 538 l 0 455 q 13 444 0 444 l 1020 444 "},"Ģ":{"x_min":70.84375,"x_max":850.0625,"ha":903,"o":"m 850 63 l 850 509 q 837 523 850 523 l 640 523 q 626 509 626 523 l 626 429 q 640 415 626 415 l 715 415 l 715 123 q 636 104 675 111 q 550 97 597 97 q 413 126 475 97 q 308 208 351 155 q 241 333 265 261 q 218 491 218 405 q 240 648 218 576 q 303 774 262 720 q 404 858 344 827 q 538 888 463 888 q 672 870 619 888 q 762 832 725 851 q 773 831 768 829 q 782 838 779 833 l 818 923 q 812 941 823 936 q 696 988 765 968 q 526 1008 627 1008 q 342 970 426 1008 q 197 865 258 933 q 104 702 137 797 q 70 491 70 607 q 100 289 70 380 q 185 131 130 198 q 318 23 240 63 q 493 -23 397 -16 q 456 -150 479 -87 q 411 -255 434 -212 q 419 -273 406 -269 l 487 -297 q 494 -297 490 -298 q 501 -294 498 -297 q 537 -242 518 -273 q 576 -175 556 -211 q 612 -97 595 -138 q 640 -16 629 -56 q 843 51 752 1 l 850 63 "},"m":{"x_min":9.828125,"x_max":1204.265625,"ha":1183,"o":"m 1204 61 l 1173 109 q 1154 113 1166 120 q 1132 101 1145 108 q 1107 94 1118 94 q 1091 100 1097 94 q 1086 131 1086 106 l 1086 431 q 1031 602 1086 538 q 847 666 976 666 q 725 636 777 666 q 644 555 672 607 q 569 637 619 608 q 437 666 519 666 q 322 641 370 666 q 250 579 275 615 q 218 631 241 611 q 148 651 194 651 q 81 636 116 651 q 16 600 47 622 q 12 583 5 591 l 40 536 q 49 529 43 530 q 61 531 55 527 q 82 544 70 538 q 106 550 94 550 q 125 541 119 550 q 131 511 131 533 l 131 13 q 145 0 131 0 l 250 0 q 263 13 263 0 l 263 318 q 271 408 263 365 q 297 484 279 451 q 348 536 316 516 q 427 555 380 555 q 482 543 461 555 q 516 508 504 530 q 534 454 529 486 q 538 387 538 423 l 538 13 q 552 0 538 0 l 661 0 q 675 13 675 0 l 675 318 q 682 408 675 365 q 709 484 690 451 q 759 536 727 516 q 837 555 790 555 q 925 514 901 555 q 950 406 950 473 l 950 122 q 975 26 950 61 q 1065 -8 1001 -8 q 1135 6 1100 -8 q 1200 44 1170 20 l 1204 61 "},"Е":{"x_min":63.890625,"x_max":757,"ha":758,"o":"m 743 0 q 755 13 755 0 l 757 98 q 744 112 757 112 l 280 112 l 280 458 l 659 458 q 673 470 673 458 l 673 558 q 659 570 673 570 l 280 570 l 280 870 l 697 870 q 709 884 709 870 l 709 969 q 697 983 709 983 l 77 983 q 63 969 63 983 l 63 890 q 77 876 63 876 l 144 876 l 144 106 l 77 106 q 63 93 63 106 l 63 13 q 77 0 63 0 l 743 0 "},"؟":{"x_min":50,"x_max":606.296875,"ha":646,"o":"m 50 765 q 61 680 50 718 q 94 609 73 643 q 142 547 115 576 q 200 487 169 518 q 247 427 230 458 q 263 337 263 397 l 263 281 q 276 268 263 268 l 380 268 q 393 281 393 268 l 393 345 q 388 412 393 384 q 374 464 384 440 q 346 511 363 488 q 302 562 329 534 l 290 575 q 252 615 270 594 q 218 658 233 636 q 194 704 204 680 q 184 757 184 729 q 222 858 184 820 q 340 895 261 895 q 404 886 375 895 q 459 862 434 876 q 501 832 483 848 q 531 804 519 816 q 551 804 541 794 l 602 862 q 602 882 609 872 q 559 923 586 901 q 499 964 533 945 q 422 995 465 983 q 327 1008 379 1008 q 215 993 266 1008 q 127 947 163 977 q 70 870 90 916 q 50 765 50 825 m 236 77 q 264 10 236 37 q 329 -16 293 -16 q 393 10 365 -16 q 420 77 420 37 q 394 145 420 116 q 329 173 368 173 q 263 145 290 173 q 236 77 236 116 "},"ž":{"x_min":20.828125,"x_max":607,"ha":631,"o":"m 595 181 l 536 187 q 526 185 530 188 q 520 177 522 181 q 496 126 513 141 q 448 111 479 111 q 416 113 430 111 q 387 120 402 116 q 345 131 369 126 q 281 136 322 136 q 253 134 270 136 q 213 125 236 131 l 586 566 l 586 637 q 572 650 586 650 l 73 650 q 61 637 61 650 l 61 552 q 73 540 61 540 l 408 540 l 20 80 l 20 8 q 37 -5 20 -9 q 119 9 69 2 q 226 16 169 16 q 281 11 254 16 q 336 1 309 6 q 381 -7 359 -4 q 427 -11 404 -11 q 497 0 465 -11 q 553 33 529 11 q 592 88 577 55 q 607 168 607 122 l 595 181 m 544 937 q 544 950 548 944 q 531 957 540 957 l 450 957 q 438 950 441 957 l 331 766 l 222 950 q 209 957 218 957 l 122 957 q 111 950 115 957 q 111 937 106 944 l 259 682 q 264 678 261 680 q 270 676 268 676 l 384 676 q 391 678 387 676 q 397 682 395 680 l 544 937 "},"á":{"x_min":40.28125,"x_max":716.71875,"ha":749,"o":"m 716 69 l 687 118 q 668 120 680 127 q 646 109 659 116 q 622 102 633 102 q 606 109 611 102 q 601 140 601 116 l 601 416 q 538 600 601 534 q 336 666 475 666 q 225 654 277 666 q 130 618 172 641 q 125 600 119 612 l 152 531 q 161 525 155 526 q 170 526 166 523 q 246 553 209 545 q 319 561 283 561 q 432 527 394 561 q 470 431 470 494 l 470 390 q 397 431 443 413 q 294 448 351 448 q 187 431 234 448 q 107 382 140 413 q 57 309 75 351 q 40 216 40 266 q 104 45 40 108 q 286 -16 168 -16 q 405 8 356 -16 q 479 62 454 33 q 512 15 488 31 q 580 0 536 0 q 650 13 615 0 q 712 51 684 27 l 716 69 m 472 219 q 425 122 472 158 q 312 86 379 86 q 206 122 241 86 q 172 216 172 158 q 205 310 172 273 q 308 347 238 347 q 430 309 388 347 q 472 219 472 272 m 558 936 q 560 949 563 943 q 548 955 556 955 l 443 955 q 433 950 436 955 l 252 709 q 250 695 247 702 q 262 688 254 688 l 352 688 q 359 690 355 688 q 362 694 362 691 l 558 936 "},"×":{"x_min":76.390625,"x_max":709.09375,"ha":758,"o":"m 704 641 l 479 416 l 702 193 q 702 173 712 183 l 634 106 q 615 106 625 97 l 393 330 l 169 106 q 150 106 159 97 l 81 173 q 81 193 76 183 l 305 416 l 80 641 q 80 659 72 650 l 148 727 q 168 727 158 737 l 393 502 l 616 727 q 636 727 626 737 l 704 659 q 704 641 713 650 "},"п":{"x_min":27.78125,"x_max":608.375,"ha":642,"o":"m 594 555 q 608 569 608 555 l 608 654 q 594 668 608 668 l 40 666 q 27 652 27 666 l 27 568 q 40 554 27 554 l 77 554 l 77 105 l 47 105 q 34 91 34 105 l 34 12 q 47 -1 34 -1 l 244 -1 q 258 12 258 -1 l 258 91 q 244 105 258 105 l 215 105 l 215 554 l 422 554 l 422 106 l 391 106 q 379 93 379 106 l 379 13 q 391 0 379 0 l 588 0 q 602 13 602 0 l 602 93 q 588 106 602 106 l 559 106 l 559 555 l 594 555 "},"K":{"x_min":59.734375,"x_max":919.515625,"ha":920,"o":"m 907 0 q 919 13 919 0 l 919 93 q 907 106 919 106 l 819 106 l 506 625 l 738 876 l 861 876 q 875 890 875 876 l 875 969 q 861 983 875 983 l 682 983 q 672 979 676 983 l 277 545 l 277 969 q 265 983 277 983 l 73 983 q 59 969 59 983 l 59 890 q 73 876 59 876 l 141 876 l 141 106 l 73 106 q 59 93 59 106 l 59 13 q 73 0 59 0 l 265 0 q 277 13 277 0 l 277 375 l 409 519 l 715 6 q 727 0 718 0 l 907 0 "},"7":{"x_min":76.390625,"x_max":697.28125,"ha":758,"o":"m 697 894 l 697 969 q 683 983 697 983 l 88 983 q 76 969 76 983 l 76 876 q 88 862 76 862 l 554 862 l 180 19 q 181 6 177 12 q 193 0 184 0 l 301 0 q 313 8 311 0 l 697 894 "},"¨":{"x_min":141.671875,"x_max":566.71875,"ha":682,"o":"m 566 813 q 543 866 566 844 q 483 888 519 888 q 423 866 447 888 q 400 813 400 844 q 423 760 400 782 q 483 738 447 738 q 543 760 519 738 q 566 813 566 782 m 308 813 q 284 866 308 844 q 225 888 261 888 q 165 866 190 888 q 141 813 141 844 q 165 760 141 782 q 225 738 190 738 q 284 760 261 738 q 308 813 308 782 "},"Y":{"x_min":0,"x_max":812.5625,"ha":813,"o":"m 798 876 q 812 890 812 876 l 812 969 q 798 983 812 983 l 669 983 q 657 976 659 983 l 420 563 l 163 976 q 152 983 159 983 l 12 983 q 0 969 0 983 l 0 890 q 12 876 0 876 l 72 876 l 348 434 l 348 106 l 281 106 q 268 93 268 106 l 268 13 q 281 0 268 0 l 552 0 q 566 13 566 0 l 566 93 q 552 106 566 106 l 486 106 l 486 438 l 736 876 l 798 876 "},"E":{"x_min":63.890625,"x_max":757,"ha":758,"o":"m 743 0 q 755 13 755 0 l 757 98 q 744 112 757 112 l 280 112 l 280 458 l 659 458 q 673 470 673 458 l 673 558 q 659 570 673 570 l 280 570 l 280 870 l 697 870 q 709 884 709 870 l 709 969 q 697 983 709 983 l 77 983 q 63 969 63 983 l 63 890 q 77 876 63 876 l 144 876 l 144 106 l 77 106 q 63 93 63 106 l 63 13 q 77 0 63 0 l 743 0 "},"Ô":{"x_min":70.84375,"x_max":1001.46875,"ha":1047,"o":"m 1001 494 q 971 702 1001 607 q 883 866 941 797 q 737 975 825 936 q 536 1013 650 1013 q 335 975 422 1013 q 189 866 248 936 q 100 702 130 797 q 70 494 70 607 q 100 286 70 381 q 189 122 130 191 q 335 13 248 52 q 536 -25 422 -25 q 737 13 650 -25 q 883 122 825 52 q 971 286 941 191 q 1001 494 1001 381 m 852 494 q 834 341 852 413 q 778 213 816 268 q 679 125 740 158 q 536 93 619 93 q 393 125 452 93 q 295 213 333 158 q 238 341 256 268 q 220 494 220 413 q 238 648 220 575 q 295 777 256 722 q 393 864 333 832 q 536 897 452 897 q 679 864 619 897 q 778 777 740 832 q 834 648 816 722 q 852 494 852 575 m 801 1034 q 818 1047 818 1030 l 818 1122 q 811 1134 818 1130 l 543 1250 q 533 1250 536 1252 l 268 1134 q 259 1122 259 1132 l 259 1047 q 277 1034 259 1029 l 537 1125 l 801 1034 "},"Є":{"x_min":62.5,"x_max":810.109375,"ha":845,"o":"m 765 440 q 779 451 779 440 l 779 529 q 765 540 779 540 l 212 540 q 243 679 218 615 q 309 789 268 743 q 407 862 350 836 q 536 888 465 888 q 661 873 608 888 q 757 841 715 858 q 775 848 769 836 l 808 933 q 801 951 813 945 q 684 990 750 972 q 529 1008 619 1008 q 340 970 426 1008 q 192 865 254 933 q 96 702 130 797 q 62 491 62 607 q 95 279 62 375 q 190 116 129 184 q 336 11 251 48 q 526 -25 422 -25 q 686 -6 619 -25 q 798 36 754 12 q 805 48 805 38 l 805 150 q 799 162 805 158 q 786 162 793 166 q 683 118 740 137 q 541 98 626 98 q 416 123 473 98 q 316 193 359 148 q 246 301 273 238 q 212 440 219 363 l 765 440 "},"Ï":{"x_min":-34.71875,"x_max":455.59375,"ha":394,"o":"m 344 0 q 356 13 356 0 l 356 93 q 344 106 356 106 l 277 106 l 277 880 l 344 880 q 356 894 356 880 l 356 975 q 344 988 356 988 l 76 988 q 62 975 62 988 l 62 894 q 76 880 62 880 l 143 880 l 143 106 l 76 106 q 62 93 62 106 l 62 13 q 76 0 62 0 l 344 0 m 134 1115 q 110 1177 134 1151 q 50 1202 86 1202 q -10 1177 13 1202 q -34 1115 -34 1151 q -10 1054 -34 1079 q 50 1029 13 1029 q 110 1054 86 1029 q 134 1115 134 1079 m 455 1115 q 431 1177 455 1151 q 372 1202 408 1202 q 311 1177 336 1202 q 287 1115 287 1151 q 311 1054 287 1079 q 372 1029 336 1029 q 431 1054 408 1029 q 455 1115 455 1079 "},"ġ":{"x_min":66.671875,"x_max":711.171875,"ha":788,"o":"m 711 34 l 711 645 q 697 659 711 659 l 594 659 q 580 645 580 659 l 580 588 q 366 675 505 675 q 239 648 295 675 q 145 575 183 622 q 86 466 106 529 q 66 329 66 402 q 86 190 66 254 q 143 81 105 127 q 239 9 181 34 q 373 -16 297 -16 q 486 4 430 -16 q 580 68 541 26 l 580 26 q 572 -60 580 -18 q 541 -137 563 -102 q 477 -193 518 -172 q 372 -213 436 -213 q 251 -200 301 -213 q 169 -170 201 -186 q 156 -171 162 -168 q 150 -181 150 -175 l 150 -272 q 158 -283 150 -280 q 252 -312 198 -300 q 379 -325 305 -325 q 526 -299 463 -325 q 629 -226 588 -273 q 691 -112 670 -179 q 711 34 711 -45 m 580 329 q 566 239 580 281 q 527 164 552 197 q 463 113 501 131 q 379 94 426 94 q 299 113 331 94 q 245 164 266 131 q 215 239 225 197 q 205 329 205 281 q 215 419 205 376 q 245 494 225 462 q 299 545 266 526 q 379 565 331 565 q 463 545 426 565 q 527 494 501 526 q 566 419 552 462 q 580 329 580 376 m 456 838 q 435 891 456 869 q 381 913 413 913 q 328 891 350 913 q 306 838 306 869 q 328 785 306 807 q 381 763 350 763 q 435 785 413 763 q 456 838 456 807 "},"έ":{"x_min":37.5,"x_max":573.65625,"ha":606,"o":"m 37 195 q 62 102 37 141 q 127 37 87 63 q 218 -1 168 11 q 322 -13 269 -13 q 448 0 393 -13 q 565 43 504 15 q 570 49 568 44 q 573 58 573 54 l 573 156 q 566 172 573 168 q 548 172 558 177 q 488 143 516 155 q 435 124 461 131 q 381 113 409 116 q 322 111 354 111 q 234 136 263 111 q 204 201 204 161 q 240 266 204 245 q 329 287 276 287 l 384 286 q 402 302 402 286 l 402 394 q 384 411 402 411 l 341 411 q 295 414 318 411 q 256 426 273 418 q 229 448 240 434 q 219 484 219 462 q 245 536 219 515 q 326 556 272 556 q 417 540 377 556 q 494 504 456 523 q 497 501 497 502 q 501 498 498 500 q 522 504 512 491 l 569 572 q 571 587 572 579 q 565 598 570 595 q 516 627 543 612 q 457 654 488 641 q 390 674 426 666 q 312 682 354 682 q 216 671 262 682 q 136 638 170 661 q 80 579 101 615 q 59 493 59 544 q 138 354 59 405 q 64 291 91 334 q 37 195 37 248 m 475 966 q 472 979 477 973 q 458 986 466 986 l 368 986 q 359 980 362 986 l 256 740 q 259 726 254 733 q 273 719 265 719 l 348 719 q 354 720 351 719 q 356 725 356 722 l 475 966 "},"Ɖ":{"x_min":52.78125,"x_max":891.734375,"ha":936,"o":"m 891 491 q 859 685 891 595 q 763 841 827 775 q 603 945 700 908 q 376 983 506 983 l 77 983 q 63 969 63 983 l 63 890 q 77 876 63 876 l 145 876 l 145 548 l 65 548 q 52 534 52 548 l 52 452 q 65 438 52 438 l 145 438 l 145 106 l 77 106 q 63 93 63 106 l 63 13 q 77 0 63 0 l 376 0 q 603 37 506 0 q 763 140 700 75 q 859 297 827 206 q 891 491 891 387 m 743 491 q 717 338 743 408 q 647 218 691 268 q 541 140 602 168 q 408 112 480 112 l 281 112 l 281 438 l 456 438 q 470 452 470 438 l 470 534 q 456 548 470 548 l 281 548 l 281 870 l 391 870 q 534 843 469 870 q 645 764 598 815 q 717 644 691 713 q 743 491 743 575 "},"ϋ":{"x_min":5.09375,"x_max":685.953125,"ha":733,"o":"m 568 650 q 554 637 554 650 l 554 333 q 544 243 554 286 q 513 167 534 200 q 458 115 491 134 q 377 95 425 95 q 284 137 312 95 q 256 247 256 179 l 256 536 q 230 616 256 581 q 143 650 204 650 q 76 636 111 650 q 11 600 41 622 q 5 591 6 597 q 6 583 4 586 l 34 536 q 43 529 37 530 q 54 531 50 527 q 76 544 63 538 q 100 550 88 550 q 117 543 111 550 q 123 516 123 536 l 123 219 q 181 47 123 112 q 369 -16 240 -16 q 493 -2 436 -16 q 580 51 550 11 q 652 154 630 97 q 680 281 673 211 q 685 441 687 352 q 684 637 683 529 q 670 650 684 650 l 568 650 m 605 813 q 581 866 605 844 q 522 888 558 888 q 462 866 486 888 q 438 813 438 844 q 462 760 438 782 q 522 738 486 738 q 581 760 558 738 q 605 813 605 782 m 347 813 q 323 866 347 844 q 263 888 300 888 q 204 866 229 888 q 180 813 180 844 q 204 760 180 782 q 263 738 229 738 q 323 760 300 738 q 347 813 347 782 "},"⊤":{"x_min":4.171875,"x_max":745.890625,"ha":745,"o":"m 732 870 q 745 884 745 870 l 745 969 q 732 983 745 983 l 16 983 q 4 969 4 983 l 4 884 q 16 870 4 870 l 305 870 l 305 13 q 318 0 305 0 l 430 0 q 444 13 444 0 l 443 870 l 732 870 "},"й":{"x_min":43.0625,"x_max":780.625,"ha":806,"o":"m 56 558 l 125 558 l 125 13 q 137 0 125 0 l 275 0 q 284 5 281 0 l 570 463 l 570 13 q 583 0 570 0 l 768 0 q 780 13 780 0 l 780 93 q 768 106 780 106 l 700 106 l 700 558 l 768 558 q 780 572 780 558 l 780 651 q 768 665 780 665 l 550 665 q 543 663 547 665 q 538 659 540 662 l 254 202 l 254 651 q 240 665 254 665 l 56 665 q 43 651 43 665 l 43 572 q 56 558 43 558 m 629 987 l 556 987 q 543 977 545 987 q 425 859 525 859 q 343 888 372 859 q 305 976 315 916 q 293 987 302 987 l 213 987 q 201 973 201 987 q 267 813 208 863 q 422 762 326 762 q 576 813 518 762 q 643 973 634 863 l 629 987 "},"b":{"x_min":-17.140625,"x_max":751.453125,"ha":792,"o":"m 751 330 q 732 468 751 405 q 674 578 712 531 q 577 650 636 625 q 441 676 519 676 q 327 654 381 676 q 234 590 272 632 l 233 947 q 207 1030 233 994 q 120 1066 181 1066 q 54 1052 88 1066 q -11 1015 19 1038 q -16 1007 -15 1012 q -15 998 -18 1001 l 13 950 q 33 947 22 938 q 54 959 43 954 q 79 963 66 963 q 97 955 91 963 q 102 925 102 947 l 102 13 q 116 0 102 0 l 220 0 q 234 13 234 0 l 234 79 q 321 11 266 38 q 451 -16 376 -16 q 578 9 522 -16 q 672 82 634 36 q 731 193 711 129 q 751 330 751 256 m 612 330 q 602 240 612 283 q 572 165 593 198 q 518 114 551 133 q 437 95 484 95 q 351 114 388 95 q 288 165 313 133 q 248 240 262 198 q 234 330 234 283 q 248 420 234 377 q 288 495 262 463 q 351 547 313 527 q 437 566 388 566 q 518 547 484 566 q 572 495 551 527 q 602 420 593 463 q 612 330 612 377 "},"̃":{"x_min":113.75,"x_max":597.265625,"ha":685,"o":"m 587 887 l 597 872 q 577 822 591 845 q 540 781 562 798 q 490 757 518 763 q 431 757 462 750 q 383 770 398 763 q 350 786 368 777 l 338 793 q 335 794 334 795 q 331 795 336 793 q 302 811 316 804 q 272 822 287 819 q 233 811 248 827 q 208 775 218 795 q 193 768 201 768 l 125 784 q 113 800 112 787 q 136 849 120 825 q 175 890 152 873 q 226 914 197 907 q 290 915 255 922 q 338 899 319 908 q 386 875 358 890 q 394 869 387 869 l 393 872 q 418 857 408 863 q 443 848 429 851 q 480 859 465 844 q 504 895 495 873 q 519 902 506 904 l 587 887 "},"ύ":{"x_min":5.09375,"x_max":685.953125,"ha":733,"o":"m 568 650 q 554 637 554 650 l 554 333 q 544 243 554 286 q 513 167 534 200 q 458 115 491 134 q 377 95 425 95 q 284 137 312 95 q 256 247 256 179 l 256 536 q 230 616 256 581 q 143 650 204 650 q 76 636 111 650 q 11 600 41 622 q 5 591 6 597 q 6 583 4 586 l 34 536 q 43 529 37 530 q 54 531 50 527 q 76 544 63 538 q 100 550 88 550 q 117 543 111 550 q 123 516 123 536 l 123 219 q 181 47 123 112 q 369 -16 240 -16 q 493 -2 436 -16 q 580 51 550 11 q 652 154 630 97 q 680 281 673 211 q 685 441 687 352 q 684 637 683 529 q 670 650 684 650 l 568 650 m 537 945 q 534 959 540 952 q 520 965 529 965 l 430 965 q 422 959 425 965 l 319 719 q 322 705 316 712 q 336 698 327 698 l 411 698 q 416 700 413 698 q 419 704 419 701 l 537 945 "},"ﬂ":{"x_min":11.109375,"x_max":758.390625,"ha":743,"o":"m 758 62 l 729 111 q 720 117 726 116 q 708 115 713 118 q 686 102 700 109 q 662 95 673 95 q 645 102 651 95 q 640 134 640 109 l 640 825 q 619 943 640 897 q 563 1017 598 990 q 484 1055 529 1044 q 388 1066 438 1066 q 197 997 263 1066 q 130 797 130 927 l 130 661 l 23 661 q 11 647 11 661 l 11 572 q 23 559 11 559 l 130 559 l 130 13 q 143 0 130 0 l 247 0 q 261 13 261 0 l 261 559 l 400 559 q 413 572 413 559 l 413 647 q 400 661 413 661 l 261 661 l 261 801 q 295 931 261 894 q 387 968 329 968 q 478 933 448 968 q 508 816 508 898 l 508 130 q 531 27 508 63 q 620 -8 555 -8 q 690 6 655 -8 q 754 44 725 20 l 758 62 "},"ƞ":{"x_min":9.828125,"x_max":808.390625,"ha":750,"o":"m 808 -245 l 779 -197 q 770 -190 776 -191 q 758 -193 763 -190 q 736 -205 750 -198 q 712 -212 723 -212 q 697 -206 702 -212 q 691 -175 691 -200 l 691 430 q 632 602 691 537 q 445 666 573 666 q 328 638 377 666 q 250 572 279 611 q 218 628 241 605 q 145 651 194 651 q 80 636 113 651 q 16 600 47 622 q 12 583 5 591 l 40 536 q 49 529 43 530 q 59 531 55 527 q 81 544 69 538 q 105 550 94 550 q 124 541 118 550 q 130 511 130 533 l 130 13 q 143 0 130 0 l 247 0 q 259 13 259 0 l 259 318 q 269 408 259 365 q 300 484 279 451 q 355 536 322 516 q 436 555 388 555 q 529 514 501 555 q 558 404 558 473 l 556 -184 q 581 -280 556 -245 q 670 -315 607 -315 q 740 -300 705 -315 q 804 -262 775 -286 l 808 -245 "},"ф":{"x_min":52.78125,"x_max":884.796875,"ha":931,"o":"m 519 -158 q 531 -144 531 -158 l 531 0 q 680 36 615 8 q 791 107 745 63 q 861 210 837 151 q 884 338 884 269 q 861 468 884 409 q 791 570 837 526 q 680 642 745 615 q 531 677 615 669 l 531 811 q 519 825 531 825 l 415 825 q 402 811 402 825 l 402 676 q 254 641 319 668 q 145 570 190 613 q 76 467 100 526 q 52 338 52 408 q 76 211 52 269 q 145 108 100 152 q 254 36 190 63 q 402 0 319 8 l 401 -144 q 413 -158 401 -158 l 519 -158 m 184 338 q 197 418 184 380 q 238 488 211 456 q 306 541 265 519 q 402 570 347 562 l 402 106 q 306 137 347 115 q 238 190 265 159 q 197 260 211 222 q 184 338 184 298 m 748 338 q 735 259 748 297 q 695 189 722 220 q 627 136 668 158 q 531 106 587 115 l 531 572 q 627 541 587 563 q 695 488 668 519 q 735 418 722 456 q 748 338 748 380 "},"Ŋ":{"x_min":65.28125,"x_max":1030.640625,"ha":1061,"o":"m 1016 876 q 1030 890 1030 876 l 1030 969 q 1016 983 1030 983 l 833 983 q 819 969 819 983 l 819 202 l 306 977 q 302 982 305 980 q 295 983 298 983 l 77 983 q 65 969 65 983 l 65 890 q 77 876 65 876 l 145 876 l 145 106 l 77 106 q 65 93 65 106 l 65 13 q 77 0 65 0 l 262 0 q 275 13 275 0 l 275 782 l 788 5 q 798 0 791 0 q 763 -110 783 -56 q 723 -202 743 -163 q 732 -220 719 -216 l 800 -244 q 807 -245 802 -245 q 813 -241 811 -244 q 845 -199 823 -229 q 891 -131 868 -169 q 931 -54 913 -94 q 948 18 948 -13 l 948 876 l 1016 876 "},"Ũ":{"x_min":45.84375,"x_max":952.859375,"ha":996,"o":"m 938 877 q 952 890 952 877 l 952 970 q 938 984 952 984 l 752 984 q 738 970 738 984 l 738 351 q 682 152 738 212 q 505 91 625 91 q 324 152 380 91 q 268 351 268 212 l 268 970 q 254 984 268 984 l 58 984 q 45 970 45 984 l 45 890 q 58 877 45 877 l 126 877 l 126 329 q 147 180 126 245 q 215 69 169 115 q 332 0 261 23 q 504 -25 404 -25 q 670 0 601 -25 q 785 69 740 23 q 851 180 830 115 q 872 329 872 245 l 872 877 l 938 877 m 754 1212 l 684 1212 q 672 1202 675 1212 q 657 1169 668 1184 q 620 1154 645 1154 q 570 1159 593 1154 q 523 1170 548 1163 q 516 1173 519 1172 q 508 1176 512 1175 l 509 1176 q 459 1188 484 1183 q 391 1193 433 1193 q 326 1179 354 1193 q 279 1145 298 1166 q 250 1098 261 1123 q 236 1047 238 1072 q 238 1037 234 1041 q 250 1033 243 1033 l 318 1033 q 331 1043 329 1033 q 347 1076 336 1059 q 388 1093 359 1093 q 431 1088 412 1093 q 469 1079 451 1084 l 468 1080 q 491 1073 480 1076 q 498 1071 495 1072 q 505 1069 501 1070 q 557 1059 529 1063 q 625 1054 586 1054 q 685 1067 659 1054 q 728 1101 711 1080 q 754 1148 745 1122 q 766 1200 763 1175 l 754 1212 "},"Щ":{"x_min":26.390625,"x_max":1586.234375,"ha":1621,"o":"m 1572 -204 q 1586 -191 1586 -204 l 1586 98 q 1572 111 1586 111 l 1375 111 l 1375 872 l 1441 872 q 1455 886 1455 872 l 1455 965 q 1441 979 1455 979 l 1158 979 q 1145 965 1145 979 l 1145 886 q 1158 872 1145 872 l 1238 872 l 1238 111 l 809 111 l 809 876 l 876 876 q 890 890 890 876 l 890 969 q 876 983 890 983 l 593 983 q 580 969 580 983 l 580 890 q 593 876 580 876 l 673 876 l 673 112 l 243 112 l 243 876 l 323 876 q 336 890 336 876 l 336 969 q 323 983 336 983 l 40 983 q 26 969 26 983 l 26 890 q 40 876 26 876 l 106 876 l 106 106 l 40 106 q 26 93 26 106 l 26 13 q 40 0 26 0 l 1461 1 l 1461 -191 q 1473 -204 1461 -204 l 1572 -204 "},"L":{"x_min":61.109375,"x_max":752.84375,"ha":753,"o":"m 740 0 q 752 13 752 0 l 752 98 q 740 112 752 112 l 277 112 l 277 876 l 358 876 q 370 890 370 876 l 370 969 q 358 983 370 983 l 75 983 q 61 969 61 983 l 61 890 q 75 876 61 876 l 141 876 l 141 106 l 75 106 q 61 93 61 106 l 61 13 q 75 0 61 0 l 740 0 "},";":{"x_min":63.703125,"x_max":295.859375,"ha":353,"o":"m 287 130 l 173 163 q 163 163 168 166 q 156 152 158 159 q 141 74 151 115 q 119 -4 131 33 q 93 -78 106 -43 q 65 -140 79 -113 q 73 -158 59 -154 l 141 -184 q 148 -184 144 -186 q 155 -180 152 -183 q 192 -125 172 -158 q 231 -54 212 -93 q 268 27 251 -15 q 295 112 284 69 l 287 130 m 284 562 q 259 627 284 600 q 197 655 233 655 q 135 627 161 655 q 109 562 109 600 q 136 495 109 522 q 197 468 163 468 q 257 495 230 468 q 284 562 284 522 "},"ď":{"x_min":66.671875,"x_max":983.40625,"ha":810,"o":"m 823 70 l 794 119 q 775 123 786 131 q 753 111 766 118 q 729 104 740 104 q 712 111 718 104 q 707 141 707 118 l 707 947 q 681 1030 707 994 q 594 1066 655 1066 q 527 1052 562 1066 q 462 1015 493 1038 q 456 1007 458 1012 q 458 998 455 1001 l 486 950 q 495 944 488 945 q 506 947 501 943 q 527 959 515 954 q 551 963 540 963 q 570 955 563 963 q 576 925 576 947 l 576 590 q 487 654 540 632 q 362 676 434 676 q 238 650 293 676 q 145 577 184 623 q 86 467 106 530 q 66 330 66 404 q 86 191 66 255 q 143 81 105 127 q 238 9 181 36 q 370 -16 295 -16 q 486 6 429 -16 q 581 73 543 29 q 615 19 590 38 q 687 0 640 0 q 756 14 722 0 q 819 52 790 29 l 823 70 m 576 330 q 563 240 576 283 q 524 165 550 197 q 461 113 498 133 q 379 94 425 94 q 300 113 333 94 q 247 165 268 133 q 216 240 226 197 q 206 330 206 283 q 217 420 206 377 q 248 495 227 463 q 302 547 269 527 q 381 566 336 566 q 463 547 427 566 q 525 495 500 527 q 563 420 550 463 q 576 330 576 377 m 975 1013 l 861 1045 q 844 1034 847 1048 q 829 959 838 998 q 807 884 819 920 q 780 813 794 847 q 752 755 766 780 q 761 737 748 741 l 829 713 q 836 713 832 712 q 843 716 840 713 q 879 768 859 737 q 919 836 900 800 q 955 914 938 873 q 983 997 972 955 l 975 1013 "},"↘":{"x_min":28.375,"x_max":795.890625,"ha":821,"o":"m 698 502 q 711 507 704 509 q 719 498 718 505 l 795 213 q 791 200 795 204 l 711 119 q 698 116 705 113 l 413 193 q 404 201 406 194 q 408 213 402 208 l 611 229 l 34 807 q 31 825 23 816 l 83 876 q 101 873 95 883 l 679 297 l 698 502 "},"Ο":{"x_min":61.109375,"x_max":991.75,"ha":1047,"o":"m 991 491 q 961 698 991 604 q 873 861 932 793 q 727 969 815 930 q 526 1008 640 1008 q 325 969 412 1008 q 179 861 238 930 q 90 698 120 793 q 61 491 61 604 q 90 285 61 380 q 179 121 120 190 q 325 13 238 52 q 526 -25 412 -25 q 727 13 640 -25 q 873 121 815 52 q 961 285 932 190 q 991 491 991 380 m 843 491 q 825 338 843 411 q 768 211 807 266 q 670 124 730 156 q 526 91 609 91 q 383 124 443 91 q 285 211 323 156 q 229 338 247 266 q 211 491 211 411 q 229 645 211 572 q 285 772 247 718 q 383 860 323 827 q 526 893 443 893 q 670 860 609 893 q 768 772 730 827 q 825 645 807 718 q 843 491 843 572 "},"Ĭ":{"x_min":-30.5625,"x_max":411.140625,"ha":379,"o":"m 322 0 q 334 13 334 0 l 334 93 q 322 106 334 106 l 256 106 l 256 876 l 322 876 q 334 890 334 876 l 334 969 q 322 983 334 983 l 63 983 q 51 969 51 983 l 51 890 q 63 876 51 876 l 127 876 l 127 106 l 63 106 q 51 93 51 106 l 51 13 q 63 0 51 0 l 322 0 m 397 1287 l 325 1287 q 311 1277 313 1287 q 193 1159 293 1159 q 111 1188 140 1159 q 73 1276 83 1216 q 61 1287 70 1287 l -18 1287 q -30 1273 -30 1287 q 35 1113 -23 1163 q 190 1062 94 1062 q 344 1113 286 1062 q 411 1273 402 1163 l 397 1287 "},"ŧ":{"x_min":-16.671875,"x_max":448.640625,"ha":428,"o":"m 434 362 q 447 373 447 362 l 447 456 q 434 468 447 468 l 254 468 l 254 555 l 408 555 q 422 569 422 555 l 422 643 q 408 655 422 655 l 254 655 l 254 822 q 241 834 254 834 l 140 834 q 126 822 126 834 l 126 655 l 23 655 q 11 643 11 655 l 11 569 q 23 555 11 555 l 126 555 l 126 468 l -2 468 q -16 456 -16 468 l -16 373 q -2 362 -16 362 l 126 362 l 126 175 q 170 32 126 75 q 302 -9 215 -9 q 344 -5 323 -9 q 384 4 365 -1 q 418 15 402 9 q 441 26 433 22 l 448 38 l 448 115 q 441 127 448 123 q 427 126 434 130 q 381 106 412 116 q 322 97 351 97 q 266 118 279 97 q 254 190 254 138 l 254 362 l 434 362 "},"À":{"x_min":0,"x_max":916.734375,"ha":917,"o":"m 902 0 q 916 13 916 0 l 916 93 q 902 106 916 106 l 832 106 l 536 979 q 523 988 533 988 l 409 988 q 397 979 400 988 l 80 106 l 12 106 q 0 93 0 106 l 0 13 q 12 0 0 0 l 163 0 q 176 9 173 0 l 290 336 l 611 336 l 718 9 q 732 0 720 0 l 902 0 m 622 1029 q 634 1032 629 1027 q 638 1043 638 1036 l 638 1122 q 627 1134 638 1132 l 206 1222 q 195 1219 200 1223 q 190 1208 190 1215 l 190 1109 q 201 1095 190 1098 l 622 1029 m 458 808 l 572 452 l 330 452 l 458 808 "},"Ϊ":{"x_min":-34.71875,"x_max":455.59375,"ha":394,"o":"m 344 0 q 356 13 356 0 l 356 93 q 344 106 356 106 l 277 106 l 277 880 l 344 880 q 356 894 356 880 l 356 975 q 344 988 356 988 l 76 988 q 62 975 62 988 l 62 894 q 76 880 62 880 l 143 880 l 143 106 l 76 106 q 62 93 62 106 l 62 13 q 76 0 62 0 l 344 0 m 134 1115 q 110 1177 134 1151 q 50 1202 86 1202 q -10 1177 13 1202 q -34 1115 -34 1151 q -10 1054 -34 1079 q 50 1029 13 1029 q 110 1054 86 1029 q 134 1115 134 1079 m 455 1115 q 431 1177 455 1151 q 372 1202 408 1202 q 311 1177 336 1202 q 287 1115 287 1151 q 311 1054 287 1079 q 372 1029 336 1029 q 431 1054 408 1029 q 455 1115 455 1079 "},"½":{"x_min":280.578125,"x_max":1393.171875,"ha":1545,"o":"m 1215 957 q 1212 976 1225 969 l 1140 1026 q 1131 1028 1137 1029 q 1122 1023 1125 1027 l 356 27 q 359 9 347 18 l 430 -40 q 450 -37 441 -48 l 1215 957 m 1380 131 l 1322 137 q 1312 135 1316 138 q 1307 127 1308 131 q 1293 102 1304 108 q 1266 97 1282 97 q 1252 98 1258 97 q 1237 102 1245 100 l 1238 102 q 1213 108 1227 105 q 1175 111 1200 111 q 1166 110 1170 111 q 1158 109 1162 109 l 1194 134 q 1325 245 1276 193 q 1373 366 1373 298 q 1322 489 1373 445 q 1172 533 1270 533 q 1110 525 1140 533 q 1054 505 1080 518 q 1008 478 1029 493 q 973 450 987 463 q 972 431 963 443 l 1012 379 q 1022 373 1016 373 q 1032 377 1029 373 q 1091 416 1058 401 q 1158 430 1123 430 q 1207 423 1188 430 q 1234 406 1225 416 q 1248 385 1244 397 q 1251 363 1251 373 q 1223 294 1251 327 q 1125 206 1194 261 l 952 75 q 948 70 950 73 q 947 63 947 66 l 947 1 q 951 -9 947 -5 q 962 -12 955 -13 q 995 -9 980 -9 q 1026 -5 1011 -8 q 1069 0 1048 -2 q 1111 2 1090 2 q 1149 0 1130 2 q 1187 -4 1168 -1 q 1219 -9 1204 -6 q 1254 -11 1234 -11 q 1309 -4 1283 -11 q 1353 16 1334 1 q 1382 56 1372 31 q 1393 118 1393 81 l 1380 131 m 538 463 q 552 477 552 463 l 552 543 q 538 556 552 556 l 479 556 l 479 988 q 475 1000 479 995 q 463 1001 470 1004 l 291 961 q 280 947 280 958 l 280 880 q 297 866 280 862 l 361 882 l 361 556 l 301 556 q 287 543 287 556 l 287 477 q 301 463 287 463 l 538 463 "},"'":{"x_min":106.953125,"x_max":245.859375,"ha":329,"o":"m 245 973 q 233 987 245 987 l 118 987 q 106 973 106 987 l 126 665 q 137 654 126 654 l 213 654 q 225 665 225 654 l 245 973 "},"ĳ":{"x_min":9.09375,"x_max":566.71875,"ha":628,"o":"m 566 -97 l 566 543 q 542 627 566 591 q 459 663 518 663 q 396 649 430 663 q 333 612 362 634 q 329 594 323 605 l 356 547 q 365 540 359 541 q 375 543 370 538 q 419 559 395 559 q 436 552 430 559 q 441 520 441 544 l 441 -86 q 439 -140 441 -115 q 428 -182 437 -165 q 402 -210 419 -200 q 354 -220 384 -220 q 301 -211 322 -220 q 265 -194 280 -202 q 252 -194 258 -190 q 245 -206 245 -198 l 245 -286 q 254 -297 245 -294 q 256 -298 256 -298 q 261 -300 258 -298 q 309 -318 284 -311 q 373 -326 334 -326 q 522 -265 479 -326 q 566 -97 566 -204 m 362 62 l 334 111 q 315 115 327 122 q 295 102 308 109 q 272 95 283 95 q 255 102 261 95 q 250 133 250 109 l 251 538 l 251 543 q 226 625 251 590 q 143 659 201 659 q 78 645 112 659 q 15 608 44 630 q 11 590 5 601 l 38 543 q 47 536 41 537 q 58 538 52 534 q 78 551 66 545 q 101 556 90 556 q 118 548 112 556 q 125 518 125 540 l 123 129 l 123 123 q 146 26 123 61 q 231 -8 169 -8 q 297 6 263 -8 q 359 44 331 20 l 362 62 m 565 898 q 540 963 565 936 q 479 990 515 990 q 418 963 443 990 q 393 898 393 936 q 417 833 393 858 q 479 808 441 808 q 541 833 516 808 q 565 898 565 858 m 252 893 q 229 953 252 927 q 169 979 205 979 q 111 953 134 979 q 87 893 87 927 q 110 831 87 855 q 169 807 133 807 q 229 831 205 807 q 252 893 252 855 "},"Р":{"x_min":56.953125,"x_max":762.5625,"ha":788,"o":"m 762 693 q 676 907 762 830 q 437 983 590 983 l 70 983 q 56 969 56 983 l 56 890 q 70 876 56 876 l 137 876 l 137 106 l 70 106 q 56 93 56 106 l 56 13 q 70 0 56 0 l 350 0 q 363 13 363 0 l 363 93 q 350 106 363 106 l 272 106 l 272 408 l 437 408 q 676 481 590 408 q 762 693 762 554 m 622 693 q 575 563 622 605 q 443 520 529 520 l 272 520 l 272 870 l 443 870 q 575 825 529 870 q 622 693 622 779 "},"˛":{"x_min":204.1875,"x_max":479.203125,"ha":660,"o":"m 479 -225 l 479 -159 q 473 -148 479 -152 q 461 -148 468 -144 q 413 -168 436 -161 q 366 -175 391 -175 q 324 -162 338 -175 q 309 -129 309 -150 q 320 -88 309 -108 q 345 -52 330 -69 q 378 -20 361 -34 q 409 2 395 -6 q 414 16 416 8 q 402 25 412 25 l 334 25 q 241 -52 279 -8 q 204 -158 204 -95 q 245 -245 204 -216 q 344 -273 287 -273 q 408 -264 379 -273 q 473 -236 437 -255 l 479 -225 "},"♂":{"x_min":41.671875,"x_max":938.96875,"ha":976,"o":"m 680 363 q 667 472 680 422 q 630 563 654 523 l 815 748 l 813 540 q 826 526 813 526 l 926 526 q 938 540 938 526 l 938 951 l 527 951 q 513 937 513 951 l 513 841 q 527 827 513 827 l 743 826 l 562 641 q 361 705 481 705 q 227 680 286 705 q 126 611 168 655 q 63 503 84 566 q 41 363 41 440 q 63 225 41 287 q 126 117 84 162 q 227 47 168 72 q 361 22 286 22 q 495 47 436 22 q 595 117 554 72 q 659 225 637 162 q 680 363 680 287 m 544 363 q 533 275 544 318 q 499 199 522 231 q 442 147 476 166 q 361 127 408 127 q 279 147 313 127 q 222 199 245 166 q 188 275 200 231 q 177 363 177 318 q 188 454 177 411 q 222 529 200 497 q 279 581 245 562 q 361 601 313 601 q 442 581 408 601 q 499 529 476 562 q 533 454 522 497 q 544 363 544 411 "},"Ć":{"x_min":62.5,"x_max":810.109375,"ha":845,"o":"m 808 933 q 801 951 813 945 q 684 990 750 972 q 529 1008 619 1008 q 340 970 426 1008 q 192 865 254 933 q 96 702 130 797 q 62 491 62 607 q 95 279 62 375 q 190 116 129 184 q 336 11 251 48 q 526 -25 422 -25 q 686 -6 619 -25 q 798 36 754 12 q 805 48 805 38 l 805 150 q 799 162 805 158 q 786 162 793 166 q 683 118 740 137 q 541 98 626 98 q 407 127 468 98 q 303 209 347 156 q 235 333 259 261 q 211 491 211 405 q 233 648 211 576 q 297 774 255 720 q 399 858 338 827 q 536 888 459 888 q 661 873 608 888 q 757 841 715 858 q 775 848 769 836 l 808 933 m 734 1107 q 744 1119 744 1109 l 744 1207 q 729 1218 744 1220 l 322 1141 q 311 1130 311 1138 l 311 1061 q 316 1051 311 1055 q 327 1048 320 1047 l 734 1107 "},"Т":{"x_min":4.171875,"x_max":745.890625,"ha":745,"o":"m 732 870 q 745 884 745 870 l 745 969 q 732 983 745 983 l 16 983 q 4 969 4 983 l 4 884 q 16 870 4 870 l 305 870 l 305 106 l 238 106 q 226 93 226 106 l 226 13 q 238 0 226 0 l 509 0 q 523 13 523 0 l 523 93 q 509 106 523 106 l 443 106 l 443 870 l 732 870 "},"£":{"x_min":34.71875,"x_max":740.34375,"ha":751,"o":"m 727 187 l 662 197 q 648 187 651 200 q 616 135 637 151 q 556 119 594 119 q 513 123 534 119 q 472 133 493 127 q 422 145 448 140 q 359 151 395 151 q 322 149 344 151 q 280 143 300 147 q 314 234 298 179 q 330 363 330 290 q 330 380 330 372 q 329 400 330 390 l 325 450 l 550 450 q 563 463 563 450 l 563 547 q 550 561 563 561 l 318 561 l 313 655 q 313 669 313 662 q 312 683 312 676 q 320 764 312 727 q 348 828 329 801 q 399 870 368 855 q 476 884 430 884 q 578 867 534 884 q 665 826 622 850 q 683 830 675 819 l 726 895 q 723 915 734 907 q 620 973 679 947 q 476 1000 562 1000 q 366 982 419 1000 q 270 929 312 965 q 204 836 229 893 q 179 704 179 780 l 179 682 l 184 561 l 48 561 q 34 547 34 561 l 34 463 q 48 450 34 450 l 190 450 l 194 390 l 194 379 q 195 344 194 361 q 195 309 195 327 q 190 237 195 273 q 163 173 184 201 q 115 127 144 143 q 48 95 87 111 q 38 83 38 93 l 38 8 q 43 -3 38 1 q 55 -5 48 -8 q 113 10 86 2 q 166 22 140 18 q 220 30 193 27 q 280 33 248 33 q 347 26 312 33 q 413 9 381 19 q 472 -4 444 1 q 530 -11 501 -11 q 611 0 573 -11 q 678 35 650 12 q 723 93 707 58 q 740 175 740 129 l 727 187 "},"ů":{"x_min":5.09375,"x_max":801.453125,"ha":786,"o":"m 801 69 l 772 116 q 763 122 769 122 q 751 120 757 123 q 729 109 743 116 q 705 102 716 102 q 689 109 694 102 q 684 140 684 116 l 684 637 q 670 650 684 650 l 568 650 q 554 637 554 650 l 554 333 q 544 243 554 286 q 513 167 534 200 q 458 115 491 134 q 377 95 425 95 q 284 137 312 95 q 256 247 256 179 l 256 536 q 230 616 256 581 q 143 650 204 650 q 76 636 111 650 q 11 600 41 622 q 5 591 6 597 q 6 583 4 586 l 34 536 q 43 529 37 530 q 54 531 50 527 q 76 544 63 538 q 100 550 88 550 q 117 543 111 550 q 123 516 123 536 l 123 219 q 181 47 123 112 q 369 -16 240 -16 q 484 10 436 -16 q 563 77 533 37 q 595 21 570 43 q 663 0 619 0 q 733 13 698 0 q 797 51 768 27 l 801 69 m 543 825 q 531 880 543 854 q 501 927 520 907 q 454 960 481 948 q 395 972 427 972 q 336 960 363 972 q 290 927 309 948 q 259 880 270 907 q 248 825 248 854 q 289 720 248 762 q 395 679 330 679 q 454 690 427 679 q 501 721 481 701 q 531 768 520 741 q 543 825 543 794 m 461 825 q 440 777 461 795 q 395 759 419 759 q 350 777 370 759 q 329 825 329 795 q 350 871 329 852 q 395 890 370 890 q 440 871 419 890 q 461 825 461 852 "},"Ō":{"x_min":61.109375,"x_max":991.75,"ha":1047,"o":"m 991 491 q 961 698 991 604 q 873 861 932 793 q 727 969 815 930 q 526 1008 640 1008 q 325 969 412 1008 q 179 861 238 930 q 90 698 120 793 q 61 491 61 604 q 90 285 61 380 q 179 121 120 190 q 325 13 238 52 q 526 -25 412 -25 q 727 13 640 -25 q 873 121 815 52 q 961 285 932 190 q 991 491 991 380 m 843 491 q 825 338 843 411 q 768 211 807 266 q 670 124 730 156 q 526 91 609 91 q 383 124 443 91 q 285 211 323 156 q 229 338 247 266 q 211 491 211 411 q 229 645 211 572 q 285 772 247 718 q 383 860 323 827 q 526 893 443 893 q 670 860 609 893 q 768 772 730 827 q 825 645 807 718 q 843 491 843 572 m 791 1045 q 804 1057 804 1045 l 804 1126 q 791 1137 804 1137 l 261 1137 q 247 1126 247 1137 l 247 1057 q 261 1045 247 1045 l 791 1045 "},"⅕":{"x_min":280.578125,"x_max":1266.859375,"ha":1545,"o":"m 1262 957 q 1259 976 1272 969 l 1187 1026 q 1178 1028 1184 1029 q 1169 1023 1172 1027 l 404 27 q 406 9 394 18 l 477 -40 q 497 -37 488 -48 l 1262 957 m 538 463 q 552 477 552 463 l 552 543 q 538 556 552 556 l 479 556 l 479 988 q 475 1000 479 995 q 463 1001 470 1004 l 291 961 q 280 947 280 958 l 280 880 q 297 866 280 862 l 361 882 l 361 556 l 301 556 q 287 543 287 556 l 287 477 q 301 463 287 463 l 538 463 "},"а":{"x_min":40.28125,"x_max":716.71875,"ha":720,"o":"m 716 69 l 687 118 q 668 120 680 127 q 646 109 659 116 q 622 102 633 102 q 606 109 611 102 q 601 140 601 116 l 601 416 q 538 600 601 534 q 336 666 475 666 q 225 654 277 666 q 130 618 172 641 q 125 600 119 612 l 152 531 q 161 525 155 526 q 170 526 166 523 q 246 553 209 545 q 319 561 283 561 q 432 527 394 561 q 470 431 470 494 l 470 390 q 397 431 443 413 q 294 448 351 448 q 187 431 234 448 q 107 382 140 413 q 57 309 75 351 q 40 216 40 266 q 104 45 40 108 q 286 -16 168 -16 q 405 8 356 -16 q 479 62 454 33 q 512 15 488 31 q 580 0 536 0 q 650 13 615 0 q 712 51 684 27 l 716 69 m 472 219 q 425 122 472 158 q 312 86 379 86 q 206 122 241 86 q 172 216 172 158 q 205 310 172 273 q 308 347 238 347 q 430 309 388 347 q 472 219 472 272 "},"Ğ":{"x_min":70.84375,"x_max":850.0625,"ha":903,"o":"m 850 63 l 850 509 q 837 523 850 523 l 640 523 q 626 509 626 523 l 626 429 q 640 415 626 415 l 715 415 l 715 123 q 636 104 675 111 q 550 97 597 97 q 413 126 475 97 q 308 208 351 155 q 241 333 265 261 q 218 491 218 405 q 240 648 218 576 q 303 774 262 720 q 404 858 344 827 q 538 888 463 888 q 672 870 619 888 q 762 832 725 851 q 773 831 768 829 q 782 838 779 833 l 818 923 q 812 941 823 936 q 696 988 765 968 q 526 1008 627 1008 q 342 970 426 1008 q 197 865 258 933 q 104 702 137 797 q 70 491 70 607 q 104 279 70 375 q 197 117 137 184 q 343 12 258 50 q 533 -25 429 -25 q 700 -4 623 -25 q 843 51 776 15 l 850 63 m 759 1236 l 680 1236 q 666 1227 669 1236 q 616 1166 654 1187 q 506 1144 579 1144 q 397 1166 434 1144 q 348 1227 361 1187 q 336 1236 345 1236 l 250 1236 q 237 1222 234 1236 q 313 1088 247 1134 q 505 1043 379 1043 q 696 1088 630 1043 q 773 1222 762 1134 l 759 1236 "},"ә":{"x_min":45.84375,"x_max":640.328125,"ha":695,"o":"m 59 375 q 45 361 45 375 l 45 316 q 119 68 45 154 q 331 -16 193 -16 q 460 8 402 -16 q 557 78 518 33 q 618 186 597 123 q 640 325 640 248 q 620 458 640 395 q 560 566 600 520 q 460 639 520 612 q 319 666 400 666 q 184 652 233 666 q 101 622 136 638 q 94 609 94 619 l 94 523 q 100 511 94 515 q 113 511 106 506 q 194 543 147 529 q 305 558 241 558 q 389 541 354 558 q 448 498 425 525 q 485 439 472 472 q 502 375 498 406 l 59 375 m 336 86 q 223 135 259 86 q 183 272 187 184 l 501 272 q 450 135 490 184 q 336 86 411 86 "},"Ʊ":{"x_min":56.953125,"x_max":1027.859375,"ha":1060,"o":"m 70 1008 q 56 994 56 1008 l 56 897 q 70 883 56 883 l 240 883 q 125 728 170 823 q 79 494 79 633 q 109 300 79 390 q 197 143 138 209 q 343 38 256 76 q 541 0 429 0 q 741 38 654 0 q 886 143 827 76 q 976 300 945 209 q 1007 494 1007 390 q 960 728 1007 633 q 845 883 913 823 l 1013 883 q 1027 897 1027 883 l 1027 994 q 1013 1008 1027 1008 l 613 1008 q 600 994 600 1008 l 600 902 q 611 888 600 891 q 687 861 644 883 q 768 794 730 840 q 831 676 805 748 q 857 498 857 604 l 857 494 q 842 366 857 431 q 792 245 827 300 q 696 157 757 191 q 543 123 636 123 q 389 157 450 123 q 293 245 329 191 q 243 366 258 300 q 229 494 229 431 l 229 498 q 254 676 229 604 q 318 794 280 748 q 397 861 355 840 q 475 888 440 883 q 484 902 484 891 l 484 994 q 472 1008 484 1008 l 70 1008 "},"v":{"x_min":-13.125,"x_max":698.671875,"ha":697,"o":"m 697 607 q 697 616 700 611 q 690 623 694 620 l 602 655 q 586 648 590 659 l 381 154 l 255 506 q 253 513 254 509 q 251 519 252 516 q 232 569 243 545 q 208 611 222 593 q 174 639 194 629 q 125 650 154 650 q 56 636 88 650 q -6 598 23 622 q -11 580 -16 591 l 16 534 q 34 529 22 520 q 56 539 44 534 q 80 544 68 544 q 102 531 94 544 q 122 490 111 518 l 304 8 q 316 0 306 0 l 431 0 q 444 8 441 0 l 697 607 "},"Ї":{"x_min":-34.71875,"x_max":455.59375,"ha":394,"o":"m 344 0 q 356 13 356 0 l 356 93 q 344 106 356 106 l 277 106 l 277 880 l 344 880 q 356 894 356 880 l 356 975 q 344 988 356 988 l 76 988 q 62 975 62 988 l 62 894 q 76 880 62 880 l 143 880 l 143 106 l 76 106 q 62 93 62 106 l 62 13 q 76 0 62 0 l 344 0 m 134 1115 q 110 1177 134 1151 q 50 1202 86 1202 q -10 1177 13 1202 q -34 1115 -34 1151 q -10 1054 -34 1079 q 50 1029 13 1029 q 110 1054 86 1029 q 134 1115 134 1079 m 455 1115 q 431 1177 455 1151 q 372 1202 408 1202 q 311 1177 336 1202 q 287 1115 287 1151 q 311 1054 287 1079 q 372 1029 336 1029 q 431 1054 408 1029 q 455 1115 455 1079 "},"̀":{"x_min":223.453125,"x_max":535.875,"ha":778,"o":"m 523 697 q 534 704 531 697 q 533 718 537 711 l 352 958 q 347 962 351 961 q 341 963 344 963 l 237 963 q 225 957 229 963 q 227 944 220 951 l 422 702 q 427 698 423 700 q 431 697 430 697 l 523 697 "},"û":{"x_min":5.09375,"x_max":801.453125,"ha":814,"o":"m 801 69 l 772 116 q 763 122 769 122 q 751 120 757 123 q 729 109 743 116 q 705 102 716 102 q 689 109 694 102 q 684 140 684 116 l 684 637 q 670 650 684 650 l 568 650 q 554 637 554 650 l 554 333 q 544 243 554 286 q 513 167 534 200 q 458 115 491 134 q 377 95 425 95 q 284 137 312 95 q 256 247 256 179 l 256 536 q 230 616 256 581 q 143 650 204 650 q 76 636 111 650 q 11 600 41 622 q 5 591 6 597 q 6 583 4 586 l 34 536 q 43 529 37 530 q 54 531 50 527 q 76 544 63 538 q 100 550 88 550 q 117 543 111 550 q 123 516 123 536 l 123 219 q 181 47 123 112 q 369 -16 240 -16 q 484 10 436 -16 q 563 77 533 37 q 595 21 570 43 q 663 0 619 0 q 733 13 698 0 q 797 51 768 27 l 801 69 m 587 676 q 600 682 595 676 q 600 694 604 687 l 451 950 q 438 957 447 957 l 325 957 q 318 954 322 957 q 313 950 315 952 l 166 694 q 166 682 162 687 q 177 676 170 676 l 259 676 q 266 678 262 676 q 272 682 270 680 l 376 863 l 488 682 q 493 678 490 680 q 500 676 497 676 l 587 676 "},"Ź":{"x_min":34.71875,"x_max":751.453125,"ha":751,"o":"m 737 0 q 751 13 751 0 l 751 101 q 737 115 751 115 l 193 115 l 744 870 l 744 969 q 730 983 744 983 l 55 983 q 43 969 43 983 l 43 882 q 55 868 43 868 l 583 868 l 34 116 l 34 13 q 47 0 34 0 l 737 0 m 615 1101 q 625 1113 625 1104 l 625 1201 q 609 1212 625 1215 l 202 1136 q 191 1125 191 1133 l 191 1055 q 196 1045 191 1050 q 208 1043 201 1041 l 615 1101 "}}}
